<svg xmlns="http://www.w3.org/2000/svg" viewBox="0 0 3125 3125" width="800" height="800">
	<defs>
		<clipPath clipPathUnits="userSpaceOnUse" id="cp1">
			<path d="M0 0L3125 0L3125 3125L0 3125Z" />
		</clipPath>
	</defs>
	<style>
		tspan { white-space:pre }
		.shp0 { fill: #6b77be } 
		.shp1 { fill: #ffffff } 
		.shp2 { fill: #fd99c5 } 
		.shp3 { fill: #ffc988 } 
		.shp4 { fill: #f5e988 } 
		.shp5 { fill: #b4a1ce } 
		.shp6 { fill: #fdc3d6 } 
		.shp7 { fill: #a9e6ef } 
		.shp8 { fill: #391a4f } 
		.shp9 { fill: #f7e3ef } 
	</style>
	<g id="Page 1" clip-path="url(#cp1)">
		<path id="Path 2" class="shp0" d="M2549.46 1082.82C2549.46 1102.66 2533.4 1118.74 2513.54 1118.74C2493.71 1118.74 2477.63 1102.66 2477.63 1082.82C2477.63 1062.99 2493.71 1046.91 2513.54 1046.91C2533.4 1046.91 2549.46 1062.99 2549.46 1082.82ZM597.87 1540.51C597.87 1564.34 578.54 1583.67 554.71 1583.67C530.87 1583.67 511.55 1564.34 511.55 1540.51C511.55 1516.67 530.87 1497.35 554.71 1497.35C578.54 1497.35 597.87 1516.67 597.87 1540.51Z" />
		<path id="Path 3" fill-rule="evenodd" class="shp1" d="M1829.82 1026.1C1823.29 994.38 1809.93 964.13 1791.66 937.23C1852.69 916.62 1919.7 916.04 1980.64 937.88C2042.55 960.08 2093.67 1006.4 2124.67 1064.09C2141.83 1096.07 2152.71 1131.54 2155.79 1167.74C2156.23 1172.91 2159.21 1178.09 2164.65 1179.37C2221.29 1192.72 2272.23 1224.5 2309.56 1269.12C2350 1317.47 2370.23 1379.77 2369.04 1442.54C2368.33 1479.32 2360.06 1515.96 2344.42 1549.28C2341.56 1555.33 2342.35 1563.75 2349.1 1567.13C2437.42 1611.33 2492.65 1713.7 2474.04 1811.91C2455.15 1911.57 2371.88 1992.04 2269.65 1999.98C2212.58 2004.41 2153.48 1988.75 2108.06 1953.33C2101.5 1948.2 2092.21 1948.03 2087.48 1955.98C2034.33 2045.34 1925.76 2088.12 1826.06 2058.56C1797.38 2050.05 1770.27 2036.01 1747.07 2017.08C1741.42 2012.47 1734.19 2011.88 1728.56 2017.08C1662.8 2077.85 1558.15 2086.96 1479.43 2046.9C1456.66 2035.31 1436.56 2019.9 1419.6 2000.78C1415.06 1995.66 1405.67 1995.8 1401.12 2000.78C1363.88 2041.47 1311.49 2067.79 1256.37 2072.35C1202.83 2076.77 1149.81 2060.64 1106.96 2028.39C1082.82 2010.23 1062.81 1987.08 1047.98 1960.81C1043.55 1952.96 1033.76 1952.93 1027.48 1958.17C944.08 2027.77 812.93 2031.24 728.59 1961.43C645.55 1892.68 614.9 1774.14 662.91 1676.18C689.01 1622.93 733.98 1578.57 789.51 1556.78C796.08 1554.2 800.64 1548.14 798.61 1540.75C774.04 1450.87 787.29 1352.45 833.21 1271.5C878.83 1191.07 956.3 1133.42 1045.2 1109.11C1093.9 1095.81 1145.28 1092.66 1195.11 1101.01C1196.88 1106.44 1198.89 1111.73 1201.03 1116.81C1247.2 1226.04 1355.46 1297.53 1470.89 1313.34C1534.46 1322.04 1600.48 1315.92 1661.45 1295.87C1718.09 1277.25 1770.4 1244.57 1801.86 1192.71C1831.82 1143.31 1841.44 1082.53 1829.82 1026.1ZM1892.58 1609.34C1904.89 1591.61 1930.71 1591.75 1942.91 1609.55C1945.7 1613.62 1948.46 1624.36 1955.15 1623.79C1961.27 1623.26 1961.52 1615.03 1960.17 1610.67C1949.2 1575.41 1901.62 1576.26 1883.51 1604.04C1879.79 1609.76 1888.77 1614.83 1892.58 1609.34ZM1668.83 1867.48C1658.93 1859.79 1646.64 1858.65 1634.54 1858.82C1634.53 1858.63 1634.51 1858.44 1634.49 1858.25C1633.49 1846.36 1615.31 1845.98 1615.67 1858.25C1616.51 1886.3 1595.11 1910.39 1566.47 1910.23C1537.79 1910.06 1516.82 1885.57 1517.99 1857.57C1518.49 1845.46 1499.67 1845.49 1499.17 1857.57C1497.58 1895.81 1527.92 1928.82 1566.47 1929.05C1586.01 1929.16 1603.48 1920.8 1615.83 1907.56C1627.18 1914.09 1639.63 1920.22 1653.05 1918.61C1664.25 1917.26 1675.5 1910.46 1679.53 1899.51C1683.95 1887.53 1678.55 1875.03 1668.83 1867.48ZM1550.66 1816.53C1550.66 1824.87 1557.42 1831.63 1565.76 1831.63C1574.1 1831.63 1580.86 1824.87 1580.86 1816.53C1580.86 1808.19 1574.1 1801.44 1565.76 1801.44C1557.42 1801.44 1550.66 1808.19 1550.66 1816.53ZM1318.57 1778.21C1318.57 1755.24 1310.31 1734.53 1297.09 1719.83C1299.26 1717.76 1301.4 1715.65 1303.57 1713.62C1308.39 1709.1 1316.37 1703.46 1317.54 1696.67C1318.4 1691.73 1314.64 1687.33 1309.44 1688.57C1302.59 1690.2 1297.64 1698.18 1293.35 1703.4C1291.36 1705.82 1289.25 1708.22 1287.19 1710.67C1279.62 1704.89 1271.01 1700.79 1261.76 1698.82C1262.34 1691.62 1262.49 1684.4 1261.04 1677.67C1259.47 1670.41 1247.92 1670.41 1246.35 1677.67C1244.98 1684.02 1245.04 1690.8 1245.53 1697.6C1234.39 1698.27 1223.95 1702.03 1214.81 1708.12C1212.81 1706.29 1210.79 1704.48 1208.73 1702.71C1202.38 1697.24 1196.9 1690.58 1188.31 1689.52C1183.54 1688.94 1179.67 1694.81 1181.07 1699.03C1183.72 1707.04 1192.27 1711.46 1198.72 1716.45C1199.84 1717.31 1200.97 1718.14 1202.1 1718.98C1188.42 1733.73 1179.85 1754.8 1179.85 1778.21C1179.85 1783.71 1180.33 1789.07 1181.23 1794.26C1180.77 1794.25 1180.31 1794.23 1179.85 1794.23C1136.15 1794.23 1100.73 1829.65 1100.73 1873.35C1100.73 1917.05 1136.15 1952.48 1179.85 1952.48C1223.55 1952.48 1258.98 1917.05 1258.98 1873.35C1258.98 1868.22 1258.47 1863.2 1257.54 1858.34C1291.91 1853.55 1318.57 1819.51 1318.57 1778.21ZM1183.89 1595.35C1190.93 1582.74 1203.62 1572.47 1218.46 1571.77C1225.85 1571.42 1233.14 1573.25 1239.45 1577.15C1245.38 1580.81 1248.72 1587.61 1256.33 1587.25C1259.23 1587.11 1261.9 1585.3 1262.68 1582.41C1265.46 1572.1 1253.9 1564.74 1245.85 1560.64C1236.71 1555.97 1226.17 1553.71 1215.93 1554.9C1195.85 1557.25 1179.07 1571.75 1174.76 1591.51C1173.6 1596.85 1181.02 1600.49 1183.89 1595.35ZM1834.61 1792.63C1834.61 1824.48 1850.47 1852.02 1873.49 1865.15C1872.5 1870.14 1871.98 1875.29 1871.98 1880.56C1871.98 1924.26 1907.4 1959.69 1951.1 1959.69C1994.8 1959.69 2030.23 1924.26 2030.23 1880.56C2030.23 1844.31 2005.84 1813.77 1972.58 1804.41C1973.06 1800.56 1973.32 1796.63 1973.32 1792.63C1973.32 1773.95 1967.86 1756.77 1958.71 1743.09C1966.37 1739.71 1973.9 1735.77 1980.66 1731.55C1990.06 1725.68 1981.81 1711.72 1972 1716.74C1964.2 1720.74 1956.26 1725.71 1948.86 1731.11C1942.49 1724.81 1935.14 1719.82 1927.09 1716.51C1927.93 1714.1 1928.7 1711.67 1929.47 1709.26C1931.58 1702.68 1934.39 1696.34 1932.99 1689.43C1931.98 1684.47 1924.96 1682.81 1921.64 1686.43C1916.93 1691.56 1916.1 1698.51 1914.53 1705.14C1913.95 1707.6 1913.36 1710.08 1912.84 1712.58C1909.93 1712.14 1906.98 1711.9 1903.97 1711.9C1897.93 1711.9 1892.07 1712.8 1886.48 1714.49C1884.96 1703.85 1881.75 1691.86 1873.4 1694.17C1867.41 1695.82 1867.82 1703.44 1869.04 1708.03C1870.16 1712.21 1871.51 1716.34 1872.93 1720.43C1850.21 1733.69 1834.61 1761.03 1834.61 1792.63Z" />
		<path id="Path 4" class="shp2" d="M2402.15 2176.35C2451.52 2206.08 2483.88 2256.4 2493.88 2312.88C2496.25 2326.33 2497.23 2340.15 2496.79 2353.94C2506.23 2352.77 2515.67 2352.42 2525.21 2352.77C2528.62 2352.9 2532.04 2353.13 2535.46 2353.44C2537.92 2320.73 2533.35 2287.69 2522.46 2256.71C2501.88 2198.21 2460.04 2149.77 2404.42 2122.15C2376.88 2108.46 2346.96 2100.17 2316.33 2097.35C2301.19 2095.96 2286.1 2096.02 2270.94 2097.21C2265.5 2097.65 2259.92 2098.6 2254.31 2099.56C2252.56 2118.13 2250.52 2136.75 2248.08 2155.33C2298.5 2139.69 2357.98 2149.77 2402.15 2176.35Z" />
		<path id="Path 5" class="shp3" d="M1552.23 683.31C1557.58 688.45 1563.12 693.34 1568.97 697.9C1579.94 706.43 1592.36 713.48 1605.22 718.72C1617.95 723.91 1631.62 727.5 1645.31 728.88C1652.66 729.63 1660.07 729.76 1667.45 729.41C1667.69 729.4 1667.94 729.38 1668.18 729.36C1666.07 715.69 1663.95 702.02 1661.86 688.34C1659.07 670.05 1656.28 651.76 1653.49 633.46C1647.46 634.06 1641.25 633.67 1636.04 633.15C1623.36 631.87 1611.09 628.65 1599.36 623.7C1585.07 617.68 1571.05 608.84 1560.36 597.24C1556.21 624.63 1552.49 652.11 1548.49 679.51C1549.76 680.81 1550.99 682.12 1552.23 683.31Z" />
		<path id="Path 6" class="shp4" d="M2215.73 2422.42C2188.33 2503.4 2126.46 2585.85 2144.63 2675.63C2152.1 2712.58 2176.25 2746.13 2209.13 2764.71C2241.71 2783.15 2280.31 2786.31 2315.65 2775.48C2313.98 2774.21 2312.31 2772.96 2310.69 2771.65C2272.96 2740.96 2245.83 2696.33 2239.83 2647.75C2233.17 2593.71 2253.77 2541.5 2274.79 2492.9C2296.33 2443.15 2320.92 2389.96 2315.33 2334.27C2312.81 2309.06 2302.96 2284.65 2285.31 2266.17C2271.31 2251.5 2253.5 2241.79 2234.65 2234.9C2231.23 2250.92 2227.4 2266.79 2222.98 2282.48C2242.85 2325.52 2230.1 2379.87 2215.73 2422.42Z" />
		<path id="Path 7" class="shp2" d="M1603.37 805.79C1618.57 809.69 1634.01 811.8 1649.72 811.52C1657.26 811.39 1664.81 810.79 1672.24 809.51C1674.84 809.06 1677.55 808.27 1680.28 807.6C1677.38 788.94 1674.49 770.28 1671.61 751.62C1670.17 751.68 1668.76 751.69 1667.45 751.75C1659.14 752.08 1650.8 751.56 1642.55 750.51C1626.79 748.5 1611.66 744.36 1597.04 738.11C1582.15 731.75 1568.52 723.13 1556.14 712.68C1553.11 710.13 1549.03 706.63 1545.02 702.61C1541.55 725.18 1538.12 747.75 1534.6 770.31C1543.59 776.07 1551.93 783.33 1561.16 788.57C1574.51 796.14 1588.5 801.97 1603.37 805.79Z" />
		<path id="Path 8" class="shp5" d="M2334.48 2316.56C2347.25 2373.42 2326.6 2431.33 2304.58 2483.08C2284.6 2529.98 2260.48 2579.44 2262.58 2631.73C2264.42 2677.27 2287.31 2719.63 2321.58 2749.15C2395.15 2812.5 2508.35 2807.33 2587.9 2758.19C2627.15 2733.94 2660.15 2699.35 2679.48 2657.21C2699.02 2614.58 2704.12 2565.27 2693.37 2519.58C2672.4 2430.6 2585.56 2367.44 2494.25 2379.54C2493.31 2385.08 2492.15 2390.58 2490.71 2396C2482.33 2427.67 2465.52 2455.54 2450.75 2484.46C2436.08 2513.21 2422.42 2546.04 2429.06 2578.94C2434.71 2606.94 2456.1 2631 2483.21 2639.94C2510.19 2648.85 2542.25 2643.46 2563.02 2623.46C2583.88 2603.35 2586.62 2572.33 2567.02 2550.5C2557.4 2539.79 2574.96 2523.56 2585.19 2533.31C2611.44 2558.29 2612.46 2598.6 2592.98 2627.98C2573.23 2657.75 2536.73 2672.08 2501.9 2669.96C2470.85 2668.06 2441.77 2651.96 2423.25 2627.08C2403.33 2600.35 2397.87 2566.69 2404.69 2534.4C2412 2499.83 2430.5 2469.81 2446.63 2438.88C2461.35 2410.62 2472.29 2381.31 2472.67 2349.08C2473.37 2289.96 2445.85 2231.96 2396.56 2198.46C2351.58 2167.9 2297.19 2162.21 2245.52 2173.56C2243.27 2188.88 2240.73 2204.12 2237.81 2219.29C2286.25 2226.58 2324.04 2270.08 2334.48 2316.56Z" />
		<path id="Path 9" class="shp6" d="M1661.22 1894.35C1665.27 1887.45 1657.32 1881.22 1651.56 1879.26C1645.44 1877.17 1638.7 1877.4 1632.27 1877.66C1630.95 1882.71 1629.08 1887.55 1626.72 1892.11C1636.72 1897.81 1654.15 1906.41 1661.22 1894.35Z" />
		<path id="Path 10" class="shp7" d="M1133.64 2444.02C1120.81 2361.19 1114.12 2277.42 1113.7 2193.58C1113.49 2151.33 1114.77 2108.94 1118.19 2066.75C1084.06 2047.15 1054.63 2019.76 1033.12 1986.63C994.37 2015.04 948.19 2032.38 900.47 2037.04C902.25 2050.21 904.01 2063.37 905.88 2076.53C915.97 2147.52 923.5 2218.54 944.66 2287.4C962.29 2344.77 988.49 2400.52 1026.64 2447.23C1060.57 2488.77 1102.66 2520.71 1151.41 2541.52C1149.62 2532.65 1147.93 2523.75 1146.19 2514.98C1141.5 2491.42 1137.31 2467.77 1133.64 2444.02Z" />
		<path id="Path 11" class="shp6" d="M2163.08 1008.72C2162.25 1001.21 2161.44 992.71 2158.58 985.63C2155.27 977.44 2148.6 978.46 2141.4 981.62C2129.79 986.71 2119.25 993.69 2107.67 998.73C2128.54 1022.62 2145.4 1049.73 2157.67 1078.8C2163.56 1056 2165.71 1032.54 2163.08 1008.72Z" />
		<path id="Path 12" class="shp1" d="M2217.52 988.41C2212.85 964.08 2207.27 934.2 2190.81 914.66C2170.65 890.72 2140.48 908.81 2118.25 920.47C2105.29 927.26 2092.75 934.82 2080.6 942.94C2074.18 947.24 2068.01 952.01 2061.62 956.41C2071.86 963.9 2081.63 972.08 2090.81 980.98C2093.02 983.12 2095.19 985.31 2097.33 987.51C2104.52 981.64 2112.4 976.71 2120.31 971.83C2128.27 966.92 2136.37 961.53 2145.69 959.63C2164.5 955.8 2176.29 969.65 2180.65 986.31C2191.17 1026.53 2188.17 1071.44 2172.27 1109.84C2171.65 1111.35 2170.83 1112.63 2169.92 1113.71C2174.02 1128.2 2177.02 1143.02 2178.87 1158.05C2187.04 1160.19 2195.13 1162.7 2203.08 1165.55C2213.27 1136.89 2220.04 1107.02 2222.31 1076.65C2224.52 1047.21 2223.08 1017.42 2217.52 988.41Z" />
		<path id="Path 13" class="shp7" d="M2114.71 2066.58C2091.31 2230.08 2048.66 2390.5 1989.34 2544.56C1999.51 2540.15 2009.48 2535.23 2019.2 2529.75C2071.24 2500.38 2112.69 2455.65 2143.44 2404.83C2186.04 2334.44 2207 2255.83 2219.17 2175.38C2217.96 2173 2218.15 2169.88 2220.31 2167.6C2227.1 2120.56 2231.06 2072.97 2234.73 2026.06C2196.44 2023.82 2158.54 2013.22 2124.35 1994.62C2121.67 2018.81 2118.1 2042.89 2114.71 2066.58Z" />
		<path id="Path 14" class="shp1" d="M2073.21 2185.29C2082.99 2138.48 2091.37 2091.35 2098.31 2044.05C2101.25 2024.02 2103.58 2003.82 2106.02 1983.63C2104.83 1982.84 2103.62 1982.09 2102.46 1981.29C2087.5 2003.51 2069.15 2023.31 2048 2039.83C2003.28 2074.75 1947.95 2094.83 1891.01 2094.48C1850.37 2094.21 1810.62 2084.15 1774.86 2065.82C1775.2 2085.6 1775.25 2105.4 1775.18 2125.21C1774.88 2215.69 1771.11 2306.1 1764.68 2396.38C1760.1 2460.56 1754.5 2524.9 1746.9 2588.94C1773.8 2587.15 1800.65 2584.92 1827.43 2582.15C1872.93 2577.44 1919.13 2569.96 1962.58 2554.96C1975.15 2523.08 1987.02 2490.94 1998.12 2458.52C2028.73 2369.1 2053.9 2277.79 2073.21 2185.29ZM1406.5 2241.1C1405.17 2171.02 1405.23 2100.71 1408.46 2030.62C1387.11 2051.03 1362.11 2067.42 1334.88 2079C1279.2 2102.69 1215.78 2106.08 1158.59 2085.5C1151.31 2082.88 1144.18 2079.89 1137.19 2076.63C1137.02 2079.6 1136.85 2082.58 1136.7 2085.56C1132.52 2168.29 1133.96 2251.4 1141.53 2333.9C1145.33 2375.4 1150.69 2416.75 1157.6 2457.85C1160.98 2477.98 1164.73 2498.06 1168.85 2518.06C1171.12 2529.06 1173.79 2540.02 1176.33 2551C1241.33 2572.79 1310.6 2579.15 1378.53 2584.79C1394.91 2586.15 1411.32 2587.33 1427.75 2588.4C1425.82 2569.1 1424.01 2549.81 1422.28 2530.52C1413.62 2434.25 1408.33 2337.73 1406.5 2241.1Z" />
		<path id="Path 15" class="shp7" d="M1751.69 2244.15C1753.49 2198.94 1754.92 2153.71 1755.64 2108.46C1755.92 2090.77 1756.15 2073.08 1756.39 2055.39C1750.23 2051.58 1744.21 2047.53 1738.37 2043.2C1719.53 2058.87 1698.4 2071.17 1675.49 2080.22C1594.26 2112.33 1494.8 2098.71 1426.8 2043.66C1426.49 2067.35 1426.24 2091.04 1426.2 2114.73C1426.06 2210.15 1428.61 2305.54 1434.24 2400.79C1437.97 2464 1443.85 2526.9 1450.34 2589.75C1541.53 2594.9 1633.25 2595.35 1724.49 2590.27C1727.47 2565.19 1730.35 2540.08 1732.84 2514.92C1741.76 2424.87 1748.11 2334.56 1751.69 2244.15Z" />
		<path id="Path 16" class="shp4" d="M1641.45 613.79C1644.38 613.93 1647.42 613.88 1650.5 613.85C1646.76 589.12 1644.75 563.61 1638.92 539.27C1634.8 522.07 1622.84 497.97 1601.21 501.49C1579.07 505.09 1571.54 531.04 1568.16 549.69C1566.51 558.82 1564.99 567.98 1563.51 577.14C1576.84 589.37 1590.74 600.43 1608.21 606.87C1618.9 610.82 1630.07 613.22 1641.45 613.79Z" />
		<path id="Path 17" class="shp5" d="M1616.2 953.76C1499.41 1031.25 1357.44 1081.01 1216.6 1084.71C1221.57 1105.12 1232.01 1125.79 1241.25 1141.11C1253.82 1161.97 1268.82 1180.76 1285.73 1197.4C1303.92 1198.8 1322.05 1201.45 1340.19 1203.18C1362.84 1205.34 1385.55 1206.96 1408.3 1207.41C1489.24 1209.01 1570.35 1197.74 1647.69 1173.79C1708.97 1154.81 1776.26 1128.66 1808.24 1069.64C1807.77 1045.07 1803 1020.57 1793.97 997.19C1776.54 952.02 1743.8 913.27 1703.84 886.25C1676.24 910.74 1646.95 933.36 1616.2 953.76Z" />
		<path id="Path 18" class="shp7" d="M1682.2 870.5C1676.83 868.33 1671.38 866.35 1665.81 864.6C1614.92 848.58 1559.6 848.71 1509.34 867.09C1459.28 885.39 1422.62 923.55 1381.78 956C1361.67 971.99 1340.61 986.45 1316.73 996.23C1294.16 1005.48 1269.66 1007.48 1246.83 1015.74C1223.42 1024.21 1214.54 1040.63 1213.74 1059.58C1251.55 1056.98 1289.13 1052.89 1326.32 1045.44C1457.59 1019.16 1581.46 958.68 1682.2 870.5Z" />
		<path id="Path 19" class="shp6" d="M1050.9 1046.17C1039.85 1035.72 1024.72 1023.09 1009.77 1018.81C993.4 1014.13 990.69 1049.92 989.28 1059.89C987.34 1073.61 988.06 1088 986.79 1101.9C1015.07 1089.76 1044.77 1081.04 1075.08 1075.91C1068.02 1065.21 1060.44 1055.19 1050.9 1046.17Z" />
		<path id="Path 20" class="shp1" d="M1045.13 937.66C1018.91 923.9 980.08 909.03 957.16 936.22C946.86 948.43 941.84 964.56 937.4 979.61C932.16 997.38 928.2 1015.67 925.79 1034.05C921.36 1067.68 923.06 1101.27 925.95 1134.87C940.64 1125.06 955.99 1116.31 971.87 1108.68C965.55 1089.05 968.46 1064.72 971.54 1045.43C974.49 1026.92 979.45 1000.25 1002.02 997.05C1022.26 994.19 1045.29 1012.5 1060.01 1024.56C1075.83 1037.51 1090.75 1054.13 1100.11 1072.51C1121.54 1070.31 1143.16 1069.89 1164.69 1071.31C1153.96 1043.22 1138.1 1017.28 1118.1 994.74C1097.39 971.41 1072.75 952.16 1045.13 937.66Z" />
		<path id="Path 21" class="shp5" d="M1676.59 830.6C1667.69 831.96 1658.73 832.83 1649.72 832.89C1632.82 832.99 1615.49 830.81 1599.26 826.04C1582.68 821.17 1566.3 814.03 1551.84 804.52C1545.25 800.19 1537.9 795.16 1531.59 789.28C1530.13 798.31 1528.64 807.33 1527.07 816.33C1525.71 824.06 1524.55 831.56 1522.2 838.76C1529.7 836.86 1537.29 835.31 1544.93 834.14C1593.78 826.66 1643.32 833.12 1687.51 854.12C1686.24 845.9 1684.96 837.69 1683.68 829.47C1681.4 829.9 1679.03 830.22 1676.59 830.6Z" />
		<path id="Path 22" class="shp2" d="M1755.07 1155.99C1721.69 1175.37 1684.56 1188.51 1647.68 1199.47C1607.31 1211.47 1566.02 1219.86 1524.21 1224.89C1481.81 1230 1439.01 1231.47 1396.35 1229.25C1368.42 1227.79 1339.09 1225.63 1311.02 1219.62C1368.19 1264.51 1441.02 1288.94 1514.54 1290.88C1620.88 1293.7 1752.83 1257.89 1794.51 1148.55C1798.23 1138.78 1801.19 1128.81 1803.4 1118.74C1789.36 1133.4 1772.74 1145.74 1755.07 1155.99Z" />
		<path id="Path 23" class="shp1" d="M1414.98 861.06C1387.86 866.55 1361.67 876.65 1338.25 891.44C1301.96 914.37 1272.96 948.21 1255.31 987.25C1281.22 980.59 1306.2 976.17 1329.85 962.59C1353.74 948.86 1374.64 930.81 1395.58 913.06C1416.8 895.07 1438.29 876.89 1462.44 862.91C1465.6 861.09 1468.8 859.34 1472.05 857.67C1453.03 857.04 1434.25 857.16 1414.98 861.06Z" />
		<path id="Path 24" class="shp6" d="M723.02 720.9C736.55 729.89 751.32 737.25 766.06 744.02C794.09 756.88 823.54 766.3 853.68 772.65C863.56 751.01 871.21 728.51 876.67 705.33C881.76 683.73 888.01 658.45 883.2 636.25C878.92 616.53 858.96 604.6 839.86 613.67C824.61 620.93 821.42 638.79 825.77 653.7C829.33 659.05 832.06 664.75 833.66 670.7C836.41 680.97 823.41 688.59 815.85 681.07C805.2 670.47 797.9 657.56 785.22 648.87C773.2 640.63 759.6 636.02 744.94 636.47C718.06 637.28 692.35 659.43 697.27 688.18C699.75 702.61 711.39 713.17 723.02 720.9ZM2222.71 782.35C2252.85 776 2282.29 766.58 2310.33 753.72C2325.06 746.95 2339.83 739.59 2353.37 730.6C2365 722.87 2376.65 712.32 2379.1 697.88C2384.04 669.13 2358.33 646.99 2331.44 646.17C2316.79 645.73 2303.19 650.33 2291.17 658.57C2278.48 667.26 2271.19 680.18 2260.54 690.77C2252.98 698.29 2239.98 690.67 2242.73 680.4C2244.33 674.45 2247.06 668.75 2250.6 663.4C2254.96 648.49 2251.77 630.63 2236.52 623.38C2217.44 614.3 2197.46 626.23 2193.19 645.95C2188.38 668.15 2194.63 693.43 2199.71 715.03C2205.19 738.21 2212.83 760.72 2222.71 782.35Z" />
		<path id="Path 25" class="shp8" d="M2653.71 2405.19C2627.08 2381.54 2594.17 2364.67 2559.31 2357.1C2564.02 2291.92 2544.21 2225.81 2503.87 2174.19C2462.08 2120.73 2400.1 2086.65 2332.88 2078.35C2314.6 2076.1 2296.08 2075.78 2277.75 2077.51C2271.19 2078.13 2263.65 2078.84 2256.08 2080.13C2255.54 2086.6 2254.94 2093.06 2254.31 2099.56C2259.92 2098.6 2265.5 2097.65 2270.94 2097.21C2286.1 2096.02 2301.19 2095.96 2316.33 2097.35C2346.96 2100.17 2376.88 2108.46 2404.42 2122.15C2460.04 2149.77 2501.88 2198.21 2522.46 2256.71C2533.35 2287.69 2537.92 2320.73 2535.46 2353.44C2532.04 2353.13 2528.62 2352.9 2525.21 2352.77C2515.67 2352.42 2506.23 2352.77 2496.79 2353.94C2497.23 2340.15 2496.25 2326.33 2493.88 2312.88C2483.88 2256.4 2451.52 2206.08 2402.15 2176.35C2357.98 2149.77 2298.5 2139.69 2248.08 2155.33C2247.27 2161.42 2246.42 2167.5 2245.52 2173.56C2297.19 2162.21 2351.58 2167.9 2396.56 2198.46C2445.85 2231.96 2473.37 2289.96 2472.67 2349.08C2472.29 2381.31 2461.35 2410.62 2446.63 2438.88C2430.5 2469.81 2412 2499.83 2404.69 2534.4C2397.87 2566.69 2403.33 2600.35 2423.25 2627.08C2441.77 2651.96 2470.85 2668.06 2501.9 2669.96C2536.73 2672.08 2573.23 2657.75 2592.98 2627.98C2612.46 2598.6 2611.44 2558.29 2585.19 2533.31C2574.96 2523.56 2557.4 2539.79 2567.02 2550.5C2586.62 2572.33 2583.88 2603.35 2563.02 2623.46C2542.25 2643.46 2510.19 2648.85 2483.21 2639.94C2456.1 2631 2434.71 2606.94 2429.06 2578.94C2422.42 2546.04 2436.08 2513.21 2450.75 2484.46C2465.52 2455.54 2482.33 2427.67 2490.71 2396C2492.15 2390.58 2493.31 2385.08 2494.25 2379.54C2585.56 2367.44 2672.4 2430.6 2693.37 2519.58C2704.12 2565.27 2699.02 2614.58 2679.48 2657.21C2660.15 2699.35 2627.15 2733.94 2587.9 2758.19C2508.35 2807.33 2395.15 2812.5 2321.58 2749.15C2287.31 2719.63 2264.42 2677.27 2262.58 2631.73C2260.48 2579.44 2284.6 2529.98 2304.58 2483.08C2326.6 2431.33 2347.25 2373.42 2334.48 2316.56C2324.04 2270.08 2286.25 2226.58 2237.81 2219.29C2236.79 2224.5 2235.73 2229.71 2234.65 2234.9C2253.5 2241.79 2271.31 2251.5 2285.31 2266.17C2302.96 2284.65 2312.81 2309.06 2315.33 2334.27C2320.92 2389.96 2296.33 2443.15 2274.79 2492.9C2253.77 2541.5 2233.17 2593.71 2239.83 2647.75C2245.83 2696.33 2272.96 2740.96 2310.69 2771.65C2312.31 2772.96 2313.98 2774.21 2315.65 2775.48C2280.31 2786.31 2241.71 2783.15 2209.13 2764.71C2176.25 2746.13 2152.1 2712.58 2144.63 2675.63C2126.46 2585.85 2188.33 2503.4 2215.73 2422.42C2230.1 2379.87 2242.85 2325.52 2222.98 2282.48C2219.75 2294.02 2216.21 2305.44 2212.35 2316.75C2212.9 2327.94 2212.69 2339.15 2211.08 2350.69C2207.81 2374.31 2201.21 2397.17 2192.69 2419.4C2175.56 2464.08 2151.96 2506.02 2135.94 2551.15C2120.42 2594.85 2111.04 2641.85 2122.52 2687.71C2132.69 2728.35 2159.42 2763.27 2195.23 2784.81C2237.29 2810.15 2291.17 2813.08 2336.19 2794C2337.73 2793.35 2339 2792.5 2340.02 2791.52C2418.19 2835.37 2519.63 2826.35 2596.29 2781.96C2683.56 2731.44 2737.1 2632.96 2721.4 2531.77C2713.83 2483.04 2690.71 2438.04 2653.71 2405.19ZM2219.17 2175.38C2219.56 2172.79 2219.94 2170.21 2220.31 2167.6C2218.15 2169.88 2217.96 2173 2219.17 2175.38ZM1668.83 1867.48C1658.93 1859.79 1646.64 1858.64 1634.54 1858.82C1634.71 1860.78 1634.87 1862.74 1635.04 1864.71C1635.23 1866.95 1634.73 1868.76 1633.8 1870.17C1633.43 1872.71 1632.91 1875.21 1632.27 1877.66C1638.7 1877.4 1645.44 1877.17 1651.56 1879.26C1657.32 1881.22 1665.27 1887.45 1661.22 1894.35C1654.15 1906.41 1636.72 1897.81 1626.72 1892.11C1623.79 1897.75 1620.12 1902.95 1615.83 1907.56C1627.18 1914.09 1639.63 1920.22 1653.05 1918.61C1664.25 1917.26 1675.5 1910.46 1679.53 1899.51C1683.95 1887.53 1678.55 1875.03 1668.83 1867.48Z" />
		<path id="Path 26" class="shp6" d="M1181.23 1794.26C1180.77 1794.25 1180.31 1794.23 1179.85 1794.23C1136.15 1794.23 1100.73 1829.65 1100.73 1873.35C1100.73 1917.05 1136.15 1952.48 1179.85 1952.48C1223.55 1952.48 1258.98 1917.05 1258.98 1873.35C1258.98 1868.22 1258.47 1863.2 1257.54 1858.34C1254.8 1858.72 1252.03 1858.94 1249.21 1858.94C1215.63 1858.94 1187.62 1831.16 1181.23 1794.26ZM1903.97 1873.35C1893.03 1873.35 1882.69 1870.4 1873.49 1865.15C1872.5 1870.14 1871.98 1875.29 1871.98 1880.56C1871.98 1924.26 1907.4 1959.69 1951.1 1959.69C1994.8 1959.69 2030.23 1924.26 2030.23 1880.56C2030.23 1844.31 2005.84 1813.77 1972.58 1804.41C1967.68 1843.41 1938.83 1873.35 1903.97 1873.35ZM2180.65 986.31C2176.29 969.65 2164.5 955.8 2145.69 959.63C2136.37 961.53 2128.27 966.92 2120.31 971.83C2112.4 976.71 2104.52 981.64 2097.33 987.51C2100.87 991.17 2104.33 994.91 2107.67 998.73C2119.25 993.69 2129.79 986.71 2141.4 981.62C2148.6 978.46 2155.27 977.44 2158.58 985.63C2161.44 992.71 2162.25 1001.21 2163.08 1008.72C2165.71 1032.54 2163.56 1056 2157.67 1078.8C2162.48 1090.16 2166.56 1101.82 2169.92 1113.71C2170.83 1112.63 2171.65 1111.35 2172.27 1109.84C2188.17 1071.44 2191.17 1026.53 2180.65 986.31Z" />
		<path id="Path 27" class="shp8" d="M2080.6 942.94C2092.75 934.82 2105.29 927.26 2118.25 920.47C2140.48 908.81 2170.65 890.72 2190.81 914.66C2207.27 934.2 2212.85 964.08 2217.52 988.41C2223.08 1017.42 2224.52 1047.21 2222.31 1076.65C2220.04 1107.02 2213.27 1136.89 2203.08 1165.55C2210.96 1168.38 2218.71 1171.55 2226.33 1175.05C2249.19 1113.19 2253.54 1044.95 2240.29 980.41C2234.54 952.4 2226.38 920.54 2206.77 898.72C2197.65 888.57 2185.37 881.74 2171.69 880.67C2155.25 879.4 2139.65 886.91 2125.27 893.94C2108.75 902.01 2092.69 911.24 2077.64 921.81C2067.14 929.19 2055.9 936.88 2046.9 946.35C2051.91 949.54 2056.81 952.9 2061.62 956.41C2068.01 952.01 2074.18 947.24 2080.6 942.94Z" />
		<path id="Path 28" class="shp6" d="M1060.01 1024.56C1045.29 1012.5 1022.26 994.19 1002.02 997.05C979.45 1000.25 974.49 1026.92 971.54 1045.43C968.46 1064.72 965.55 1089.05 971.87 1108.68C976.79 1106.31 981.77 1104.05 986.79 1101.9C988.06 1088 987.34 1073.61 989.28 1059.89C990.69 1049.92 993.4 1014.13 1009.77 1018.81C1024.72 1023.09 1039.85 1035.72 1050.9 1046.17C1060.44 1055.19 1068.02 1065.21 1075.08 1075.91C1083.38 1074.5 1091.73 1073.38 1100.11 1072.51C1090.75 1054.13 1075.83 1037.51 1060.01 1024.56Z" />
		<path id="Path 29" class="shp8" d="M925.95 1134.87C923.06 1101.27 921.36 1067.68 925.79 1034.05C928.2 1015.67 932.16 997.38 937.4 979.61C941.84 964.56 946.86 948.43 957.16 936.22C980.08 909.03 1018.91 923.9 1045.13 937.66C1072.75 952.16 1097.39 971.41 1118.1 994.74C1138.1 1017.28 1153.96 1043.22 1164.69 1071.31C1172.79 1071.85 1180.88 1072.64 1188.94 1073.71C1188.48 1069.73 1188.24 1065.75 1188.25 1061.79C1164.61 1001.08 1119.21 948.78 1060.89 919.11C1029.71 903.26 987.73 888.11 955.51 909.82C925.24 930.21 915.89 974.11 909.91 1007.61C901.97 1052.09 900.56 1100.13 913.04 1143.89C916.19 1141.59 919.36 1139.32 922.58 1137.11C923.69 1136.35 924.83 1135.62 925.95 1134.87Z" />
		<path id="Path 30" class="shp7" d="M1157.6 2457.85C1150.69 2416.75 1145.33 2375.4 1141.53 2333.9C1133.96 2251.4 1132.52 2168.29 1136.7 2085.56C1136.85 2082.58 1137.02 2079.6 1137.19 2076.63C1130.71 2073.6 1124.38 2070.3 1118.19 2066.75C1114.77 2108.94 1113.49 2151.33 1113.7 2193.58C1114.12 2277.42 1120.81 2361.19 1133.64 2444.02C1137.31 2467.77 1141.5 2491.42 1146.19 2514.98C1147.93 2523.75 1149.62 2532.65 1151.41 2541.52C1159.38 2544.92 1167.5 2548.04 1175.82 2550.85L1176.33 2551C1173.79 2540.02 1171.12 2529.06 1168.85 2518.06C1164.73 2498.06 1160.98 2477.98 1157.6 2457.85ZM1426.2 2114.73C1426.24 2091.04 1426.49 2067.35 1426.8 2043.66C1421.07 2039.02 1415.53 2034.12 1410.28 2028.89C1409.68 2029.47 1409.07 2030.04 1408.46 2030.62C1405.23 2100.71 1405.17 2171.02 1406.5 2241.1C1408.33 2337.73 1413.62 2434.25 1422.28 2530.52C1424.01 2549.81 1425.82 2569.1 1427.75 2588.4C1435.28 2588.9 1442.8 2589.33 1450.34 2589.75C1443.85 2526.9 1437.97 2464 1434.24 2400.79C1428.61 2305.54 1426.06 2210.15 1426.2 2114.73ZM1775.18 2125.21C1775.25 2105.4 1775.2 2085.6 1774.86 2065.82C1768.58 2062.59 1762.41 2059.12 1756.39 2055.39C1756.15 2073.08 1755.92 2090.77 1755.64 2108.46C1754.92 2153.71 1753.49 2198.94 1751.69 2244.15C1748.11 2334.56 1741.76 2424.87 1732.84 2514.92C1730.35 2540.08 1727.47 2565.19 1724.49 2590.27C1731.96 2589.85 1739.44 2589.42 1746.9 2588.94C1754.5 2524.9 1760.1 2460.56 1764.68 2396.38C1771.11 2306.1 1774.88 2215.69 1775.18 2125.21ZM2124.35 1994.62C2118.13 1991.23 2112 1987.56 2106.02 1983.63C2103.58 2003.82 2101.25 2024.02 2098.31 2044.05C2091.37 2091.35 2082.99 2138.48 2073.21 2185.29C2053.9 2277.79 2028.73 2369.1 1998.12 2458.52C1987.02 2490.94 1975.15 2523.08 1962.58 2554.96C1971.63 2551.83 1980.56 2548.37 1989.34 2544.56C2048.66 2390.5 2091.31 2230.08 2114.71 2066.58C2118.1 2042.89 2121.67 2018.81 2124.35 1994.62Z" />
		<path id="Path 31" class="shp8" d="M2234.65 2234.9C2235.73 2229.71 2236.79 2224.5 2237.81 2219.29C2240.73 2204.12 2243.27 2188.88 2245.52 2173.56C2246.42 2167.5 2247.27 2161.42 2248.08 2155.33C2250.52 2136.75 2252.56 2118.13 2254.31 2099.56C2254.94 2093.06 2255.54 2086.6 2256.08 2080.13C2256.48 2075.65 2256.85 2071.19 2257.21 2066.73C2258.29 2053.25 2259.27 2039.76 2260.23 2026.27C2251.73 2026.6 2243.23 2026.55 2234.73 2026.06C2231.06 2072.97 2227.1 2120.56 2220.31 2167.6C2219.94 2170.21 2219.56 2172.79 2219.17 2175.38C2207 2255.83 2186.04 2334.44 2143.44 2404.83C2112.69 2455.65 2071.24 2500.38 2019.2 2529.75C2009.48 2535.23 1999.51 2540.15 1989.34 2544.56C1980.56 2548.37 1971.63 2551.83 1962.58 2554.96C1919.13 2569.96 1872.93 2577.44 1827.43 2582.15C1800.65 2584.92 1773.8 2587.15 1746.9 2588.94C1739.44 2589.42 1731.96 2589.85 1724.49 2590.27C1633.25 2595.35 1541.53 2594.9 1450.34 2589.75C1442.8 2589.33 1435.28 2588.9 1427.75 2588.4C1411.32 2587.33 1394.91 2586.15 1378.53 2584.79C1310.6 2579.15 1241.33 2572.79 1176.33 2551L1175.82 2550.85C1167.5 2548.04 1159.38 2544.92 1151.41 2541.52C1102.66 2520.71 1060.57 2488.77 1026.64 2447.23C988.49 2400.52 962.29 2344.77 944.66 2287.4C923.5 2218.54 915.97 2147.52 905.88 2076.53C904.01 2063.37 902.25 2050.21 900.47 2037.04C894.83 2037.59 889.16 2037.96 883.47 2038.15C889.2 2172.54 906.53 2313.65 981.89 2428.46C1016.19 2480.73 1061.86 2525.73 1118 2554.06C1179.91 2585.27 1249.01 2596.79 1317.28 2604.27C1472.67 2621.31 1629.88 2623.4 1785.72 2611.31C1854.52 2605.98 1924.8 2598.15 1989.29 2572.1C2049.45 2547.81 2099.81 2507.98 2139.21 2456.6C2172 2413.81 2195.35 2366.5 2212.35 2316.75C2216.21 2305.44 2219.75 2294.02 2222.98 2282.48C2227.4 2266.79 2231.23 2250.92 2234.65 2234.9ZM1033.12 1986.63C1054.63 2019.76 1084.06 2047.15 1118.19 2066.75C1124.38 2070.3 1130.71 2073.6 1137.19 2076.63C1144.18 2079.89 1151.31 2082.88 1158.59 2085.5C1215.78 2106.08 1279.2 2102.69 1334.88 2079C1362.11 2067.42 1387.11 2051.03 1408.46 2030.62C1409.07 2030.04 1409.68 2029.47 1410.28 2028.89C1415.53 2034.12 1421.07 2039.02 1426.8 2043.66C1494.8 2098.71 1594.26 2112.33 1675.49 2080.22C1698.4 2071.17 1719.53 2058.87 1738.37 2043.2C1744.21 2047.53 1750.23 2051.58 1756.39 2055.39C1762.41 2059.12 1768.58 2062.59 1774.86 2065.82C1810.62 2084.15 1850.37 2094.21 1891.01 2094.48C1947.94 2094.83 2003.28 2074.75 2048 2039.83C2069.15 2023.31 2087.5 2003.51 2102.46 1981.29C2103.62 1982.09 2104.83 1982.84 2106.02 1983.63C2112 1987.56 2118.13 1991.23 2124.35 1994.62C2158.54 2013.22 2196.44 2023.82 2234.73 2026.06C2243.23 2026.55 2251.73 2026.6 2260.23 2026.27C2311.56 2024.29 2362.27 2007.28 2404.25 1974.44C2492.62 1905.32 2527.81 1782.61 2484.71 1678.42C2462.48 1624.73 2423.17 1578.49 2372.44 1550C2398.17 1487.87 2402.35 1417.75 2382.79 1353.12C2363.73 1290.2 2322.5 1236.08 2268.48 1198.97C2255.17 1189.82 2241.02 1181.82 2226.33 1175.05C2218.71 1171.55 2210.96 1168.38 2203.08 1165.55C2195.13 1162.7 2187.04 1160.19 2178.87 1158.05C2177.02 1143.02 2174.02 1128.2 2169.92 1113.71C2166.56 1101.82 2162.48 1090.16 2157.67 1078.8C2145.4 1049.73 2128.54 1022.62 2107.67 998.73C2104.33 994.91 2100.87 991.17 2097.33 987.51C2095.19 985.31 2093.02 983.12 2090.81 980.98C2081.62 972.08 2071.86 963.9 2061.62 956.41C2056.81 952.9 2051.91 949.54 2046.9 946.35C2001.27 917.26 1947.65 901.52 1893.04 901.16C1854.44 900.91 1816.85 908.26 1781.63 923.44C1785.12 927.93 1788.46 932.53 1791.66 937.23C1852.69 916.62 1919.7 916.04 1980.64 937.88C2042.55 960.08 2093.67 1006.4 2124.67 1064.09C2141.83 1096.07 2152.71 1131.54 2155.79 1167.74C2156.23 1172.91 2159.21 1178.09 2164.65 1179.37C2221.29 1192.72 2272.23 1224.5 2309.56 1269.12C2350 1317.47 2370.23 1379.77 2369.04 1442.54C2368.33 1479.32 2360.06 1515.96 2344.42 1549.28C2341.56 1555.33 2342.35 1563.75 2349.1 1567.13C2437.42 1611.33 2492.65 1713.7 2474.04 1811.91C2455.15 1911.57 2371.88 1992.04 2269.65 1999.98C2212.58 2004.41 2153.48 1988.75 2108.06 1953.33C2101.5 1948.2 2092.21 1948.03 2087.48 1955.98C2034.33 2045.34 1925.76 2088.12 1826.06 2058.56C1797.38 2050.05 1770.27 2036.01 1747.07 2017.08C1741.42 2012.47 1734.19 2011.88 1728.56 2017.08C1662.8 2077.85 1558.15 2086.96 1479.43 2046.9C1456.66 2035.31 1436.56 2019.9 1419.6 2000.78C1415.06 1995.66 1405.67 1995.8 1401.12 2000.78C1363.88 2041.47 1311.49 2067.79 1256.37 2072.35C1202.83 2076.77 1149.81 2060.64 1106.96 2028.39C1082.82 2010.23 1062.81 1987.08 1047.98 1960.81C1043.55 1952.96 1033.76 1952.93 1027.48 1958.17C944.08 2027.77 812.93 2031.24 728.59 1961.43C645.55 1892.68 614.9 1774.14 662.91 1676.18C689.01 1622.93 733.98 1578.57 789.51 1556.78C796.08 1554.2 800.64 1548.14 798.61 1540.75C774.04 1450.87 787.29 1352.45 833.21 1271.5C878.83 1191.07 956.3 1133.42 1045.2 1109.11C1093.9 1095.81 1145.28 1092.66 1195.11 1101.01C1192.22 1092.16 1190.01 1082.96 1188.94 1073.71C1180.88 1072.64 1172.79 1071.85 1164.69 1071.31C1143.16 1069.89 1121.54 1070.31 1100.11 1072.51C1091.73 1073.38 1083.38 1074.5 1075.08 1075.91C1044.77 1081.04 1015.07 1089.76 986.79 1101.9C981.77 1104.05 976.79 1106.31 971.87 1108.68C955.99 1116.31 940.64 1125.06 925.95 1134.87C924.82 1135.62 923.69 1136.35 922.58 1137.11C919.36 1139.32 916.19 1141.59 913.04 1143.89C835.81 1200.44 783.48 1285.97 766.62 1380.34C757.35 1432.21 758.38 1485.49 770.68 1536.69C665.98 1584.01 599.47 1698.54 616.3 1813.5C624.77 1871.32 653.77 1926.38 695.72 1966.94C739.35 2009.12 796.2 2033.67 856.65 2037.73C865.6 2038.33 874.55 2038.46 883.48 2038.15C889.16 2037.96 894.83 2037.59 900.47 2037.04C948.19 2032.38 994.37 2015.04 1033.12 1986.63ZM1255.31 987.25C1272.96 948.21 1301.96 914.37 1338.25 891.44C1361.67 876.65 1387.86 866.55 1414.98 861.06C1434.25 857.16 1453.03 857.04 1472.05 857.67C1482.13 852.47 1492.61 848.03 1503.36 844.35C1502.93 844.1 1502.48 843.87 1501.99 843.69C1473.7 833.15 1440.04 834.8 1410.7 839.51C1380.4 844.37 1351.09 855.47 1325.11 871.81C1278.31 901.25 1243.25 946.56 1225.18 998.64C1233.74 993.89 1243.22 990.4 1253.03 987.84C1253.79 987.64 1254.55 987.45 1255.31 987.25ZM1647.69 1173.79C1570.35 1197.74 1489.24 1209.01 1408.3 1207.41C1385.55 1206.96 1362.84 1205.34 1340.19 1203.18C1322.05 1201.45 1303.92 1198.8 1285.73 1197.4C1293.74 1205.3 1302.21 1212.69 1311.02 1219.62C1339.09 1225.63 1368.42 1227.79 1396.35 1229.25C1439.01 1231.47 1481.81 1230 1524.21 1224.89C1566.02 1219.86 1607.31 1211.47 1647.68 1199.47C1684.56 1188.51 1721.69 1175.37 1755.07 1155.99C1772.74 1145.74 1789.36 1133.4 1803.4 1118.74C1806.95 1102.56 1808.56 1086.08 1808.24 1069.64C1776.26 1128.66 1708.97 1154.81 1647.69 1173.79ZM1599.26 826.04C1615.49 830.81 1632.82 832.99 1649.72 832.89C1658.73 832.83 1667.69 831.96 1676.59 830.6C1679.03 830.22 1681.4 829.9 1683.68 829.47C1682.54 822.18 1681.41 814.89 1680.28 807.6C1677.55 808.27 1674.84 809.06 1672.24 809.51C1664.81 810.79 1657.26 811.39 1649.72 811.52C1634.01 811.8 1618.57 809.69 1603.37 805.79C1588.5 801.97 1574.51 796.14 1561.16 788.57C1551.93 783.33 1543.59 776.07 1534.6 770.31C1534.3 772.22 1534.01 774.13 1533.72 776.04C1533.02 780.46 1532.3 784.87 1531.59 789.28C1537.9 795.16 1545.25 800.19 1551.84 804.52C1566.3 814.03 1582.68 821.17 1599.26 826.04ZM1597.04 738.11C1611.66 744.36 1626.79 748.5 1642.55 750.51C1650.8 751.56 1659.14 752.08 1667.45 751.75C1668.76 751.69 1670.17 751.68 1671.61 751.62C1670.46 744.2 1669.32 736.78 1668.18 729.36C1667.94 729.38 1667.69 729.4 1667.45 729.41C1660.07 729.76 1652.66 729.63 1645.31 728.88C1631.62 727.5 1617.95 723.91 1605.22 718.72C1592.36 713.48 1579.94 706.43 1568.97 697.9C1563.12 693.34 1557.58 688.45 1552.23 683.31C1550.99 682.12 1549.76 680.81 1548.49 679.51C1547.45 686.59 1546.4 693.67 1545.31 700.74C1545.22 701.36 1545.12 701.99 1545.02 702.61C1549.03 706.63 1553.11 710.13 1556.14 712.68C1568.52 723.13 1582.15 731.75 1597.04 738.11ZM1599.36 623.7C1611.09 628.65 1623.36 631.87 1636.04 633.15C1641.25 633.67 1647.46 634.06 1653.49 633.46C1652.5 626.95 1651.5 620.44 1650.51 613.93L1650.5 613.85C1647.42 613.88 1644.38 613.93 1641.45 613.79C1630.07 613.22 1618.9 610.82 1608.21 606.87C1590.74 600.43 1576.84 589.37 1563.51 577.14C1562.43 583.84 1561.38 590.53 1560.36 597.24C1571.05 608.84 1585.07 617.68 1599.36 623.7ZM1527.07 816.33C1528.64 807.33 1530.13 798.31 1531.59 789.28C1532.3 784.87 1533.02 780.46 1533.72 776.04C1534.01 774.13 1534.3 772.22 1534.6 770.31C1538.12 747.75 1541.55 725.18 1545.02 702.61C1545.12 701.99 1545.22 701.36 1545.31 700.74C1546.4 693.67 1547.45 686.59 1548.49 679.51C1552.49 652.11 1556.21 624.63 1560.36 597.24C1561.38 590.53 1562.43 583.84 1563.51 577.14C1564.99 567.98 1566.51 558.82 1568.16 549.69C1571.54 531.04 1579.07 505.09 1601.21 501.49C1622.84 497.97 1634.8 522.07 1638.92 539.27C1644.75 563.61 1646.76 589.12 1650.5 613.85L1650.51 613.93C1651.5 620.44 1652.5 626.95 1653.49 633.46C1656.28 651.76 1659.07 670.05 1661.86 688.34C1663.95 702.02 1666.07 715.69 1668.18 729.36C1669.32 736.78 1670.46 744.2 1671.61 751.62C1674.49 770.28 1677.38 788.94 1680.28 807.6C1681.41 814.89 1682.54 822.18 1683.68 829.47C1684.96 837.69 1686.24 845.9 1687.51 854.12C1690.46 855.52 1693.39 856.99 1696.29 858.52C1700.27 856.38 1705.17 856.02 1709.2 858.53C1710.15 859.12 1711.07 859.76 1712.02 860.36C1712.15 859.23 1712.14 858.03 1711.94 856.77C1702.94 799.8 1694 742.83 1684.83 685.89C1680.45 658.66 1676.15 631.42 1671.69 604.21C1667.4 578.06 1665.38 549.43 1656.31 524.4C1649.18 504.73 1634.86 485.84 1613.2 481.61C1592.8 477.61 1573.74 489.29 1562.51 505.73C1548.05 526.9 1546.84 554.99 1543.35 579.58C1539.35 607.83 1535.35 636.09 1531.34 664.34C1526.99 695.06 1522.78 725.8 1518.52 756.54C1516.37 772.05 1514.36 787.58 1512.4 803.11C1510.76 816.07 1508.07 829.38 1509.59 842.32C1513.76 841.02 1517.97 839.83 1522.2 838.76C1524.55 831.56 1525.71 824.06 1527.07 816.33Z" />
		<path id="Path 32" fill-rule="evenodd" class="shp8" d="M1188.94 1073.71C1188.48 1069.73 1188.24 1065.75 1188.25 1061.79C1188.28 1052.35 1189.71 1043 1193.16 1034.07C1199.47 1017.74 1211.06 1006.47 1225.18 998.64C1233.74 993.89 1243.22 990.4 1253.03 987.84C1253.79 987.64 1254.55 987.45 1255.31 987.25C1281.22 980.59 1306.2 976.17 1329.85 962.59C1353.74 948.86 1374.64 930.81 1395.58 913.06C1416.8 895.07 1438.29 876.89 1462.44 862.91C1465.6 861.09 1468.8 859.34 1472.05 857.67C1482.13 852.47 1492.61 848.03 1503.36 844.35C1505.43 843.64 1507.51 842.97 1509.59 842.32C1513.76 841.02 1517.97 839.83 1522.2 838.76C1529.7 836.86 1537.29 835.31 1544.93 834.14C1593.78 826.66 1643.32 833.12 1687.51 854.12C1690.46 855.52 1693.39 856.99 1696.29 858.52C1700.27 856.38 1705.17 856.02 1709.2 858.53C1710.15 859.12 1711.07 859.76 1712.02 860.36C1722.97 867.37 1733.47 875.07 1743.4 883.48C1757.41 895.37 1770.26 908.81 1781.63 923.44C1785.12 927.93 1788.46 932.53 1791.66 937.23C1809.94 964.13 1823.29 994.38 1829.82 1026.1C1841.45 1082.53 1831.82 1143.31 1801.86 1192.71C1770.4 1244.57 1718.09 1277.25 1661.45 1295.87C1600.48 1315.92 1534.46 1322.04 1470.89 1313.33C1355.46 1297.53 1247.2 1226.04 1201.03 1116.81C1198.89 1111.73 1196.88 1106.44 1195.11 1101.01C1192.22 1092.16 1190.01 1082.96 1188.94 1073.71ZM1703.84 886.25C1676.24 910.74 1646.95 933.36 1616.2 953.76C1499.41 1031.25 1357.44 1081.01 1216.6 1084.71C1221.57 1105.12 1232.01 1125.79 1241.25 1141.11C1253.82 1161.97 1268.82 1180.76 1285.73 1197.4C1293.74 1205.3 1302.21 1212.69 1311.02 1219.62C1368.19 1264.51 1441.02 1288.94 1514.54 1290.88C1620.88 1293.7 1752.83 1257.89 1794.51 1148.55C1798.23 1138.78 1801.19 1128.81 1803.4 1118.74C1806.95 1102.56 1808.56 1086.08 1808.24 1069.64C1807.77 1045.07 1803 1020.57 1793.97 997.19C1776.54 952.02 1743.8 913.27 1703.84 886.25ZM1213.74 1059.58C1251.55 1056.98 1289.13 1052.89 1326.32 1045.44C1457.59 1019.16 1581.46 958.68 1682.2 870.5C1676.83 868.33 1671.38 866.35 1665.81 864.6C1614.92 848.58 1559.6 848.71 1509.34 867.09C1459.28 885.39 1422.62 923.55 1381.78 956C1361.67 971.99 1340.61 986.45 1316.73 996.23C1294.16 1005.48 1269.66 1007.48 1246.83 1015.74C1223.42 1024.21 1214.54 1040.63 1213.74 1059.58Z" />
		<path id="Path 33" fill-rule="evenodd" class="shp6" d="M678.29 709C666.2 684.18 672.57 654.08 691.23 634.27C711.23 613.04 743.95 607.19 771.31 615.08C783.06 618.48 795.74 624.93 806.69 633.51C807.74 622.17 812.66 611.1 821.01 603.31C839.93 585.64 872.26 586.61 890.41 604.92C912.89 627.6 908.32 662.8 903.7 691.34C898.01 726.57 886.6 760.52 871.2 792.66C868.75 797.77 862.4 799.18 857.39 798.28C819.82 791.49 783.29 779.82 748.8 763.43C722.93 751.15 691.5 736.11 678.29 709ZM697.27 688.18C699.75 702.61 711.39 713.17 723.02 720.9C736.55 729.89 751.32 737.25 766.06 744.02C794.09 756.88 823.54 766.3 853.68 772.65C863.56 751.01 871.21 728.51 876.67 705.33C881.76 683.73 888.01 658.45 883.2 636.25C878.92 616.53 858.96 604.6 839.86 613.67C824.61 620.93 821.42 638.79 825.77 653.7C829.33 659.05 832.06 664.75 833.66 670.7C836.41 680.97 823.41 688.59 815.85 681.07C805.2 670.47 797.9 657.56 785.22 648.87C773.2 640.63 759.6 636.02 744.94 636.47C718.06 637.28 692.35 659.43 697.27 688.18ZM2172.69 701.04C2168.06 672.5 2163.5 637.3 2185.98 614.63C2204.12 596.31 2236.46 595.34 2255.37 613.01C2263.73 620.8 2268.65 631.87 2269.71 643.21C2280.65 634.63 2293.31 628.18 2305.08 624.79C2332.44 616.89 2365.17 622.75 2385.15 643.97C2403.81 663.78 2410.19 693.88 2398.1 718.7C2384.9 745.81 2353.46 760.85 2327.58 773.13C2293.08 789.52 2256.56 801.19 2219 807.98C2213.98 808.89 2207.65 807.47 2205.19 802.36C2189.79 770.23 2178.37 736.27 2172.69 701.04ZM2199.71 715.03C2205.19 738.21 2212.83 760.72 2222.71 782.35C2252.85 776 2282.29 766.58 2310.33 753.72C2325.06 746.95 2339.83 739.59 2353.37 730.6C2365 722.87 2376.65 712.32 2379.1 697.88C2384.04 669.13 2358.33 646.99 2331.44 646.17C2316.79 645.73 2303.19 650.33 2291.17 658.57C2278.48 667.26 2271.19 680.18 2260.54 690.77C2252.98 698.29 2239.98 690.67 2242.73 680.4C2244.33 674.45 2247.06 668.75 2250.6 663.4C2254.96 648.49 2251.77 630.63 2236.52 623.38C2217.44 614.3 2197.46 626.23 2193.19 645.95C2188.38 668.15 2194.63 693.43 2199.71 715.03Z" />
		<path id="Path 34" class="shp8" d="M1286.96 1728.37C1282.39 1731.52 1276.91 1725.42 1279.56 1720.97C1281.73 1717.34 1284.42 1713.97 1287.19 1710.67C1279.62 1704.89 1271.01 1700.79 1261.76 1698.82C1261.3 1704.74 1260.55 1710.63 1260.18 1716.22C1259.62 1724.57 1247.76 1724.56 1247.21 1716.22C1246.81 1710.25 1245.99 1703.92 1245.53 1697.6C1234.39 1698.27 1223.95 1702.03 1214.81 1708.12C1219.29 1712.23 1223.66 1716.46 1227.93 1720.79C1233.2 1726.11 1226.28 1735.51 1219.82 1731.29C1213.8 1727.36 1207.86 1723.28 1202.1 1718.98C1188.42 1733.73 1179.85 1754.8 1179.85 1778.21C1179.85 1783.71 1180.33 1789.07 1181.23 1794.26C1187.62 1831.16 1215.63 1858.94 1249.21 1858.94C1252.03 1858.94 1254.8 1858.72 1257.54 1858.34C1291.91 1853.55 1318.57 1819.51 1318.57 1778.21C1318.57 1755.24 1310.31 1734.53 1297.09 1719.83C1293.87 1722.89 1290.57 1725.87 1286.96 1728.37ZM1873.49 1865.15C1882.69 1870.4 1893.03 1873.35 1903.97 1873.35C1938.83 1873.35 1967.68 1843.41 1972.58 1804.41C1973.06 1800.56 1973.32 1796.63 1973.32 1792.63C1973.32 1773.95 1967.86 1756.77 1958.71 1743.09C1953.65 1745.32 1948.54 1747.32 1943.56 1748.98C1938.36 1750.71 1933.86 1743.24 1938.1 1739.6C1941.48 1736.7 1945.1 1733.86 1948.86 1731.11C1942.49 1724.81 1935.14 1719.82 1927.09 1716.51C1925.63 1720.72 1923.98 1724.88 1921.81 1728.74C1919.03 1733.66 1910.9 1731.56 1911.06 1725.83C1911.19 1721.38 1911.91 1716.96 1912.84 1712.58C1909.93 1712.14 1906.98 1711.9 1903.97 1711.9C1897.93 1711.9 1892.07 1712.8 1886.48 1714.49C1887.3 1720.24 1887.64 1725.6 1888.02 1728.08C1889.17 1735.46 1879.23 1738.46 1876.71 1731.2C1875.46 1727.61 1874.17 1724.03 1872.93 1720.44C1850.21 1733.69 1834.61 1761.03 1834.61 1792.63C1834.61 1824.48 1850.47 1852.02 1873.49 1865.15ZM1632.27 1877.66C1632.91 1875.21 1633.43 1872.71 1633.8 1870.17C1634.73 1868.76 1635.23 1866.95 1635.04 1864.71C1634.87 1862.74 1634.71 1860.78 1634.54 1858.82C1634.53 1858.63 1634.51 1858.44 1634.49 1858.25C1633.49 1846.36 1615.31 1845.98 1615.67 1858.25C1616.51 1886.3 1595.11 1910.39 1566.47 1910.23C1537.79 1910.06 1516.82 1885.57 1517.99 1857.57C1518.49 1845.46 1499.67 1845.49 1499.17 1857.57C1497.58 1895.81 1527.92 1928.82 1566.47 1929.05C1586.01 1929.16 1603.48 1920.8 1615.83 1907.56C1620.12 1902.95 1623.79 1897.75 1626.72 1892.11C1629.08 1887.55 1630.95 1882.71 1632.27 1877.66ZM1565.76 1831.63C1574.1 1831.63 1580.86 1824.87 1580.86 1816.53C1580.86 1808.2 1574.1 1801.44 1565.76 1801.44C1557.42 1801.44 1550.66 1808.2 1550.66 1816.53C1550.66 1824.87 1557.42 1831.63 1565.76 1831.63ZM1260.18 1716.22C1260.55 1710.63 1261.3 1704.74 1261.76 1698.82C1262.34 1691.62 1262.49 1684.4 1261.04 1677.67C1259.47 1670.41 1247.92 1670.41 1246.35 1677.67C1244.98 1684.02 1245.04 1690.8 1245.53 1697.6C1245.99 1703.92 1246.81 1710.25 1247.21 1716.22C1247.76 1724.56 1259.62 1724.57 1260.18 1716.22ZM1286.96 1728.37C1290.57 1725.87 1293.87 1722.89 1297.09 1719.83C1299.26 1717.76 1301.4 1715.65 1303.57 1713.62C1308.39 1709.1 1316.37 1703.46 1317.54 1696.67C1318.4 1691.73 1314.64 1687.33 1309.44 1688.57C1302.59 1690.2 1297.64 1698.18 1293.35 1703.4C1291.36 1705.82 1289.25 1708.22 1287.19 1710.67C1284.42 1713.97 1281.73 1717.34 1279.56 1720.97C1276.91 1725.42 1282.39 1731.52 1286.96 1728.37ZM1227.93 1720.79C1223.66 1716.46 1219.29 1712.23 1214.81 1708.12C1212.8 1706.29 1210.79 1704.48 1208.73 1702.71C1202.38 1697.24 1196.9 1690.58 1188.31 1689.52C1183.54 1688.93 1179.67 1694.81 1181.07 1699.03C1183.72 1707.04 1192.27 1711.46 1198.72 1716.45C1199.84 1717.31 1200.97 1718.14 1202.1 1718.98C1207.86 1723.28 1213.8 1727.36 1219.82 1731.29C1226.28 1735.51 1233.2 1726.11 1227.93 1720.79ZM1888.02 1728.08C1887.64 1725.6 1887.3 1720.24 1886.48 1714.49C1884.96 1703.85 1881.75 1691.86 1873.4 1694.17C1867.41 1695.82 1867.82 1703.44 1869.04 1708.03C1870.16 1712.21 1871.51 1716.34 1872.93 1720.44C1874.17 1724.03 1875.46 1727.61 1876.71 1731.2C1879.23 1738.46 1889.17 1735.46 1888.02 1728.08ZM1921.81 1728.74C1923.98 1724.88 1925.63 1720.72 1927.09 1716.51C1927.93 1714.1 1928.7 1711.67 1929.47 1709.26C1931.58 1702.68 1934.39 1696.34 1932.99 1689.43C1931.99 1684.47 1924.96 1682.81 1921.64 1686.43C1916.93 1691.56 1916.1 1698.51 1914.53 1705.14C1913.95 1707.6 1913.36 1710.08 1912.84 1712.58C1911.91 1716.96 1911.19 1721.38 1911.06 1725.83C1910.9 1731.56 1919.03 1733.66 1921.81 1728.74ZM1943.56 1748.98C1948.54 1747.32 1953.65 1745.32 1958.71 1743.09C1966.37 1739.71 1973.91 1735.77 1980.66 1731.55C1990.06 1725.68 1981.81 1711.72 1972 1716.74C1964.2 1720.74 1956.26 1725.71 1948.86 1731.11C1945.1 1733.86 1941.48 1736.7 1938.1 1739.6C1933.86 1743.24 1938.36 1750.71 1943.56 1748.98ZM1892.58 1609.34C1904.89 1591.61 1930.71 1591.75 1942.91 1609.55C1945.7 1613.62 1948.46 1624.36 1955.15 1623.79C1961.27 1623.26 1961.52 1615.03 1960.17 1610.67C1949.2 1575.41 1901.62 1576.26 1883.51 1604.04C1879.79 1609.76 1888.77 1614.83 1892.58 1609.34ZM1183.89 1595.36C1190.93 1582.74 1203.62 1572.47 1218.46 1571.77C1225.85 1571.42 1233.14 1573.25 1239.45 1577.15C1245.38 1580.81 1248.72 1587.61 1256.33 1587.25C1259.23 1587.11 1261.9 1585.3 1262.68 1582.41C1265.46 1572.09 1253.9 1564.74 1245.85 1560.64C1236.71 1555.97 1226.17 1553.71 1215.93 1554.9C1195.85 1557.25 1179.07 1571.75 1174.76 1591.51C1173.6 1596.85 1181.02 1600.49 1183.89 1595.36Z" />
		<path id="Path 35" class="shp1" d="M2420.77 2284.6C2420.77 2295.94 2411.58 2305.12 2400.25 2305.12C2388.92 2305.12 2379.73 2295.94 2379.73 2284.6C2379.73 2273.27 2388.92 2264.06 2400.25 2264.06C2411.58 2264.06 2420.77 2273.27 2420.77 2284.6ZM2353.31 2684.35C2353.31 2689.69 2349 2694 2343.67 2694C2338.35 2694 2334.02 2689.69 2334.02 2684.35C2334.02 2679.04 2338.35 2674.73 2343.67 2674.73C2349 2674.73 2353.31 2679.04 2353.31 2684.35ZM2211.02 2662.63C2211.02 2669.31 2205.6 2674.73 2198.92 2674.73C2192.25 2674.73 2186.83 2669.31 2186.83 2662.63C2186.83 2655.96 2192.25 2650.54 2198.92 2650.54C2205.6 2650.54 2211.02 2655.96 2211.02 2662.63ZM1746.9 996.69C1746.9 1006.3 1739.11 1014.09 1729.5 1014.09C1719.89 1014.09 1712.1 1006.3 1712.1 996.69C1712.1 987.08 1719.89 979.29 1729.5 979.29C1739.11 979.29 1746.9 987.08 1746.9 996.69ZM1323.38 1162.5C1323.38 1169.43 1317.75 1175.05 1310.82 1175.05C1303.89 1175.05 1298.26 1169.43 1298.26 1162.5C1298.26 1155.56 1303.89 1149.95 1310.82 1149.95C1317.75 1149.95 1323.38 1155.56 1323.38 1162.5ZM1591.29 668.63C1591.29 671.52 1588.95 673.85 1586.07 673.85C1583.19 673.85 1580.86 671.52 1580.86 668.63C1580.86 665.75 1583.19 663.42 1586.07 663.42C1588.95 663.42 1591.29 665.75 1591.29 668.63Z" />
		<path id="Path 36" class="shp9" d="M2247.83 1445.34C2242.85 1445.34 2237.5 1441.55 2237.79 1436.05C2238.52 1421.81 2241.25 1407.84 2241.58 1393.56C2241.9 1380.23 2240.96 1366.86 2238.48 1353.76C2233.4 1326.96 2222.9 1301.55 2207.19 1279.24C2177.25 1236.74 2128.17 1207.97 2076.73 1201.39C2070.16 1200.55 2064.71 1195.41 2066.69 1188.21C2086.15 1117.27 2052.62 1037.15 1988.06 1001.57C1981.11 997.74 1985.38 988.35 1991.86 988.35C1992.95 988.35 1994.11 988.61 1995.28 989.21C2064.27 1024.56 2103.48 1106.59 2089.27 1182.41C2143.06 1191.88 2191.65 1221.58 2224.15 1265.96C2242.4 1290.89 2254.73 1320.56 2260.19 1350.94C2265.35 1379.67 2267.17 1413.49 2255.15 1440.75C2253.73 1443.96 2250.85 1445.34 2247.83 1445.34ZM785.38 1891.9C784.11 1891.9 782.77 1891.55 781.44 1890.74C744.01 1868.11 722.37 1823.62 717.34 1781.25C714.66 1758.75 717.01 1735.57 723.94 1714.01C730.62 1693.21 741.37 1669.94 758.14 1655.32C759.67 1653.99 761.41 1653.41 763.11 1653.41C768.22 1653.41 772.88 1658.61 769.62 1664.17C759.02 1682.25 747.97 1698.54 742.2 1719.04C736.8 1738.26 734.93 1758.6 737.39 1778.44C742.3 1818.22 764.2 1849.91 790.92 1878.45C795.87 1883.75 791.44 1891.9 785.38 1891.9Z" />
		<path id="Path 37" class="shp4" d="M719.17 1158.4C719.17 1171.4 708.64 1181.93 695.64 1181.93C682.65 1181.93 672.11 1171.4 672.11 1158.4C672.11 1145.41 682.65 1134.87 695.64 1134.87C708.64 1134.87 719.17 1145.41 719.17 1158.4Z" />
		<path id="Path 38" class="shp2" d="M2525.02 1485.39C2525.02 1498.48 2514.42 1509.09 2501.33 1509.09C2488.25 1509.09 2477.63 1498.48 2477.63 1485.39C2477.63 1472.3 2488.25 1461.69 2501.33 1461.69C2514.42 1461.69 2525.02 1472.3 2525.02 1485.39Z" />
		<path id="Path 39" class="shp3" d="M2002.47 539.14C2002.47 560.13 1985.45 577.14 1964.46 577.14C1943.48 577.14 1926.46 560.13 1926.46 539.14C1926.46 518.15 1943.48 501.14 1964.46 501.14C1985.45 501.14 2002.47 518.15 2002.47 539.14Z" />
		<path id="Path 40" class="shp2" d="M796.92 2205.15C796.92 2221.58 783.6 2234.9 767.16 2234.9C750.72 2234.9 737.4 2221.58 737.4 2205.15C737.4 2188.71 750.72 2175.38 767.16 2175.38C783.6 2175.38 796.92 2188.71 796.92 2205.15Z" />
	</g>
</svg>