<svg xmlns="http://www.w3.org/2000/svg" viewBox="0 0 3125 3125" width="800" height="800">
	<defs>
		<clipPath clipPathUnits="userSpaceOnUse" id="cp1">
			<path d="M0 0L3125 0L3125 3125L0 3125Z" />
		</clipPath>
	</defs>
	<style>
		tspan { white-space:pre }
		.shp0 { fill: #a1e3f9 } 
		.shp1 { fill: #bde7cf } 
		.shp2 { fill: #fdb9d8 } 
		.shp3 { fill: #e5f0c8 } 
		.shp4 { fill: #fcf4c1 } 
		.shp5 { fill: #e4c0de } 
		.shp6 { fill: #ffe1e0 } 
		.shp7 { fill: #ffccad } 
		.shp8 { fill: #ffe5e4 } 
		.shp9 { fill: #ffffff } 
		.shp10 { fill: #b6b4db } 
		.shp11 { fill: #c4a77e } 
		.shp12 { fill: #fee3e3 } 
		.shp13 { fill: #fed2d3 } 
		.shp14 { fill: #dacbb7 } 
		.shp15 { fill: #c4b6a1 } 
		.shp16 { fill: #ba9b6f } 
		.shp17 { fill: #5a5549 } 
		.shp18 { fill: #fec3c1 } 
		.shp19 { fill: #e6dccb } 
	</style>
	<g id="Page 1" clip-path="url(#cp1)">
		<path id="Path 2" class="shp0" d="M1091.06 367.42C1087.64 360.08 1084.19 352.75 1080.67 345.45C1070.69 324.73 1061.21 302.73 1048.58 283.46C1042.27 273.84 1026.07 255.36 1018.69 273.79C1015.45 281.9 1015.59 291.17 1015.46 299.73C1015.29 311.64 1015.35 323.56 1015.58 335.47C1015.7 341.59 1015.87 347.7 1016.08 353.82C1027.94 359.68 1039.17 365.62 1052.63 368.41C1066.29 371.23 1078.18 369.21 1091.06 367.42Z" />
		<path id="Path 3" class="shp1" d="M1117.26 478.17C1123.14 477.1 1129.71 474.36 1136.21 472.76C1128.4 452.83 1120.26 433.04 1111.75 413.41C1108.74 406.45 1105.67 399.52 1102.57 392.6C1077.99 402.93 1041.7 398.2 1017.44 382.06C1019 408.69 1021.47 435.29 1024.86 461.74C1042.75 470.54 1061.32 477.69 1081.48 479.38C1093.33 480.37 1105.55 480.3 1117.26 478.17Z" />
		<path id="Path 4" class="shp2" d="M1272.39 629.16C1276.99 620.17 1282.69 610.48 1289.46 601.47C1264.7 591.36 1240.55 583.02 1212.8 581.87C1206.29 581.6 1199.75 581.68 1193.22 582.08C1190.94 582.68 1188.54 582.88 1186.18 582.64C1164.15 584.82 1142.49 590.84 1122.77 600.89C1068.67 628.46 1036.65 684.54 983.95 714.11C935.17 741.49 864.1 747.25 830.76 693.3C816.35 669.98 813.57 639.73 825.76 614.93C837.49 591.06 863.36 575.77 889.55 574.42C915.44 573.08 939.35 588.04 950.1 611.44C960.45 633.97 959.75 663.16 941.1 681.21C928.42 693.48 905.88 677.26 916.14 661.95C926.12 647.04 926.39 626.09 911.25 613.98C895.18 601.13 870.18 609.65 858.91 624.78C846.84 640.97 850.7 664.64 862.29 679.97C875.67 697.66 898.45 703.11 919.6 700.91C942.64 698.52 962.58 688.9 980.74 676.05C980.82 675.5 980.93 674.95 981.11 674.37C992.45 638.21 982.78 597.25 949.42 575.89C915.53 554.19 868.07 562.78 838.21 587.71C777.61 638.3 785.89 731.7 827.99 790.69C869.37 848.66 942.68 880.96 1013.25 869.8C1049.89 864 1084.94 848.66 1114.47 826.24C1129.61 814.74 1143.55 801 1155.26 786.02C1166.91 771.14 1175.32 754.43 1184.5 738.01C1194.34 720.43 1206.19 704 1223.26 692.82C1232.51 686.77 1242.95 682.68 1253.76 680.26C1253.96 679.42 1254.16 678.58 1254.35 677.78C1258.34 660.95 1264.52 644.56 1272.39 629.16Z" />
		<path id="Path 5" class="shp3" d="M1166.19 554.68C1159.99 536.51 1153.52 518.43 1146.79 500.44C1138.44 504.26 1127.91 505.55 1120.21 506.68C1106.03 508.75 1092.23 508.93 1078.04 506.94C1061.14 504.57 1043.98 499.38 1028.95 490.78C1035.31 531.34 1044.87 571.2 1052.91 611.39C1068.12 597.76 1084.28 585 1102.3 575.41C1122.38 564.72 1143.85 558.04 1166.19 554.68Z" />
		<path id="Path 6" class="shp4" d="M1226.15 481.64C1239.35 463.14 1253.54 446.62 1270.26 431.8C1258.24 424.39 1246.61 416.38 1233.63 410.32C1216.87 402.48 1199.1 396.6 1181.11 392.3C1166.05 388.7 1150.75 386.47 1135.41 385.55C1138.17 391.63 1140.89 397.73 1143.58 403.85C1153.38 426.11 1162.7 448.57 1171.6 471.18C1181.12 472.05 1190.63 473.36 1200.09 475.2C1208.87 476.9 1217.56 479.1 1226.15 481.64Z" />
		<path id="Path 7" class="shp5" d="M1320.92 573.17C1310.74 564.45 1301.03 555.23 1289.9 547.5C1276.21 537.99 1261.66 529.72 1246.5 522.8C1226.74 513.79 1205.6 507.4 1184.07 503.72C1190.06 519.81 1195.8 536 1201.33 552.26C1237.74 552.75 1276.9 562.29 1304.96 584.35C1309.89 579.93 1315.22 576.11 1320.92 573.17Z" />
		<path id="Path 8" class="shp6" d="M1491.81 2143.94C1506.84 2147.1 1522.8 2145.96 1537.46 2141.6C1588.1 2126.58 1600.38 2077.63 1602.91 2028.63C1580.41 2033.01 1555.64 2032.79 1533.94 2031.37C1519.24 2030.41 1504.39 2028.36 1490.02 2025.08C1481.68 2023.17 1472.42 2020.92 1463.9 2017.53C1464.31 2023.17 1464.71 2028.81 1465.06 2034.46C1467 2065.54 1466.19 2098.4 1454.58 2127.67C1459.65 2130.75 1464.44 2134.4 1469.84 2136.98C1476.78 2140.29 1484.3 2142.37 1491.81 2143.94Z" />
		<path id="Path 9" class="shp0" d="M2582.83 2025.32C2623.9 1969.41 2664.98 1913.5 2706.04 1857.58C2700.44 1857.11 2695.44 1853.38 2692.65 1848.16C2692.5 1847.87 2692.35 1847.58 2692.21 1847.29C2649.75 1901.35 2607.29 1955.4 2564.81 2009.46C2570.96 2014.6 2576.94 2019.9 2582.83 2025.32Z" />
		<path id="Path 10" class="shp7" d="M1308.86 520.44C1339.76 499.42 1378.99 488.42 1415.47 483.16C1454.93 477.46 1494.62 478.31 1533.75 486.1C1670.94 513.41 1776.15 629.9 1795.45 767.71C1800.62 804.59 1799.29 840.87 1792.61 877.5C1785.14 918.45 1772.06 958.09 1763.48 998.79C1750.81 1058.84 1750.34 1131.92 1799.75 1175.86C1862.8 1141.8 1948.44 1167.23 1989.61 1226.99C2015.04 1263.91 2018.41 1310.56 2004.98 1351.94C2049.23 1339.9 2088.98 1315.11 2117.54 1278.39C2176.54 1202.59 2173.1 1089.19 2106.9 1019.07C2076.05 986.42 2034.89 966.21 1989.76 964.97C1950.99 963.9 1910.62 976.83 1879.65 1000.87C1882.05 1046.66 1896.21 1093 1932.67 1123.15C1965.22 1150.07 2022.55 1155.31 2050.82 1118.84C2063.85 1102.02 2068.19 1075.91 2051.14 1060.11C2036.32 1046.39 2015.74 1053.33 2006.02 1069.76C1998.88 1081.83 1976.66 1077.58 1978.04 1062.18C1979.32 1047.87 1984.22 1036.43 1995.87 1027.68C2018.36 1010.79 2048.97 1011.56 2071.07 1028.64C2094.46 1046.73 2103.46 1076.58 2097.37 1105.09C2085.29 1161.65 2024.5 1187.87 1971.7 1179.99C1916.07 1171.7 1875.91 1126.05 1856.8 1075.67C1833.6 1014.57 1843.14 946.91 1853.69 884.27C1864 823.04 1872.63 762.7 1862.56 700.76C1853.43 644.58 1833.3 590.43 1802.22 542.68C1742.59 451.1 1639.98 387.22 1530.63 377.86C1423.99 368.74 1318.95 412.04 1244.37 487.69C1257.34 492.48 1269.99 498.15 1282.15 504.65C1290.94 509.35 1300.02 514.62 1308.86 520.44Z" />
		<path id="Path 11" class="shp0" d="M1948.45 1703.8C1953.45 1708.25 1958.58 1713 1964.07 1716.85C1971.04 1721.74 1975.63 1721.83 1981.92 1715.97C2000.13 1699.01 2021.39 1664.67 2014.48 1638.57C2011.29 1626.49 1998.79 1618.66 1986.5 1623.03C1974.66 1627.25 1971.24 1641.03 1975.21 1651.82C1979.85 1664.45 1959.71 1669.84 1955.12 1657.36C1952.25 1649.56 1951.86 1641.96 1953.29 1634.98C1951.86 1621.98 1931.75 1623.37 1924.26 1631.34C1914.35 1641.88 1915.86 1658.52 1921.38 1670.79C1927.27 1683.91 1937.87 1694.38 1948.45 1703.8Z" />
		<path id="Path 12" class="shp6" d="M1327.32 2051.17C1296.02 2052.27 1265.7 2047.9 1236.39 2038.1C1236.7 2039.27 1237 2040.43 1237.32 2041.59C1253.8 2101.1 1302.28 2175.15 1374.72 2155.62C1428.37 2141.17 1431.8 2082.6 1428.09 2031.46C1414.21 2038.05 1397.32 2041.32 1382.93 2044.41C1364.68 2048.33 1345.97 2050.51 1327.32 2051.17Z" />
		<path id="Path 13" class="shp2" d="M1122.03 1356.76C1114.37 1353.26 1107.1 1356.99 1104.43 1364.68C1097.99 1383.25 1120.96 1395.04 1135.42 1399.02C1136.98 1391.71 1136.97 1383.86 1134.99 1375.79C1133.17 1368.41 1129.37 1360.12 1122.03 1356.76Z" />
		<path id="Path 14" fill-rule="evenodd" class="shp8" d="M2517.12 2019.27C2626.38 2099.69 2704.56 2233.17 2708.21 2369.88C2709.23 2408.25 2703.21 2447.83 2682.31 2480.75C2665.48 2507.27 2637.73 2527.44 2606.96 2534.06C2573.06 2541.37 2543.46 2525.73 2519.04 2503.33C2491.81 2478.33 2469.27 2448.67 2437.54 2428.85C2404.92 2408.46 2363.04 2398.96 2328.13 2419.69C2299.54 2436.65 2284.56 2468.48 2276.92 2499.62C2265.17 2547.37 2270.15 2648.29 2197.31 2644.5C2166.27 2642.87 2137.67 2620.44 2118.71 2597.37C2096.6 2570.48 2084.29 2535.56 2069.44 2504.46C2053.42 2470.92 2034.11 2438 2004.44 2414.71C1975.74 2392.19 1940.82 2379.27 1904.42 2376.96C1832.69 2372.4 1764.25 2416.5 1735.95 2482.08C1706.52 2550.31 1732.23 2622.02 1725.71 2692.79C1723.08 2721.35 1710.95 2750.54 1684.83 2764.88C1662.96 2776.88 1635.03 2777.17 1612.08 2767.9C1539.81 2738.71 1569.38 2638.21 1562.47 2579.12C1557.87 2539.75 1541.21 2501.73 1505.04 2481.83C1489.4 2473.23 1471.71 2469.25 1453.99 2471.88C1436.86 2474.42 1422.66 2483.44 1409.54 2494.27C1389.75 2510.6 1367.9 2539.71 1340.27 2520.65C1312.81 2501.71 1306.84 2465.04 1295.26 2436.21C1281.32 2401.46 1258.04 2371 1219.22 2363.65C1184.18 2357.04 1147.49 2367 1117.31 2385.12C1083.3 2405.52 1056.63 2435.75 1026.04 2460.56C1001.64 2480.33 973.92 2493.94 942.8 2498.87C885.76 2507.96 823.82 2487.92 779.99 2451.06C729.85 2408.9 705.48 2346.31 706.38 2281.44C707.31 2213.67 734.32 2146.19 780.39 2096.48C830.03 2042.92 895.9 2010.06 966.22 1993C989.55 1987.34 1013.17 1983.55 1036.99 1981.6C1020.85 2002.21 1007.1 2024.69 999.87 2049.37C975.75 2131.62 1053.43 2203.56 1133.59 2195.21C1174.18 2191 1218 2170.52 1246.17 2139.33C1273.88 2173.94 1312.21 2197.94 1360.17 2194.9C1390.06 2193.02 1417.88 2180.23 1436.81 2157.88C1447.16 2166.67 1462.27 2172.67 1473.35 2176.13C1489.51 2181.19 1507.28 2182.44 1524.05 2180.52C1560.59 2176.35 1593.24 2157.9 1613.21 2126.63C1618.17 2118.85 1622.18 2110.67 1625.4 2102.19C1640.07 2108.81 1658.67 2109.96 1675.32 2107.58C1675.42 2112.42 1675.82 2117.31 1676.58 2122.31C1683.46 2167.19 1723.11 2197.77 1766.21 2204.96C1815.91 2213.25 1862.82 2192.62 1902.03 2163.33C1942.26 2133.27 1979.33 2097.87 2012.91 2060.59C2019.6 2053.16 2026.16 2045.59 2032.57 2037.88C2035.68 2045.41 2039.43 2052.6 2043.07 2059.02C2053.43 2077.26 2067.21 2093.31 2083.67 2106.31C2118.9 2134.15 2163.92 2147.56 2208.67 2143.17C2211.98 2142.83 2215.1 2141.79 2217.75 2140.13C2225.17 2144.96 2233.02 2149.17 2241.15 2152.67C2285.96 2171.85 2338.13 2171.04 2383.92 2155.44C2447.75 2133.67 2500.9 2083.03 2517.12 2019.27ZM2378.98 2283.21L2338.4 2275.15C2331.52 2273.79 2324.77 2278.31 2323.4 2285.19C2322.04 2292.08 2326.56 2298.83 2333.44 2300.21L2374.02 2308.25C2380.9 2309.6 2387.65 2305.1 2389.02 2298.21C2390.4 2291.31 2385.87 2284.56 2378.98 2283.21ZM2192.25 2469.08C2192.25 2455.79 2181.48 2445.02 2168.19 2445.02C2154.92 2445.02 2144.15 2455.79 2144.15 2469.08C2144.15 2482.38 2154.92 2493.15 2168.19 2493.15C2181.48 2493.15 2192.25 2482.38 2192.25 2469.08ZM1945.81 2264.33C1944.98 2257.38 1938.6 2252.35 1931.62 2253.17L1890.55 2258.06C1883.58 2258.9 1878.55 2265.27 1879.38 2272.25C1880.21 2279.21 1886.59 2284.25 1893.56 2283.42L1934.64 2278.52C1941.61 2277.69 1946.64 2271.31 1945.81 2264.33ZM1686.4 2250.85C1686.4 2237.58 1675.63 2226.79 1662.35 2226.79C1649.06 2226.79 1638.29 2237.58 1638.29 2250.85C1638.29 2264.15 1649.06 2274.92 1662.35 2274.92C1675.63 2274.92 1686.4 2264.15 1686.4 2250.85ZM1456.98 2325.42L1417.15 2314.25C1410.39 2312.35 1403.31 2316.33 1401.41 2323.08C1399.51 2329.85 1403.49 2336.94 1410.25 2338.83L1450.08 2350C1456.84 2351.9 1463.93 2347.92 1465.82 2341.17C1467.72 2334.4 1463.74 2327.31 1456.98 2325.42ZM1002.94 2309.9C1002.94 2296.63 992.17 2285.85 978.89 2285.85C965.6 2285.85 954.83 2296.63 954.83 2309.9C954.83 2323.19 965.6 2333.96 978.89 2333.96C992.17 2333.96 1002.94 2323.19 1002.94 2309.9ZM918.19 2155.12C916.09 2148.42 908.89 2144.67 902.19 2146.77L862.72 2159.15C856.02 2161.25 852.26 2168.44 854.36 2175.15C856.46 2181.83 863.66 2185.6 870.36 2183.5L909.83 2171.13C916.53 2169.02 920.29 2161.81 918.19 2155.12ZM2498.19 2181.38C2498.19 2194.67 2508.96 2205.44 2522.25 2205.44C2535.54 2205.44 2546.31 2194.67 2546.31 2181.38C2546.31 2168.08 2535.54 2157.33 2522.25 2157.33C2508.96 2157.33 2498.19 2168.08 2498.19 2181.38Z" />
		<path id="Path 15" class="shp4" d="M801.13 811.51C799.75 817.54 798.55 823.61 797.94 829.82C796.49 844.81 796.65 860.29 799.13 875.17C803.78 903.17 815.15 929.94 833.16 951.87C850 928.48 867.83 905.46 887.59 884.44C853.59 867.55 823.41 842.27 801.13 811.51Z" />
		<path id="Path 16" class="shp9" d="M1179.6 1916.41C1178.55 1908.68 1177.53 1900.94 1176.5 1893.21C1149.45 1916.48 1121.79 1938.83 1097.22 1964.99C1094.27 1968.13 1091.29 1971.33 1088.3 1974.59C1112.78 2035.32 1145.78 2092.29 1199.24 2132.08C1208.59 2124.94 1216.96 2116.85 1225.92 2109.02C1215.62 2090.54 1207.74 2070.71 1202.39 2051.22C1190.36 2007.34 1185.69 1961.39 1179.6 1916.41Z" />
		<path id="Path 17" class="shp5" d="M1726.26 996.6C1734.35 956.44 1747.37 917.49 1755.76 877.4C1762.8 843.78 1765.01 809.68 1761 775.51C1753.56 712.2 1724.85 650.66 1681.75 603.82C1636.7 554.85 1576.67 523.86 1511.16 513.02C1478.07 507.55 1443.32 507.37 1410.2 512.78C1382.25 517.34 1356.3 526.38 1330.24 536.29C1338.66 543.4 1346.34 551.15 1352.65 559.6C1354.54 562.12 1355.25 564.92 1355.12 567.69C1373.62 571.04 1386.07 584.5 1394.81 600.65C1457.7 601.94 1519.49 641.83 1561.63 685.61C1657.84 785.55 1676.82 933.56 1669.22 1066.16C1664.82 1142.74 1650.54 1218.34 1645.65 1294.81C1643.55 1327.6 1644.92 1362.4 1663.72 1390.59C1669.99 1399.99 1678.21 1408.2 1687.75 1414.29C1683.95 1383.67 1694.84 1350.5 1720.1 1329.16C1730.26 1320.58 1741.48 1314.24 1753.23 1309.93C1730.84 1277.69 1741.46 1228.93 1768.06 1200.4C1768.6 1199.83 1769.14 1199.28 1769.68 1198.72C1715.25 1148.37 1712.52 1064.84 1726.26 996.6Z" />
		<path id="Path 18" class="shp6" d="M1069.72 1995.92C1054.93 2014.09 1041.83 2033.9 1034.87 2055.41C1024.87 2086.29 1033.47 2115.5 1057.58 2136.92C1080.44 2157.23 1112.28 2164.38 1141.93 2158.25C1150.98 2156.4 1159.69 2153.6 1168.09 2150.04C1120.63 2110.56 1081.82 2056.51 1069.72 1995.92Z" />
		<path id="Path 19" class="shp0" d="M1045.89 1713.96C1043.06 1715.53 1039.58 1716.02 1036.2 1715.38C1033.46 1714.86 1030.74 1714.26 1028.03 1713.62C1045.04 1787.34 1062.05 1861.05 1079.06 1934.76C1085.58 1928.17 1092.33 1921.69 1099.28 1915.4C1081.49 1848.25 1063.69 1781.11 1045.89 1713.96Z" />
		<path id="Path 20" class="shp5" d="M1007.42 536.12C1006.07 536.89 1004.7 537.65 1003.36 538.44C993 544.56 983.32 551.81 973.36 558.57C979.73 563.95 985.53 570.17 990.59 577.23C1005.31 597.77 1013.99 626.37 1009.81 652.11C1018.2 644.4 1026.32 636.43 1034.35 628.7C1022.62 598.89 1014.08 567.71 1007.42 536.12Z" />
		<path id="Path 21" class="shp4" d="M1002.05 508.45C999.05 491.7 996.46 474.92 994.1 458.25C992.29 445.42 990.62 432.46 989.14 419.43C963.35 434.26 939.98 453 920 475.06C903.14 493.68 889.6 514.55 876.37 535.72C878.82 535.23 881.31 534.79 883.84 534.42C908.38 530.85 933.11 534.72 954.23 545.74C966.98 530.7 984.33 518.41 1002.05 508.45Z" />
		<path id="Path 22" class="shp6" d="M1832.37 2064.47C1808.49 2043.86 1787.04 2019.4 1772.21 1991.45C1771.03 1993 1769.85 1994.55 1768.67 1996.1C1741.84 2031.43 1692.81 2085.83 1719.08 2133.69C1735.11 2162.88 1773.66 2173.71 1804.85 2168.73C1843.01 2162.63 1875.58 2138.75 1904.59 2113.71C1894.34 2108.63 1884.41 2102.31 1875.38 2096.6C1860.27 2087.06 1845.9 2076.15 1832.37 2064.47Z" />
		<path id="Path 23" class="shp5" d="M1875.76 1335.14C1879.59 1332.72 1883.23 1330.01 1886.25 1326.16C1892.26 1318.5 1896.08 1308.64 1895.48 1298.81C1894.89 1289.19 1890.1 1280.3 1883.08 1273.79C1874.89 1266.19 1864.74 1265.55 1855.47 1260.2C1845.75 1254.6 1848.2 1240.08 1858.51 1236.91C1874.23 1232.08 1892.21 1243.06 1903.07 1253.81C1914.66 1265.28 1922.09 1280.99 1922.82 1297.35C1923.54 1313.53 1916.97 1329.61 1906.27 1341.6C1902.52 1345.8 1897.79 1349.98 1892.52 1353.33C1905.02 1369.49 1913.77 1387.6 1918.69 1406.59C1947.67 1390.18 1967.76 1362.16 1975.52 1329.57C1982.89 1298.66 1977.27 1266.14 1958.29 1240.43C1939.22 1214.6 1909 1198 1877.58 1192.95C1844.65 1187.67 1809.31 1198.45 1786.47 1223.08C1765.38 1245.84 1762.12 1277.39 1773.79 1304.56C1809.65 1298.73 1847.79 1310.06 1875.76 1335.14Z" />
		<path id="Path 24" class="shp1" d="M2102.92 2081.36C2126.48 2099.35 2155.04 2109 2184.29 2110.5C2171.48 2095.15 2161.92 2077.16 2157.13 2057.43C2132.1 1954.22 2222.81 1876.19 2247.42 1783.76C2258.15 1743.47 2251.52 1702.82 2220.83 1673.29C2208.15 1661.07 2192.56 1651.54 2175.73 1646.24C2161.6 1641.78 2147.33 1641.46 2132.9 1640.73C2166.31 1737.11 2147.62 1845.51 2101.88 1934.7C2087.87 1962 2071.16 1987.89 2052.69 2012.45C2057.54 2023.17 2061.9 2034.16 2068.49 2044.16C2077.7 2058.14 2089.58 2071.2 2102.92 2081.36Z" />
		<path id="Path 25" class="shp2" d="M1639.97 1420.57C1615.12 1389.72 1607.14 1350.98 1607.62 1312.02C1608.07 1275.02 1614.32 1237.99 1618.9 1201.33C1623.75 1162.5 1628.48 1123.64 1631.46 1084.62C1636.86 1013.94 1636.76 941.89 1620.61 872.51C1606.04 809.91 1578.6 751.07 1534.01 704.22C1513.78 682.96 1490.67 664.79 1464.83 650.81C1446.13 640.7 1426.29 633.66 1406.04 627.74C1406.82 630.15 1407.56 632.53 1408.24 634.86C1413.11 651.35 1416.73 668.16 1419.14 685.14C1427.34 691.81 1435.55 698.64 1442.69 706.27C1521.53 790.61 1552.57 912.53 1532.04 1025.08C1520.5 1088.35 1495.21 1147.98 1480.4 1210.41C1467.22 1265.96 1465.75 1321.39 1482.93 1376.23C1515.28 1479.56 1608.71 1569.53 1720.39 1575.56C1774.21 1578.46 1828.07 1558.91 1861.34 1515.12C1891.41 1475.53 1895.14 1423.82 1867.35 1382.02C1841.24 1342.75 1782.67 1322.91 1744.1 1357.68C1726.74 1373.33 1717.71 1400.25 1727.1 1422.57C1735.98 1443.68 1760.43 1455.28 1782.44 1452.85C1801.01 1450.81 1803.16 1479.31 1786.69 1484.22C1772.33 1488.49 1756.55 1488.62 1742.31 1483.67C1727.75 1478.6 1716.1 1470.3 1707.31 1459.98C1681.88 1459.8 1654.36 1438.45 1639.97 1420.57Z" />
		<path id="Path 26" class="shp10" d="M2138.54 1511.09C2166.33 1501.06 2196.71 1497.35 2226.08 1500.63C2341.58 1513.57 2420.52 1631.08 2394.65 1743.28C2387.56 1773.97 2373.83 1803.19 2357.52 1830.01C2381.52 1824.71 2407.92 1828.32 2431.02 1837.31C2476.13 1794.06 2504.73 1735.14 2509.75 1672.62C2514.27 1616.2 2500.08 1560.87 2468.17 1514.07C2437.56 1469.22 2391.56 1433.84 2340.21 1416.15C2231.08 1378.53 2113.4 1426.09 2045.18 1515.22C2057.05 1524.88 2068.13 1535.61 2078.27 1547.16C2094.77 1530.49 2117.02 1518.86 2138.54 1511.09Z" />
		<path id="Path 27" class="shp2" d="M2235.81 1638.32C2270.6 1665.77 2290.44 1707.55 2288.94 1751.93C2287.37 1798.55 2266.1 1841.64 2243.83 1881.61C2222.15 1920.55 2197.21 1960.27 2191.02 2005.34C2185.42 2046 2201.35 2084.85 2235.81 2107.79C2271.08 2131.29 2315.63 2134.35 2356.08 2124.71C2431.29 2106.77 2493.44 2042.67 2487.37 1962C2484.6 1925.08 2465.56 1890.85 2433.56 1871.64C2403.98 1853.87 2370.71 1851.52 2337.96 1858.84C2326.04 1875.24 2313.73 1891.38 2303.94 1909.08C2291.29 1931.91 2282.19 1967.15 2306.19 1986.26C2313.71 1992.24 2323.71 1994.88 2332.25 1989.57C2341.44 1983.87 2342.9 1973.34 2345.02 1963.59C2348.04 1949.65 2365.5 1950.55 2372.58 1959.99C2395.98 1991.18 2354.27 2028.52 2324.08 2029.82C2288.46 2031.36 2260.02 1999.2 2255.08 1966.11C2249.98 1931.87 2264.44 1899.29 2283.42 1871.63C2301.9 1844.67 2322.04 1819.32 2337.25 1790.22C2364.02 1739.01 2373.33 1679.78 2347.81 1626.15C2324.56 1577.31 2281.33 1542.27 2227.88 1532.51C2201.85 1527.77 2174.19 1529.83 2148.83 1536.97C2127.88 1542.87 2109.96 1553.03 2091.94 1563.99C2103.13 1578.87 2112.81 1594.78 2120.75 1611.27C2158.17 1595.7 2205.87 1614.71 2235.81 1638.32Z" />
		<path id="Path 28" fill-rule="evenodd" class="shp9" d="M1496.46 1994.57C1484.98 1992.74 1473.2 1989.4 1461.52 1988.3C1458.42 1952.95 1454.59 1917.63 1451.34 1882.34C1446.41 1828.65 1441.47 1774.95 1436.54 1721.24C1435.61 1711.2 1428.61 1702.57 1417.86 1702.57C1408.48 1702.57 1398.25 1711.14 1399.18 1721.24C1407.35 1809.37 1415.52 1897.49 1423.69 1985.62C1424.04 1989.42 1424.45 1993.45 1424.89 1997.63C1424.47 1997.68 1424.05 1997.73 1423.63 1997.81C1415.26 1999.31 1407.22 2003.24 1399.08 2005.77C1390.85 2008.33 1382.51 2010.54 1374.1 2012.4C1358.07 2015.96 1341.86 2018.49 1325.48 2019.57C1294.26 2021.62 1262.07 2020.34 1231.01 2015.67C1224.04 1983.18 1220.03 1949.91 1215.2 1917.16C1208.82 1874 1202.83 1830.78 1197.26 1787.51C1190.95 1738.58 1185.73 1689.54 1179.75 1640.58C1174.69 1599.17 1172 1556.66 1164.05 1515.54C1253.18 1503.14 1335.96 1463.02 1403.71 1403.93C1421.79 1388.16 1395.38 1361.93 1377.4 1377.62C1265.71 1475.13 1102.71 1514.49 964.2 1451.98C898.19 1422.19 843.84 1372.53 811.12 1307.66C778.47 1242.95 770.75 1168.41 791.04 1098.75C802.98 1057.78 823.24 1019.61 846.39 983.92C866.47 952.96 890.16 924.69 911.49 894.68C915.81 896.25 920.17 897.7 924.56 898.99C1006.66 923.12 1096.8 894.63 1157.98 836.94C1174.85 821.03 1189.71 802.6 1201.6 782.68C1213.14 763.34 1221.62 738.62 1240.65 725.11C1242.91 723.5 1245.23 722.1 1247.59 720.86C1247.95 718.68 1248.43 716.49 1248.96 714.31C1249.19 719.84 1250.2 725.06 1252.45 729.5C1255.1 734.72 1262.82 734.18 1265.61 729.5C1269.27 723.33 1269.22 716.26 1270.55 709.3C1271.96 701.9 1273.41 694.46 1275.29 687.17C1278.8 673.48 1283.71 660.2 1290.15 647.61C1300 628.35 1321.04 590.67 1347.56 594.17C1372.69 597.48 1378.85 638.63 1382.87 657.83C1389.43 689.15 1391.3 721.32 1389.3 753.23C1387.97 774.44 1421.46 774.54 1422.41 753.23C1422.89 742.52 1422.89 731.81 1422.44 721.13C1433.66 735.95 1443.9 751.65 1453.18 767.3C1468.76 793.57 1480.91 821.74 1489.62 851.01C1507.77 912.01 1508.56 975.48 1493.75 1037.24C1477.4 1105.47 1447.73 1170.24 1437.16 1239.9C1427.58 1303.05 1435.69 1365.49 1461.42 1423.99C1512.72 1540.64 1638.55 1631.06 1769.51 1610.06C1828.44 1600.6 1884.61 1561.82 1909.6 1506.82C1912.42 1500.62 1914.78 1494.31 1916.73 1487.93C1990.26 1501.63 2052.82 1551.75 2086.44 1618.46C2127.94 1700.81 2118.87 1802.26 2084.1 1885.21C2051.09 1963.94 1995.15 2030.59 1933 2088.25C1920.36 2081.09 1906.41 2075.73 1893.87 2068.25C1879.46 2059.66 1865.54 2050.27 1852.59 2039.61C1828.28 2019.6 1806.98 1996.62 1786.04 1973.24C1817.49 1931.84 1848.93 1890.45 1880.38 1849.05C1886.49 1841.01 1881.64 1828.16 1873.68 1823.5C1864.09 1817.89 1854.25 1822.14 1848.13 1830.2C1811.72 1878.13 1775.31 1926.05 1738.9 1973.98C1714.96 2005.51 1688.11 2038.95 1678.74 2077.28C1670.52 2079.36 1662.31 2080.6 1653.43 2080.28C1646.38 2080.03 1639.5 2078.62 1632.61 2077.38C1637.67 2053.69 1638.44 2028.78 1638.27 2004.96C1637.91 1954.98 1636.57 1904.97 1635.2 1855C1634.4 1826 1633.56 1797 1632.58 1768C1631.63 1739.92 1631.96 1710.19 1625.28 1682.77C1623.25 1674.47 1610.04 1674.19 1608.18 1682.77C1603.36 1705.04 1603.43 1728.73 1603.13 1751.43C1602.81 1774.9 1602.71 1798.38 1602.66 1821.86C1602.57 1868.82 1602.61 1915.77 1602.97 1962.73C1603.04 1972.06 1603.3 1982.2 1603.42 1992.76C1594.28 1994.38 1585.17 1996.25 1575.89 1997.18C1562.59 1998.51 1549.2 1998.91 1535.85 1998.42C1522.62 1997.93 1509.52 1996.64 1496.46 1994.57ZM1364.44 1252.86C1364.44 1218.8 1336.83 1191.19 1302.77 1191.19C1268.71 1191.19 1241.1 1218.8 1241.1 1252.86C1241.1 1286.92 1268.71 1314.53 1302.77 1314.53C1336.83 1314.53 1364.44 1286.92 1364.44 1252.86ZM1306.38 1123.96C1306.52 1137.36 1327.35 1137.4 1327.21 1123.96C1327.14 1117.07 1326.31 1110.33 1324.83 1103.81C1325.94 1103.28 1327.02 1102.5 1328.04 1101.41C1334.42 1094.5 1340.82 1087.59 1347.21 1080.69C1356.3 1070.86 1341.61 1056.09 1332.48 1065.95C1327.4 1071.44 1322.33 1076.93 1317.25 1082.41C1313.14 1074.08 1307.86 1066.41 1301.65 1059.62C1301.8 1059.42 1301.98 1059.24 1302.13 1059.03C1306.38 1052.64 1310.63 1046.26 1314.89 1039.88C1318.01 1035.19 1315.8 1028.35 1311.15 1025.62C1306.05 1022.64 1300.03 1024.67 1296.9 1029.36C1293.24 1034.85 1289.58 1040.34 1285.92 1045.83C1278.16 1040.39 1269.55 1036.11 1260.36 1033.25C1261.78 1027.69 1263.19 1022.13 1264.6 1016.57C1265.99 1011.12 1262.83 1005.27 1257.33 1003.76C1251.97 1002.29 1245.91 1005.56 1244.51 1011.04C1242.96 1017.15 1241.41 1023.26 1239.85 1029.37C1236.02 1029.1 1232.14 1029.07 1228.19 1029.3C1219.07 1029.83 1210.32 1031.68 1202.09 1034.6C1202.02 1034.41 1201.97 1034.21 1201.88 1034.02C1199.25 1028.15 1196.62 1022.29 1193.99 1016.43C1191.69 1011.29 1184.22 1010.07 1179.74 1012.69C1174.45 1015.78 1173.69 1021.79 1176 1026.94C1178.49 1032.5 1180.98 1038.05 1183.47 1043.6C1153.95 1062.12 1135.38 1096.27 1139.16 1133.35C1140.51 1146.56 1161.36 1146.7 1160 1133.35C1155.74 1091.63 1185.26 1052.66 1228.19 1050.13C1270.71 1047.63 1305.93 1081.66 1306.38 1123.96ZM1140.17 1344.12C1119.2 1325.54 1086.72 1336.75 1083.07 1365.02C1079.44 1393.06 1103.46 1410.32 1127.11 1418.02C1117.25 1432.1 1100.67 1441.59 1082.12 1442.41C1068.76 1443 1071.81 1463.62 1085.12 1463.03C1112.66 1461.82 1137.67 1445.59 1149.79 1420.78C1161.17 1397.48 1160.85 1362.44 1140.17 1344.12ZM879.3 1293.3C878.59 1290.46 877.88 1287.62 877.17 1284.79C875.98 1280.03 870.37 1276.7 865.64 1278.24C860.71 1279.83 857.81 1284.67 859.09 1289.77C859.8 1292.61 860.51 1295.44 861.22 1298.28C862.41 1303.04 868.01 1306.36 872.75 1304.83C877.68 1303.23 880.57 1298.4 879.3 1293.3ZM1931.25 1716.31C1943.23 1727.27 1958.65 1743.69 1976.36 1741.86C1993.54 1740.08 2006.81 1720.82 2015.54 1707.59C2033.02 1681.13 2050.74 1632.07 2018.5 1609.11C1999.85 1595.82 1977.61 1600.76 1964.28 1614.44C1961.11 1611.1 1957.19 1608.34 1952.53 1606.39C1936.24 1599.57 1917.35 1606.53 1906.69 1619.95C1880.98 1652.35 1905.9 1693.13 1931.25 1716.31ZM1364.44 690.45C1364.44 666.13 1350.01 646.42 1332.2 646.42C1314.4 646.42 1299.97 666.13 1299.97 690.45C1299.97 714.76 1314.4 726.13 1332.2 726.13C1350.01 726.13 1364.44 714.76 1364.44 690.45Z" />
		<path id="Path 29" class="shp4" d="M785.01 1758.09L838.46 1773.82C843.84 1775.4 847.37 1772.37 848.64 1771C849.91 1769.62 852.64 1765.86 850.62 1760.62L830.6 1708.63C826.7 1698.52 828.03 1687.14 834.15 1678.2L865.63 1632.23C868.8 1627.6 867.01 1623.31 866.1 1621.67C865.18 1620.05 862.41 1616.27 856.84 1616.59L801.21 1619.56C790.4 1620.12 779.97 1615.36 773.36 1606.78L739.37 1562.64C736.9 1559.42 733.79 1558.72 731.56 1558.72C730.71 1558.72 729.98 1558.83 729.48 1558.93C727.64 1559.3 723.22 1560.74 721.77 1566.16L707.41 1619.99C704.62 1630.46 696.86 1638.89 686.64 1642.52L634.16 1661.21C628.87 1663.09 627.8 1667.62 627.58 1669.48C627.36 1671.33 627.37 1675.98 632.08 1679.04L678.84 1709.33C687.93 1715.22 693.54 1725.2 693.85 1736.04L695.4 1791.73C695.56 1797.34 699.53 1799.76 701.23 1800.54C702.93 1801.32 707.35 1802.76 711.71 1799.22L754.97 1764.11C763.38 1757.28 774.61 1755.03 785.01 1758.09Z" />
		<path id="Path 30" class="shp0" d="M778.54 1780.07C775.65 1779.21 772.55 1779.73 770.08 1781.42C770.2 1781.8 770.32 1782.19 770.41 1782.6C788.34 1860.29 806.27 1937.98 824.2 2015.67C831.28 2011.19 838.52 2006.95 845.9 2002.96C826.45 1929.55 806.99 1856.13 787.53 1782.72L778.54 1780.07Z" />
		<path id="Path 31" class="shp5" d="M1056.44 1645.54C1066.35 1630.51 1077.27 1611.69 1073.42 1592.88C1070.18 1577.07 1052.6 1567.49 1037.49 1574.08C1023.35 1580.25 1020.03 1599.07 1027.4 1611.41C1035.53 1625 1014.88 1637.33 1006.31 1624.76C1005.21 1624.15 1004.13 1623.32 1003.12 1622.24C990.39 1608.69 974.63 1590.36 954.27 1590.76C947.32 1590.9 939.07 1593.1 934.82 1599.11C929.16 1607.12 933.06 1617.55 937.44 1625.13C956.33 1657.81 994.81 1679.29 1031.25 1688.67C1037.48 1673.19 1047.18 1659.58 1056.44 1645.54Z" />
		<path id="Path 32" class="shp11" d="M1036.51 2763.73C1099.68 2785.96 1166.29 2796.44 1232.66 2803.52C1304.96 2811.23 1377.54 2816.92 1450.08 2821.73C1599.6 2831.65 1749.58 2835.92 1899.39 2831.46C1974.57 2829.23 2049.68 2824.81 2124.56 2817.81C2192.75 2811.46 2261.56 2804.44 2327.83 2786.4C2387.12 2770.23 2444.27 2744.27 2489.13 2701.42C2525.92 2666.27 2554.33 2620.92 2561.85 2570.23C2557.31 2569.1 2552.81 2567.71 2548.31 2565.98C2511.4 2551.85 2485.06 2522.65 2458.21 2494.94C2435 2471.02 2402.79 2441.5 2366.52 2445.35C2333.98 2448.81 2319.81 2481.67 2312.94 2509.54C2304.77 2542.6 2304.81 2577.25 2293.23 2609.52C2281.33 2642.71 2257.31 2672.67 2221.06 2679.9C2186.23 2686.81 2151.06 2673.85 2123.35 2652.96C2092.85 2629.94 2073.21 2599.48 2056.84 2565.42C2040.61 2531.67 2027.13 2494.88 2003.15 2465.58C1958.02 2410.46 1876.8 2397.56 1817.92 2438.33C1790.92 2457.02 1770.9 2486.12 1762.94 2517.92C1754.26 2552.56 1758.89 2589.48 1761.65 2624.6C1764.45 2660.04 1767.15 2697.65 1755.51 2731.92C1744.51 2764.31 1722.25 2790.4 1690.31 2803.27C1661.98 2814.71 1628.12 2814.38 1599.83 2803C1566.56 2789.6 1543.61 2763.67 1533.16 2729.35C1520.83 2688.94 1527.25 2646.56 1526.69 2605.15C1526.22 2569.67 1518.42 2528.04 1482.22 2512.08C1451.21 2498.4 1430.81 2526.94 1409.22 2544.17C1395.11 2555.42 1379.76 2563.77 1361.34 2564.63C1342.4 2565.5 1324.7 2556.81 1310.7 2544.67C1281.94 2519.73 1273.56 2483.06 1260.41 2449.1C1254.6 2434.08 1246.51 2418.52 1232.99 2409.1C1219.7 2399.85 1203.55 2397.62 1187.71 2399.04C1151.35 2402.33 1121.5 2425.02 1095.16 2448.37C1066.41 2473.87 1038.38 2502 1002.93 2518.12C942.51 2545.6 873.81 2540.94 814.04 2514.1C811.49 2512.96 808.98 2511.75 806.47 2510.52C806.83 2513.98 807.25 2517.42 807.73 2520.83C824.75 2640.96 928.02 2725.56 1036.51 2763.73Z" />
		<path id="Path 33" class="shp2" d="M2831.96 1738.01C2814.77 1729.03 2793.73 1740.63 2787.48 1757.57C2780.58 1776.24 2752.23 1765.75 2757.77 1747.46C2757.5 1745.9 2757.46 1744.19 2757.73 1742.34C2760.94 1719.2 2766.46 1689.32 2750.02 1669.71C2744.4 1663.01 2735.75 1656.67 2726.5 1657.26C2714.21 1658.03 2707.08 1670.08 2703.1 1680.34C2686.02 1724.6 2695.33 1779.2 2714.88 1822.26C2734.96 1816.14 2755.92 1814.91 2776.96 1812.9C2799.48 1810.76 2826.52 1806.59 2841.9 1787.99C2854.79 1772.36 2850.33 1747.6 2831.96 1738.01Z" />
		<path id="Path 34" class="shp12" d="M1788.58 2206.81C1781.2 2206.81 1773.74 2206.21 1766.21 2204.96C1723.11 2197.77 1683.46 2167.19 1676.58 2122.31C1675.82 2117.31 1675.42 2112.42 1675.32 2107.58C1670.16 2108.31 1664.81 2108.71 1659.46 2108.71C1647.52 2108.71 1635.53 2106.75 1625.4 2102.19C1622.18 2110.67 1618.17 2118.85 1613.21 2126.63C1593.24 2157.9 1560.59 2176.35 1524.05 2180.52C1519.14 2181.08 1514.14 2181.38 1509.12 2181.38C1497 2181.38 1484.78 2179.71 1473.35 2176.13C1462.27 2172.67 1447.16 2166.67 1436.81 2157.88C1417.88 2180.23 1390.06 2193.02 1360.17 2194.9C1357.44 2195.08 1354.72 2195.17 1352.05 2195.17C1307.87 2195.17 1272.3 2171.96 1246.17 2139.33C1218 2170.52 1174.18 2191 1133.59 2195.21C1129.33 2195.67 1125.07 2195.88 1120.84 2195.88C1045.45 2195.88 977.04 2127.25 999.87 2049.37C1007.1 2024.69 1020.85 2002.21 1036.99 1981.6C1025.06 1982.57 1013.18 1984.01 1001.36 1985.92C1005.75 1979.36 1010.67 1973.12 1016.1 1967.29C1019.3 1963.86 1022.94 1962.42 1026.48 1962.42C1038.16 1962.42 1048.72 1978.1 1038.2 1989.39C1017.93 2011.15 1006.66 2040.18 1006.27 2069.88C1005.59 2121.48 1040.65 2167.85 1089.85 2183C1100.59 2186.31 1111.59 2187.88 1122.54 2187.88C1162.81 2187.88 1202.23 2166.56 1223.99 2131.73C1227.23 2126.54 1231.99 2124.42 1236.74 2124.42C1237.07 2124.42 1237.4 2124.42 1237.72 2124.44C1239.04 2124.15 1240.4 2123.98 1241.75 2123.98C1246.1 2123.98 1250.4 2125.62 1253.35 2129.25C1253.85 2129.19 1254.35 2129.17 1254.85 2129.17C1259.58 2129.17 1264.27 2131.37 1267.37 2136.73C1279.35 2157.44 1295.44 2178.04 1319.1 2185.67C1324.43 2187.4 1330.27 2188.31 1336.12 2188.31C1351.69 2188.31 1367.31 2181.77 1373.41 2166.21C1375.97 2159.69 1381.5 2154.69 1388.39 2154.69C1389.76 2154.69 1391.17 2154.87 1392.63 2155.29C1400.13 2157.44 1406.65 2166.6 1403.54 2174.52C1403.09 2175.67 1402.61 2176.81 1402.11 2177.92C1409.41 2171.58 1415.7 2164.1 1420.61 2155.75C1420.31 2155.37 1419.99 2155 1419.69 2154.6C1414.58 2147.9 1418.65 2137 1425.3 2133.23C1427.8 2131.79 1430.33 2131.15 1432.78 2131.15C1434.95 2131.15 1437.07 2131.67 1439.05 2132.56C1439.83 2132.44 1440.64 2132.35 1441.46 2132.35C1442.81 2132.35 1444.21 2132.54 1445.66 2132.96C1452.5 2134.92 1458.46 2142.69 1457.15 2150.02C1473.04 2164.06 1494.55 2172.21 1515.76 2172.21C1521.89 2172.21 1527.99 2171.52 1533.92 2170.1C1565.69 2162.54 1590.55 2136.98 1598.49 2105.54C1599.46 2101.69 1601.44 2098.92 1603.92 2097.1C1606.71 2092.54 1611.51 2089.1 1617.7 2089.1C1618.7 2089.1 1619.74 2089.19 1620.81 2089.38C1639.69 2092.73 1658.56 2096.08 1677.43 2099.44C1690.44 2101.75 1691.26 2115.54 1684.71 2123.73C1691.87 2151.31 1709.2 2175.27 1734.79 2189.06C1749.45 2196.96 1765.51 2200.73 1781.6 2200.73C1799.51 2200.73 1817.44 2196.04 1833.45 2187.15C1866.82 2168.62 1894.36 2139.13 1922.51 2113.83C1953.96 2085.58 1985.4 2057.32 2016.85 2029.06C2019.8 2026.41 2023.92 2025.12 2028.04 2025.12C2034.16 2025.12 2040.29 2027.95 2042.64 2033.28C2045.55 2035.03 2047.96 2037.87 2049.25 2041.98C2067.24 2099.35 2120.29 2135.21 2177.13 2135.21C2189.04 2135.21 2201.13 2133.65 2213.08 2130.35C2214.23 2129.85 2215.44 2129.48 2216.71 2129.27C2217.56 2129.02 2218.42 2128.79 2219.27 2128.52C2221.04 2127.94 2222.73 2127.67 2224.31 2127.67C2229.79 2127.67 2233.96 2130.85 2236.29 2135.23C2260.94 2145.4 2287.79 2150.6 2314.6 2150.6C2343.25 2150.6 2371.88 2144.67 2397.75 2132.48C2446 2109.77 2484.65 2068.33 2502.92 2018.1C2505.62 2010.67 2511.98 2007.45 2518.25 2007.45C2527.83 2007.45 2537.21 2014.96 2533.06 2026.4C2532.58 2027.72 2532.08 2029.05 2531.58 2030.36C2526.83 2026.56 2522 2022.86 2517.12 2019.27C2500.9 2083.03 2447.75 2133.67 2383.92 2155.44C2361.67 2163.02 2337.92 2167.1 2314.21 2167.1C2289.17 2167.1 2264.19 2162.54 2241.15 2152.67C2233.02 2149.17 2225.17 2144.96 2217.75 2140.13C2215.1 2141.79 2211.98 2142.83 2208.67 2143.17C2203.08 2143.71 2197.5 2143.98 2191.92 2143.98C2152.83 2143.98 2114.5 2130.69 2083.67 2106.31C2067.21 2093.31 2053.43 2077.26 2043.07 2059.02C2039.43 2052.6 2035.68 2045.41 2032.57 2037.88C2026.16 2045.59 2019.6 2053.16 2012.91 2060.59C1979.33 2097.87 1942.26 2133.27 1902.03 2163.33C1868.76 2188.19 1829.94 2206.81 1788.58 2206.81Z" />
		<path id="Path 35" class="shp13" d="M1343.22 2232.27C1341.03 2232.27 1338.84 2232.21 1336.64 2232.08C1294.28 2229.54 1256.1 2203.94 1236.13 2167.37C1217.07 2189 1192.12 2205.04 1164.19 2213.27C1150.96 2217.19 1137.49 2219.04 1124.15 2219.04C1073.36 2219.04 1024.31 2192.06 996.6 2147.98C965.39 2098.33 969.45 2033.58 1001.36 1985.92C1013.18 1984.01 1025.06 1982.57 1036.99 1981.6C1020.85 2002.21 1007.1 2024.69 999.87 2049.37C977.04 2127.25 1045.45 2195.88 1120.84 2195.88C1125.07 2195.88 1129.33 2195.67 1133.59 2195.21C1174.18 2191 1218 2170.52 1246.17 2139.33C1272.3 2171.96 1307.87 2195.17 1352.05 2195.17C1354.72 2195.17 1357.44 2195.08 1360.17 2194.9C1390.06 2193.02 1417.88 2180.23 1436.81 2157.88C1447.16 2166.67 1462.27 2172.67 1473.35 2176.13C1484.78 2179.71 1497 2181.38 1509.12 2181.38C1514.14 2181.38 1519.14 2181.08 1524.05 2180.52C1560.59 2176.35 1593.24 2157.9 1613.21 2126.63C1618.17 2118.85 1622.18 2110.67 1625.4 2102.19C1635.53 2106.75 1647.52 2108.71 1659.46 2108.71C1664.81 2108.71 1670.16 2108.31 1675.32 2107.58C1675.42 2112.42 1675.82 2117.31 1676.58 2122.31C1683.46 2167.19 1723.11 2197.77 1766.21 2204.96C1773.74 2206.21 1781.2 2206.81 1788.58 2206.81C1829.94 2206.81 1868.76 2188.19 1902.03 2163.33C1942.26 2133.27 1979.33 2097.87 2012.91 2060.59C2019.6 2053.16 2026.16 2045.59 2032.57 2037.88C2035.68 2045.41 2039.43 2052.6 2043.07 2059.02C2053.43 2077.26 2067.21 2093.31 2083.67 2106.31C2114.5 2130.69 2152.83 2143.98 2191.92 2143.98C2197.5 2143.98 2203.08 2143.71 2208.67 2143.17C2211.98 2142.83 2215.1 2141.79 2217.75 2140.13C2225.17 2144.96 2233.02 2149.17 2241.15 2152.67C2264.19 2162.54 2289.17 2167.1 2314.21 2167.1C2337.92 2167.1 2361.67 2163.02 2383.92 2155.44C2447.75 2133.67 2500.9 2083.03 2517.12 2019.27C2522 2022.86 2526.83 2026.56 2531.58 2030.36C2509.77 2087.21 2466.48 2135.54 2410.65 2160.79C2380.04 2174.65 2347.23 2181.44 2314.4 2181.44C2281.65 2181.44 2248.9 2174.67 2218.35 2161.33C2204.52 2164.94 2190.25 2166.75 2175.98 2166.75C2147.71 2166.75 2119.48 2159.65 2094.75 2145.5C2062.79 2127.23 2038.18 2098.17 2024.24 2064.38L1944.61 2135.94C1898.33 2177.52 1849.66 2232.06 1782.84 2232.06C1780.98 2232.06 1779.11 2232.02 1777.23 2231.94C1717.13 2229.21 1665.28 2185.56 1653.32 2126.77C1644.3 2125.17 1635.27 2123.56 1626.25 2121.96C1613.33 2160.67 1579.75 2192.65 1539.34 2200.88C1531.58 2202.46 1523.8 2203.23 1516.11 2203.23C1489.48 2203.23 1463.84 2194.06 1442.89 2177.9C1420.5 2210.35 1383.35 2232.27 1343.22 2232.27Z" />
		<path id="Path 36" class="shp14" d="M1559.01 2775.19C1547.27 2762.52 1538.55 2747.04 1533.16 2729.35C1520.83 2688.94 1527.25 2646.56 1526.69 2605.15C1526.48 2589.42 1524.83 2572.48 1519.91 2557.1C1532.91 2589.21 1530.21 2627.4 1535.86 2661.15C1542.73 2702.13 1556.3 2744.98 1587.54 2774.08C1587.83 2774.35 1588.12 2774.62 1588.42 2774.9C1578.57 2774.98 1568.78 2775.08 1559.01 2775.19ZM1731.18 2774.44C1728.45 2774.44 1725.78 2774.44 1723.05 2774.42C1735.9 2757.98 1743.82 2737.02 1748.05 2717.06C1757.94 2670.38 1748.23 2621.81 1747.64 2574.69C1747.14 2534.44 1753.5 2492.56 1775.78 2458.17C1796.75 2425.81 1830.75 2404.44 1869.73 2404.44C1870.62 2404.44 1871.52 2404.46 1872.41 2404.48C1873.32 2404.5 1874.23 2404.54 1875.13 2404.58C1877.45 2400.19 1881.82 2396.92 1888.28 2396.88C1888.59 2396.88 1888.89 2396.88 1889.2 2396.88C1920.24 2396.88 1949.54 2408.58 1974.14 2426.85C1997.16 2441.21 2015.67 2462.25 2027.32 2486.75C2041.85 2510.08 2053.35 2535.46 2064.54 2560.46C2067.47 2567.02 2066.21 2573.15 2062.87 2577.48C2060.8 2573.52 2058.8 2569.5 2056.84 2565.42C2040.61 2531.67 2027.13 2494.88 2003.15 2465.58C1975.92 2432.33 1935.54 2414.44 1894.87 2414.44C1868.13 2414.44 1841.27 2422.17 1817.92 2438.33C1790.92 2457.02 1770.9 2486.12 1762.94 2517.92C1754.26 2552.56 1758.89 2589.48 1761.65 2624.6C1764.45 2660.04 1767.15 2697.65 1755.51 2731.92C1750.08 2747.92 1741.91 2762.35 1731.18 2774.44ZM2201.81 2681.77C2173.52 2681.77 2145.94 2670 2123.35 2652.96C2098.94 2634.52 2081.47 2611.33 2067.08 2585.33C2085.06 2613.71 2106.23 2640.63 2135.06 2658.4C2152.96 2669.42 2172.44 2674.92 2192.02 2674.92C2203.83 2674.92 2215.69 2672.92 2227.27 2668.94C2226.13 2664.4 2226.94 2659.17 2230.71 2654.33C2240.94 2641.19 2251.17 2628.04 2261.4 2614.92C2268.42 2598.27 2278.79 2583.6 2291.96 2571.25C2285.56 2568.65 2281.21 2562.37 2284.35 2553.77C2293.23 2529.46 2302.13 2505.17 2311 2480.85C2310.42 2477.63 2311.04 2474.19 2313.42 2471.04C2314.17 2470.04 2314.92 2469.06 2315.67 2468.06C2316.75 2465.13 2317.81 2462.19 2318.9 2459.23C2320.67 2454.4 2324 2451.35 2327.83 2449.81C2328.1 2449.44 2328.4 2449.04 2328.73 2448.67C2333.38 2443.25 2338.02 2437.83 2342.65 2432.42C2345.48 2429.12 2349.04 2427.75 2352.67 2427.75C2355.04 2427.75 2357.44 2428.35 2359.67 2429.4C2362.73 2426.73 2366.96 2425.19 2370.94 2425.19C2372.25 2425.19 2373.52 2425.35 2374.71 2425.69C2378.27 2426.71 2380.96 2428.71 2382.81 2431.27C2384.77 2430.15 2387 2429.5 2389.42 2429.5C2391.96 2429.5 2394.73 2430.23 2397.56 2431.9C2408.71 2438.4 2419.4 2445.52 2429.67 2453.19C2438.17 2458.6 2446.15 2464.88 2453.44 2471.98C2454.31 2472.83 2455.04 2473.75 2455.65 2474.69C2473.5 2491.02 2489.58 2509.23 2503.71 2529.04C2514.33 2534.83 2523.35 2543.15 2530 2553.44C2530.52 2553.23 2531.06 2553.02 2531.6 2552.83C2533.98 2552.06 2536.29 2551.71 2538.48 2551.71C2548.6 2551.71 2556.54 2559.27 2559.42 2568.48C2559.5 2568.48 2559.58 2568.48 2559.69 2568.48C2563.21 2568.48 2566.83 2569.77 2569.71 2571.88C2567.08 2571.42 2564.46 2570.88 2561.85 2570.23C2560.02 2582.56 2556.96 2594.58 2552.83 2606.23C2556.96 2594.58 2560.02 2582.56 2561.85 2570.23C2557.31 2569.1 2552.81 2567.71 2548.31 2565.98C2511.4 2551.85 2485.06 2522.65 2458.21 2494.94C2436.4 2472.46 2406.63 2445 2373 2445C2370.85 2445 2368.71 2445.13 2366.52 2445.35C2333.98 2448.81 2319.81 2481.67 2312.94 2509.54C2304.77 2542.6 2304.81 2577.25 2293.23 2609.52C2281.33 2642.71 2257.31 2672.67 2221.06 2679.9C2214.65 2681.17 2208.21 2681.77 2201.81 2681.77ZM1358.69 2564.69C1340.75 2564.69 1324.05 2556.25 1310.7 2544.67C1281.94 2519.73 1273.56 2483.06 1260.41 2449.1C1258.99 2445.42 1257.43 2441.71 1255.68 2438.06C1260.24 2445.63 1264.26 2453.48 1267.83 2461.27C1282.43 2493.23 1293.14 2532.96 1324.41 2553.29C1332.43 2558.5 1340.06 2560.65 1347.39 2560.65C1369.61 2560.65 1389.02 2540.87 1407.68 2526.88C1421.59 2516.44 1437.38 2508.04 1455.18 2507.77C1455.47 2507.75 1455.75 2507.75 1456.04 2507.75C1459.09 2507.75 1462.1 2508 1465.06 2508.5C1443.13 2509.19 1426.57 2530.33 1409.22 2544.17C1395.11 2555.42 1379.76 2563.77 1361.34 2564.63C1360.46 2564.67 1359.57 2564.69 1358.69 2564.69ZM915.93 2536.6C881.17 2536.6 846.31 2528.58 814.04 2514.1C811.49 2512.96 808.98 2511.75 806.47 2510.52C806.83 2513.98 807.25 2517.42 807.73 2520.83C808.41 2525.65 809.23 2530.4 810.19 2535.08C809.23 2530.4 808.41 2525.65 807.73 2520.83C807.25 2517.42 806.83 2513.98 806.47 2510.52C801.44 2508.06 796.5 2505.42 791.68 2502.63C794.47 2500.13 798.06 2498.52 802.01 2498.52C804.38 2498.52 806.88 2499.08 809.41 2500.4C826.58 2509.23 844.83 2515.35 863.77 2519.04C876.7 2521.56 889.85 2522.77 903.02 2522.77C928.27 2522.77 953.57 2518.29 977.31 2509.87C995.42 2503.46 1012.55 2494.31 1028.16 2483.13C1045.83 2470.46 1060.39 2454.04 1075.65 2438.71C1102.52 2411.69 1136.36 2385.77 1175.41 2385.77C1180.72 2385.77 1186.14 2386.25 1191.64 2387.27C1207.97 2390.31 1221.55 2398.31 1232.9 2409.04C1222.03 2401.5 1209.25 2398.65 1196.29 2398.65C1193.43 2398.65 1190.57 2398.79 1187.71 2399.04C1151.35 2402.33 1121.5 2425.02 1095.16 2448.37C1066.41 2473.87 1038.38 2502 1002.93 2518.12C975.12 2530.77 945.56 2536.6 915.93 2536.6Z" />
		<path id="Path 37" class="shp15" d="M1689.63 2832.31C1667.65 2831.88 1645.66 2831.27 1623.68 2830.52C1645.66 2831.27 1667.64 2831.88 1689.63 2832.31L1689.63 2832.31ZM1645.7 2811.69C1629.94 2811.69 1614.17 2808.77 1599.83 2803C1583.72 2796.52 1570.03 2787.08 1559.01 2775.19C1568.78 2775.08 1578.57 2774.98 1588.42 2774.9C1607.9 2792.69 1634.6 2805.23 1661.25 2805.23C1670.2 2805.21 1679.15 2803.81 1687.81 2800.71C1702.34 2795.5 1713.93 2786.08 1723.05 2774.42C1725.78 2774.44 1728.45 2774.44 1731.18 2774.44C1720.18 2786.83 1706.48 2796.75 1690.31 2803.27C1676.34 2808.92 1661.02 2811.69 1645.7 2811.69Z" />
		<path id="Path 38" class="shp16" d="M1689.63 2832.31C1667.64 2831.88 1645.66 2831.27 1623.68 2830.52C1590.71 2820.38 1562.17 2797.6 1542.73 2769.25C1517.65 2732.67 1507.47 2688.33 1502.27 2644.94C1499.53 2622.04 1500.12 2598.17 1493.57 2575.9C1488.82 2559.79 1477.34 2541.25 1459 2539.1C1457.91 2538.96 1456.84 2538.92 1455.77 2538.92C1441.58 2538.92 1428.68 2549.6 1418.23 2558C1404.41 2569.13 1390.89 2580.67 1374.26 2587.35C1365.7 2590.79 1357.28 2592.35 1349.11 2592.35C1319.96 2592.35 1294.03 2572.58 1276.25 2548.4C1253.67 2517.69 1245.98 2479.44 1225.06 2447.79C1215.85 2433.85 1203.27 2421.85 1186.56 2418.06C1182.85 2417.23 1179.11 2416.83 1175.39 2416.83C1159.02 2416.83 1142.83 2424.29 1129.45 2433.19C1109.74 2446.25 1094.15 2464.88 1077.47 2481.4C1062.61 2496.15 1046.48 2509.52 1028.44 2520.21C990.85 2542.5 947.55 2553.75 904.26 2553.75C872.12 2553.75 839.97 2547.54 810.19 2535.08C809.23 2530.4 808.41 2525.65 807.73 2520.83C807.25 2517.42 806.83 2513.98 806.47 2510.52C808.98 2511.75 811.49 2512.96 814.04 2514.1C846.31 2528.58 881.17 2536.6 915.93 2536.6C945.56 2536.6 975.12 2530.77 1002.93 2518.12C1038.38 2502 1066.41 2473.87 1095.16 2448.37C1121.5 2425.02 1151.35 2402.33 1187.71 2399.04C1190.57 2398.79 1193.43 2398.65 1196.29 2398.65C1209.25 2398.65 1222.03 2401.5 1232.9 2409.04C1241.75 2417.4 1249.26 2427.42 1255.68 2438.06C1257.43 2441.71 1258.99 2445.42 1260.41 2449.1C1273.56 2483.06 1281.94 2519.73 1310.7 2544.67C1324.05 2556.25 1340.75 2564.69 1358.69 2564.69C1359.57 2564.69 1360.46 2564.67 1361.34 2564.63C1379.76 2563.77 1395.11 2555.42 1409.22 2544.17C1426.57 2530.33 1443.13 2509.19 1465.06 2508.5C1481.22 2511.15 1495.78 2520.67 1506.09 2533.42C1512.05 2540.77 1516.51 2548.73 1519.91 2557.1C1524.83 2572.48 1526.48 2589.42 1526.69 2605.15C1527.25 2646.56 1520.83 2688.94 1533.16 2729.35C1538.55 2747.04 1547.27 2762.52 1559.01 2775.19C1570.03 2787.08 1583.72 2796.52 1599.83 2803C1614.17 2808.77 1629.94 2811.69 1645.7 2811.69C1661.02 2811.69 1676.34 2808.92 1690.31 2803.27C1706.48 2796.75 1720.18 2786.83 1731.18 2774.44C1741.91 2762.35 1750.08 2747.92 1755.51 2731.92C1767.15 2697.65 1764.45 2660.04 1761.65 2624.6C1758.89 2589.48 1754.26 2552.56 1762.94 2517.92C1770.9 2486.12 1790.92 2457.02 1817.92 2438.33C1841.27 2422.17 1868.13 2414.44 1894.87 2414.44C1935.54 2414.44 1975.92 2432.33 2003.15 2465.58C2027.13 2494.88 2040.61 2531.67 2056.84 2565.42C2058.8 2569.5 2060.8 2573.52 2062.87 2577.48C2062.75 2577.65 2062.62 2577.81 2062.49 2577.96C2064 2580.42 2065.53 2582.88 2067.08 2585.33C2081.47 2611.33 2098.94 2634.52 2123.35 2652.96C2145.94 2670 2173.52 2681.77 2201.81 2681.77C2208.21 2681.77 2214.65 2681.17 2221.06 2679.9C2257.31 2672.67 2281.33 2642.71 2293.23 2609.52C2304.81 2577.25 2304.77 2542.6 2312.94 2509.54C2319.81 2481.67 2333.98 2448.81 2366.52 2445.35C2368.71 2445.13 2370.85 2445 2373 2445C2406.63 2445 2436.4 2472.46 2458.21 2494.94C2485.06 2522.65 2511.4 2551.85 2548.31 2565.98C2552.81 2567.71 2557.31 2569.1 2561.85 2570.23C2560.02 2582.56 2556.96 2594.58 2552.83 2606.23C2545.46 2609.04 2537.9 2610.33 2530.33 2610.33C2500.94 2610.33 2471.48 2591.02 2453.1 2568.08C2442.65 2555 2434.06 2540.69 2425.06 2526.67C2422.08 2525.63 2419.31 2523.6 2417.17 2520.31C2412.9 2513.79 2407.29 2510.02 2401.33 2508.58C2401.02 2508.6 2400.69 2508.63 2400.38 2508.63C2398.96 2508.63 2397.54 2508.4 2396.13 2507.9C2395.92 2507.9 2395.73 2507.9 2395.52 2507.9C2386.42 2507.9 2377.29 2512.81 2371.54 2521.21C2361.6 2563.19 2346.21 2604.6 2319.19 2638.65C2293.71 2670.73 2256.81 2697.1 2215.87 2704.31C2208.04 2705.69 2200.29 2706.35 2192.67 2706.35C2159.15 2706.35 2127.77 2693.56 2100.79 2672.21C2067.33 2645.69 2044.15 2609.23 2023.07 2572.69C2001.05 2534.5 1979.83 2493.08 1944.82 2464.96C1924.33 2448.48 1896.76 2435.56 1869.74 2435.56C1858.25 2435.56 1846.85 2437.9 1836.14 2443.31C1803.06 2460 1787.36 2497.02 1781.41 2531.75C1773.1 2580.4 1784.43 2630.48 1783.3 2679.42C1782.36 2720.19 1772.57 2761.96 1746.83 2794.46C1731.73 2813.52 1711.77 2826.33 1689.63 2832.31Z" />
		<path id="Path 39" class="shp17" d="M1073.09 1940.86C1075.06 1938.82 1077.05 1936.78 1079.06 1934.76C1062.05 1861.05 1045.04 1787.34 1028.03 1713.62C1018.61 1711.41 1009.36 1708.51 1000.38 1704.93C1019.21 1786.54 1038.04 1868.14 1056.88 1949.75C1057.26 1951.41 1057.89 1952.81 1058.68 1953.98C1059.33 1954 1059.97 1954.02 1060.62 1954.04C1064.77 1949.55 1068.94 1945.15 1073.09 1940.86ZM1045.89 1713.96C1063.69 1781.11 1081.49 1848.25 1099.28 1915.4C1106.11 1909.21 1113.15 1903.22 1120.41 1897.52C1101.47 1826.04 1082.52 1754.55 1063.57 1683.06C1063.38 1682.34 1063.13 1681.68 1062.86 1681.05C1058.1 1689.09 1054 1697.46 1051.58 1706.65C1050.69 1710.03 1048.58 1712.47 1045.89 1713.96ZM770.41 1782.6C770.32 1782.19 770.2 1781.8 770.08 1781.42C769.85 1781.58 769.63 1781.73 769.41 1781.9L748.52 1798.85C766.37 1876.19 784.22 1953.53 802.07 2030.86C809.25 2025.53 816.63 2020.46 824.2 2015.67C806.27 1937.98 788.34 1860.29 770.41 1782.6ZM845.9 2002.96C847.31 2002.2 848.72 2001.44 850.14 2000.69C856.28 1997.48 862.49 1994.44 868.75 1991.57C851.03 1924.71 833.31 1857.84 815.59 1790.98L787.53 1782.72C806.99 1856.13 826.45 1929.55 845.9 2002.96Z" />
		<path id="Path 40" fill-rule="evenodd" class="shp17" d="M1028.03 1713.62C1018.61 1711.41 1009.36 1708.51 1000.38 1704.93C985.05 1698.81 970.51 1690.75 957.25 1680.86C935.51 1664.66 910.28 1641.6 907.32 1612.97C904.5 1585.65 927.24 1566.87 952.93 1565.78C971.13 1565.01 986.62 1573.43 1000.14 1584.63C1002.59 1574.61 1007.95 1565.31 1016.11 1558.4C1034.42 1542.91 1062.53 1544.05 1080.82 1558.92C1102.83 1576.82 1102.05 1607.89 1092.22 1632.04C1085.02 1649.73 1072.54 1664.71 1062.86 1681.05C1058.1 1689.09 1054 1697.46 1051.58 1706.65C1050.69 1710.03 1048.58 1712.47 1045.89 1713.96C1043.06 1715.53 1039.58 1716.02 1036.2 1715.38C1033.46 1714.86 1030.74 1714.26 1028.03 1713.62ZM1031.25 1688.67C1037.48 1673.19 1047.18 1659.58 1056.44 1645.54C1066.35 1630.51 1077.27 1611.69 1073.42 1592.88C1070.18 1577.07 1052.6 1567.49 1037.49 1574.08C1023.35 1580.25 1020.03 1599.07 1027.4 1611.41C1035.53 1625 1014.88 1637.33 1006.31 1624.76C1005.21 1624.15 1004.13 1623.32 1003.12 1622.24C990.39 1608.69 974.63 1590.36 954.27 1590.76C947.32 1590.9 939.07 1593.1 934.82 1599.11C929.16 1607.12 933.06 1617.55 937.44 1625.13C956.33 1657.81 994.81 1679.29 1031.25 1688.67ZM2564.81 2009.46C2558.44 2004.11 2551.94 1998.9 2545.29 1993.86C2590.38 1936.48 2635.44 1879.1 2680.52 1821.72C2683.92 1830.46 2687.81 1839 2692.21 1847.29C2649.75 1901.35 2607.29 1955.4 2564.81 2009.46ZM2713.31 1856.32C2722.56 1852.2 2732.15 1849.7 2741.94 1848.01C2741.77 1850.06 2741.02 1852.19 2739.5 1854.28C2693.4 1917.02 2647.31 1979.76 2601.23 2042.5L2600.92 2042.9C2595.04 2036.88 2589 2031.02 2582.83 2025.32C2623.9 1969.41 2664.98 1913.5 2706.04 1857.58C2708.4 1857.78 2710.87 1857.42 2713.31 1856.32Z" />
		<path id="Path 41" fill-rule="evenodd" class="shp17" d="M2880.96 1768.46C2880.79 1804.11 2849.77 1827.85 2818.37 1837.28C2793.67 1844.7 2767.17 1843.64 2741.94 1848.01C2732.15 1849.7 2722.56 1852.2 2713.31 1856.32C2710.87 1857.42 2708.4 1857.78 2706.04 1857.58C2700.44 1857.11 2695.44 1853.38 2692.65 1848.16C2692.5 1847.87 2692.35 1847.58 2692.21 1847.29C2687.81 1839 2683.92 1830.46 2680.52 1821.72C2670.81 1796.84 2665.19 1770.4 2664.19 1743.67C2662.9 1709.61 2665.56 1666.74 2691.25 1641.28C2715.77 1616.97 2752.08 1624.42 2773.42 1648.71C2788.52 1665.91 2792.48 1687.71 2792.19 1709.77C2803.92 1704.27 2817.25 1702.18 2830.46 1704.73C2860.04 1710.43 2881.08 1738.84 2880.96 1768.46ZM2831.96 1738.01C2814.77 1729.03 2793.73 1740.63 2787.48 1757.57C2780.58 1776.24 2752.23 1765.75 2757.77 1747.46C2757.5 1745.9 2757.46 1744.19 2757.73 1742.34C2760.94 1719.2 2766.46 1689.32 2750.02 1669.71C2744.4 1663.01 2735.75 1656.67 2726.5 1657.26C2714.21 1658.03 2707.08 1670.08 2703.1 1680.34C2686.02 1724.6 2695.33 1779.2 2714.88 1822.26C2734.96 1816.14 2755.92 1814.91 2776.96 1812.9C2799.48 1810.76 2826.52 1806.59 2841.9 1787.99C2854.79 1772.36 2850.33 1747.6 2831.96 1738.01ZM2592.58 2601.6C2576.73 2660.67 2537.69 2711.85 2489.92 2749.04C2436.15 2790.9 2371.4 2815.17 2305.27 2829.58C2232.63 2845.42 2157.69 2851.9 2083.69 2857.83C2006 2864.06 1928.1 2867.6 1850.17 2868.9C1694.13 2871.46 1538.04 2864.96 1382.48 2852.79C1308.33 2847 1233.85 2841.21 1160.33 2829.69C1091.67 2818.92 1023.18 2801.54 961.45 2768.81C863.62 2716.94 775.52 2612.71 782.63 2497.1C736.56 2467.56 701.61 2423.02 684.22 2370.42C661.15 2300.58 669.85 2223.42 699.36 2156.96C721.81 2106.42 758.03 2063.59 802.07 2030.86C809.25 2025.53 816.63 2020.46 824.2 2015.67C831.28 2011.19 838.52 2006.95 845.9 2002.96C847.31 2002.2 848.72 2001.44 850.14 2000.69C856.28 1997.48 862.49 1994.44 868.75 1991.57C928.3 1964.26 993.15 1952.3 1058.68 1953.98C1059.33 1954 1059.97 1954.02 1060.62 1954.04C1052.49 1962.84 1044.49 1972.02 1036.99 1981.6C1013.17 1983.55 989.55 1987.34 966.22 1993C895.9 2010.06 830.03 2042.92 780.39 2096.48C734.32 2146.19 707.31 2213.67 706.38 2281.44C705.48 2346.31 729.85 2408.9 779.99 2451.06C823.82 2487.92 885.76 2507.96 942.8 2498.87C973.92 2493.94 1001.64 2480.33 1026.04 2460.56C1056.64 2435.77 1083.3 2405.52 1117.31 2385.12C1147.49 2367 1184.18 2357.04 1219.22 2363.65C1258.04 2371 1281.32 2401.46 1295.26 2436.21C1306.84 2465.04 1312.81 2501.71 1340.27 2520.65C1367.9 2539.71 1389.75 2510.6 1409.54 2494.27C1422.66 2483.44 1436.86 2474.42 1453.99 2471.88C1471.71 2469.25 1489.4 2473.23 1505.04 2481.83C1541.21 2501.73 1557.87 2539.75 1562.47 2579.12C1569.38 2638.21 1539.81 2738.71 1612.08 2767.9C1635.03 2777.17 1662.96 2776.88 1684.83 2764.88C1710.95 2750.54 1723.08 2721.35 1725.71 2692.79C1732.23 2622.02 1706.52 2550.31 1735.95 2482.08C1764.25 2416.5 1832.69 2372.4 1904.42 2376.96C1940.82 2379.27 1975.74 2392.19 2004.44 2414.71C2034.11 2438 2053.42 2470.92 2069.44 2504.46C2084.29 2535.56 2096.6 2570.48 2118.71 2597.37C2137.67 2620.44 2166.27 2642.87 2197.31 2644.5C2270.15 2648.29 2265.17 2547.37 2276.92 2499.62C2284.56 2468.48 2299.54 2436.65 2328.13 2419.69C2363.04 2398.96 2404.92 2408.46 2437.54 2428.85C2469.27 2448.67 2491.81 2478.33 2519.04 2503.33C2543.46 2525.73 2573.06 2541.37 2606.96 2534.06C2637.73 2527.44 2665.48 2507.27 2682.31 2480.75C2703.21 2447.83 2709.23 2408.25 2708.21 2369.88C2704.56 2233.17 2626.38 2099.69 2517.12 2019.27C2500.9 2083.03 2447.75 2133.67 2383.92 2155.44C2338.13 2171.04 2285.96 2171.88 2241.15 2152.67C2233.02 2149.17 2225.17 2144.96 2217.75 2140.13C2215.1 2141.79 2211.98 2142.83 2208.67 2143.17C2163.92 2147.56 2118.9 2134.15 2083.67 2106.31C2067.21 2093.31 2053.43 2077.26 2043.07 2059.02C2039.43 2052.6 2035.68 2045.41 2032.57 2037.88C2039.47 2029.57 2046.19 2021.09 2052.69 2012.45C2057.54 2023.17 2061.9 2034.16 2068.49 2044.16C2077.7 2058.14 2089.58 2071.2 2102.92 2081.36C2126.48 2099.35 2155.04 2109 2184.29 2110.5C2171.48 2095.15 2161.92 2077.16 2157.13 2057.43C2132.1 1954.22 2222.81 1876.19 2247.42 1783.76C2258.15 1743.47 2251.52 1702.82 2220.83 1673.29C2208.15 1661.07 2192.56 1651.54 2175.73 1646.24C2161.6 1641.78 2147.33 1641.46 2132.9 1640.73C2131.73 1637.37 2130.5 1634.03 2129.21 1630.7C2126.67 1624.15 2123.83 1617.66 2120.75 1611.27C2158.17 1595.7 2205.87 1614.71 2235.81 1638.32C2270.6 1665.77 2290.44 1707.55 2288.94 1751.93C2287.37 1798.55 2266.1 1841.64 2243.83 1881.61C2222.15 1920.55 2197.21 1960.27 2191.02 2005.34C2185.42 2046 2201.35 2084.85 2235.81 2107.79C2271.08 2131.29 2315.63 2134.35 2356.08 2124.71C2431.29 2106.77 2493.44 2042.67 2487.37 1962C2484.6 1925.08 2465.56 1890.85 2433.56 1871.64C2403.98 1853.87 2370.71 1851.52 2337.96 1858.84C2326.04 1875.24 2313.73 1891.38 2303.94 1909.08C2291.29 1931.91 2282.19 1967.15 2306.19 1986.26C2313.71 1992.24 2323.71 1994.88 2332.25 1989.57C2341.44 1983.87 2342.9 1973.34 2345.02 1963.59C2348.04 1949.65 2365.5 1950.55 2372.58 1959.99C2395.98 1991.18 2354.27 2028.52 2324.08 2029.82C2288.46 2031.36 2260.02 1999.2 2255.08 1966.11C2249.98 1931.87 2264.44 1899.29 2283.42 1871.63C2301.9 1844.67 2322.04 1819.32 2337.25 1790.22C2364.02 1739.01 2373.33 1679.78 2347.81 1626.15C2324.56 1577.31 2281.33 1542.27 2227.88 1532.51C2201.85 1527.77 2174.19 1529.83 2148.83 1536.97C2127.88 1542.87 2109.96 1553.03 2091.94 1563.99C2087.6 1558.22 2083.04 1552.6 2078.27 1547.16C2094.77 1530.49 2117.02 1518.86 2138.54 1511.09C2166.33 1501.06 2196.71 1497.35 2226.08 1500.63C2341.58 1513.57 2420.52 1631.08 2394.65 1743.28C2387.56 1773.97 2373.83 1803.19 2357.52 1830.01C2381.52 1824.71 2407.92 1828.32 2431.02 1837.31C2476.13 1794.06 2504.73 1735.14 2509.75 1672.62C2514.27 1616.2 2500.08 1560.87 2468.17 1514.07C2437.56 1469.22 2391.56 1433.84 2340.21 1416.15C2231.08 1378.53 2113.4 1426.09 2045.18 1515.22C2039.78 1510.83 2034.23 1506.66 2028.52 1502.74C2061.88 1443.46 2121.96 1401.55 2186.58 1382.19C2310.31 1345.12 2445.04 1403.68 2509.77 1514C2573.02 1621.8 2552.29 1767.82 2464.67 1856C2497.4 1880.82 2516.79 1919.27 2521.27 1960.43C2521.88 1966.11 2522.21 1971.73 2522.25 1977.29C2530.08 1982.6 2537.77 1988.14 2545.29 1993.86C2551.94 1998.9 2558.44 2004.11 2564.81 2009.46C2570.96 2014.6 2576.94 2019.9 2582.83 2025.32C2589 2031.02 2595.04 2036.88 2600.92 2042.9C2602.83 2044.87 2604.79 2046.83 2606.69 2048.84C2658.27 2103.54 2697.65 2169.33 2721.52 2240.6C2746.31 2314.54 2758.77 2401.94 2727.02 2475.6C2705.12 2526.38 2653.71 2569.02 2598.17 2573.19C2596.9 2582.77 2595.08 2592.27 2592.58 2601.6ZM807.73 2520.83C824.75 2640.96 928.02 2725.56 1036.51 2763.73C1099.68 2785.96 1166.29 2796.44 1232.66 2803.52C1304.96 2811.23 1377.54 2816.92 1450.08 2821.73C1599.6 2831.65 1749.58 2835.92 1899.39 2831.46C1974.57 2829.23 2049.68 2824.81 2124.56 2817.81C2192.75 2811.46 2261.56 2804.44 2327.83 2786.4C2387.12 2770.23 2444.27 2744.27 2489.13 2701.42C2525.92 2666.27 2554.33 2620.92 2561.85 2570.23C2557.31 2569.1 2552.81 2567.71 2548.31 2565.98C2511.4 2551.85 2485.06 2522.65 2458.21 2494.94C2435 2471.02 2402.79 2441.5 2366.52 2445.35C2333.98 2448.81 2319.81 2481.69 2312.94 2509.54C2304.77 2542.6 2304.81 2577.25 2293.23 2609.52C2281.33 2642.71 2257.31 2672.67 2221.06 2679.9C2186.23 2686.81 2151.06 2673.85 2123.35 2652.96C2092.85 2629.94 2073.21 2599.48 2056.84 2565.42C2040.61 2531.67 2027.13 2494.88 2003.15 2465.58C1958.02 2410.46 1876.8 2397.56 1817.93 2438.33C1790.92 2457.02 1770.9 2486.12 1762.94 2517.92C1754.26 2552.56 1758.89 2589.48 1761.65 2624.6C1764.45 2660.04 1767.15 2697.65 1755.51 2731.92C1744.51 2764.31 1722.25 2790.4 1690.31 2803.27C1661.98 2814.71 1628.12 2814.38 1599.83 2803C1566.56 2789.6 1543.61 2763.67 1533.16 2729.35C1520.83 2688.94 1527.25 2646.56 1526.69 2605.15C1526.22 2569.67 1518.42 2528.04 1482.22 2512.08C1451.21 2498.4 1430.82 2526.94 1409.22 2544.17C1395.11 2555.42 1379.76 2563.77 1361.34 2564.63C1342.4 2565.5 1324.7 2556.81 1310.7 2544.67C1281.94 2519.73 1273.56 2483.06 1260.41 2449.1C1254.6 2434.08 1246.51 2418.52 1232.99 2409.1C1219.7 2399.85 1203.55 2397.62 1187.71 2399.04C1151.35 2402.33 1121.5 2425.02 1095.16 2448.37C1066.41 2473.87 1038.38 2502 1002.93 2518.12C942.51 2545.6 873.81 2540.94 814.04 2514.1C811.49 2512.96 808.98 2511.75 806.47 2510.52C806.83 2513.98 807.25 2517.42 807.73 2520.83ZM2337.96 1858.84C2344.6 1849.7 2351.13 1840.49 2357 1830.87C2351.13 1840.49 2344.6 1849.7 2337.96 1858.84Z" />
		<path id="Path 42" class="shp6" d="M1088.3 1974.59C1082.03 1981.43 1075.74 1988.54 1069.72 1995.92C1081.82 2056.51 1120.63 2110.56 1168.09 2150.04C1175.09 2147.06 1181.88 2143.56 1188.45 2139.54C1192.24 2137.23 1195.8 2134.73 1199.24 2132.08C1145.78 2092.29 1112.78 2035.32 1088.3 1974.59ZM1399.08 2005.77C1390.85 2008.33 1382.51 2010.54 1374.1 2012.4C1358.07 2015.96 1341.86 2018.49 1325.48 2019.57C1294.26 2021.62 1262.07 2020.34 1231.01 2015.67C1232.63 2023.19 1234.41 2030.68 1236.39 2038.1C1265.7 2047.9 1296.02 2052.27 1327.32 2051.17C1345.97 2050.51 1364.68 2048.33 1382.93 2044.41C1397.32 2041.32 1414.21 2038.05 1428.09 2031.46C1427.23 2019.57 1425.98 2008.08 1424.89 1997.63C1424.47 1997.68 1424.05 1997.73 1423.63 1997.81C1415.26 1999.31 1407.22 2003.24 1399.08 2005.77ZM1533.94 2031.37C1555.64 2032.79 1580.41 2033.01 1602.91 2028.63C1603.53 2016.51 1603.56 2004.38 1603.42 1992.76C1594.28 1994.38 1585.17 1996.25 1575.89 1997.18C1562.59 1998.51 1549.2 1998.91 1535.85 1998.42C1522.62 1997.93 1509.52 1996.64 1496.46 1994.57C1484.98 1992.74 1473.2 1989.4 1461.52 1988.3C1462.38 1998.04 1463.19 2007.78 1463.9 2017.53C1472.42 2020.92 1481.68 2023.17 1490.02 2025.08C1504.39 2028.36 1519.24 2030.41 1533.94 2031.37ZM1852.59 2039.61C1828.28 2019.6 1806.98 1996.62 1786.04 1973.24C1781.43 1979.31 1776.82 1985.38 1772.21 1991.45C1787.04 2019.4 1808.49 2043.86 1832.37 2064.47C1845.9 2076.15 1860.27 2087.06 1875.38 2096.6C1884.41 2102.31 1894.34 2108.63 1904.59 2113.71C1909.63 2109.38 1914.57 2104.98 1919.4 2100.67C1923.97 2096.56 1928.5 2092.44 1933 2088.25C1920.36 2081.09 1906.41 2075.73 1893.87 2068.25C1879.46 2059.66 1865.54 2050.27 1852.59 2039.61Z" />
		<path id="Path 43" class="shp17" d="M1653.43 2080.28C1646.38 2080.03 1639.5 2078.62 1632.61 2077.38C1630.81 2085.83 1628.46 2094.15 1625.4 2102.19C1640.07 2108.81 1658.67 2109.96 1675.32 2107.58C1675.1 2097.15 1676.35 2087.04 1678.74 2077.28C1670.52 2079.36 1662.31 2080.6 1653.43 2080.28ZM2086.44 1618.46C2127.94 1700.81 2118.87 1802.26 2084.1 1885.21C2051.09 1963.94 1995.15 2030.59 1933 2088.25C1928.5 2092.44 1923.97 2096.56 1919.4 2100.67C1914.57 2104.98 1909.63 2109.38 1904.59 2113.71C1875.58 2138.75 1843.01 2162.63 1804.85 2168.73C1773.66 2173.71 1735.11 2162.88 1719.08 2133.69C1692.81 2085.83 1741.84 2031.43 1768.67 1996.1C1769.85 1994.55 1771.03 1993 1772.21 1991.45C1776.82 1985.38 1781.43 1979.31 1786.04 1973.24C1817.49 1931.84 1848.93 1890.45 1880.38 1849.05C1886.49 1841.01 1881.64 1828.16 1873.68 1823.5C1864.09 1817.89 1854.25 1822.14 1848.13 1830.2C1811.72 1878.13 1775.31 1926.05 1738.9 1973.98C1714.96 2005.51 1688.11 2038.95 1678.74 2077.28C1676.35 2087.04 1675.1 2097.15 1675.32 2107.58C1675.42 2112.42 1675.82 2117.31 1676.58 2122.31C1683.46 2167.19 1723.11 2197.77 1766.21 2204.96C1815.91 2213.25 1862.82 2192.62 1902.03 2163.33C1942.26 2133.27 1979.33 2097.87 2012.91 2060.59C2019.6 2053.16 2026.16 2045.59 2032.57 2037.88C2039.47 2029.57 2046.19 2021.09 2052.69 2012.45C2071.16 1987.89 2087.87 1962 2101.88 1934.7C2147.62 1845.51 2166.31 1737.11 2132.9 1640.73C2131.73 1637.37 2130.5 1634.03 2129.21 1630.7C2126.67 1624.15 2123.83 1617.66 2120.75 1611.27C2112.81 1594.78 2103.13 1578.87 2091.94 1563.99C2087.6 1558.22 2083.04 1552.6 2078.27 1547.16C2068.13 1535.61 2057.05 1524.88 2045.18 1515.22C2039.78 1510.83 2034.23 1506.66 2028.52 1502.74C1996.84 1480.96 1960.55 1466.75 1922 1464.14C1920.9 1472.12 1919.13 1480.08 1916.73 1487.93C1990.26 1501.63 2052.82 1551.75 2086.44 1618.46ZM1079.06 1934.76C1077.05 1936.78 1075.06 1938.82 1073.09 1940.86C1068.94 1945.15 1064.77 1949.55 1060.62 1954.04C1052.49 1962.84 1044.49 1972.02 1036.99 1981.6C1020.85 2002.21 1007.1 2024.69 999.87 2049.37C975.75 2131.62 1053.43 2203.56 1133.59 2195.21C1174.18 2191 1218 2170.52 1246.17 2139.33C1238.62 2129.9 1231.87 2119.69 1225.92 2109.02C1216.96 2116.85 1208.59 2124.94 1199.24 2132.08C1195.8 2134.73 1192.24 2137.23 1188.45 2139.54C1181.88 2143.56 1175.09 2147.06 1168.09 2150.04C1159.69 2153.6 1150.98 2156.4 1141.93 2158.25C1112.28 2164.38 1080.44 2157.23 1057.58 2136.92C1033.47 2115.5 1024.87 2086.29 1034.87 2055.41C1041.83 2033.9 1054.93 2014.09 1069.72 1995.92C1075.74 1988.54 1082.03 1981.43 1088.3 1974.59C1091.29 1971.33 1094.27 1968.13 1097.22 1964.99C1121.79 1938.83 1149.45 1916.48 1176.5 1893.21C1175.24 1883.7 1174 1874.18 1172.78 1864.66C1154.17 1873.34 1136.75 1884.69 1120.41 1897.52C1113.15 1903.22 1106.11 1909.21 1099.28 1915.4C1092.33 1921.69 1085.58 1928.17 1079.06 1934.76ZM1524.05 2180.52C1560.59 2176.35 1593.24 2157.9 1613.21 2126.63C1618.18 2118.85 1622.18 2110.67 1625.4 2102.19C1628.46 2094.15 1630.81 2085.83 1632.61 2077.38C1637.67 2053.69 1638.44 2028.78 1638.27 2004.96C1637.91 1954.98 1636.57 1904.97 1635.2 1855C1634.4 1826 1633.56 1797 1632.58 1768C1631.63 1739.92 1631.96 1710.19 1625.28 1682.77C1623.25 1674.47 1610.04 1674.19 1608.18 1682.77C1603.36 1705.04 1603.43 1728.73 1603.13 1751.43C1602.81 1774.9 1602.71 1798.38 1602.66 1821.86C1602.57 1868.82 1602.61 1915.77 1602.97 1962.73C1603.04 1972.06 1603.3 1982.2 1603.42 1992.76C1603.56 2004.38 1603.53 2016.51 1602.91 2028.63C1600.38 2077.63 1588.1 2126.58 1537.46 2141.6C1522.8 2145.96 1506.84 2147.1 1491.81 2143.94C1484.3 2142.37 1476.78 2140.29 1469.84 2136.98C1464.44 2134.4 1459.65 2130.75 1454.58 2127.67C1452.86 2131.98 1450.93 2136.21 1448.72 2140.35C1445.32 2146.73 1441.31 2152.56 1436.81 2157.88C1447.16 2166.67 1462.27 2172.67 1473.35 2176.13C1489.51 2181.19 1507.28 2182.44 1524.05 2180.52ZM1179.6 1916.41C1185.69 1961.39 1190.36 2007.34 1202.39 2051.22C1207.74 2070.71 1215.62 2090.54 1225.92 2109.02C1231.87 2119.69 1238.62 2129.9 1246.17 2139.33C1273.88 2173.94 1312.21 2197.94 1360.17 2194.9C1390.06 2193.02 1417.88 2180.23 1436.81 2157.88C1441.31 2152.56 1445.32 2146.73 1448.72 2140.35C1450.93 2136.21 1452.86 2131.98 1454.58 2127.67C1466.19 2098.4 1467 2065.54 1465.06 2034.46C1464.71 2028.81 1464.31 2023.17 1463.9 2017.53C1463.19 2007.78 1462.38 1998.04 1461.52 1988.3C1458.42 1952.95 1454.59 1917.63 1451.34 1882.34C1446.41 1828.65 1441.47 1774.95 1436.54 1721.24C1435.61 1711.2 1428.61 1702.57 1417.86 1702.57C1408.48 1702.57 1398.25 1711.14 1399.18 1721.24C1407.35 1809.37 1415.52 1897.49 1423.69 1985.62C1424.04 1989.42 1424.45 1993.45 1424.89 1997.63C1425.98 2008.08 1427.23 2019.57 1428.09 2031.46C1431.8 2082.6 1428.37 2141.17 1374.72 2155.62C1302.28 2175.15 1253.8 2101.1 1237.32 2041.59C1237 2040.43 1236.7 2039.27 1236.39 2038.1C1234.41 2030.68 1232.63 2023.19 1231.01 2015.67C1224.04 1983.18 1220.03 1949.91 1215.2 1917.16C1208.82 1874 1202.83 1830.78 1197.26 1787.51C1190.95 1738.58 1185.73 1689.54 1179.75 1640.58C1174.69 1599.17 1172 1556.66 1164.05 1515.54C1160.74 1516 1157.43 1516.44 1154.11 1516.82C1149.33 1517.37 1144.54 1517.82 1139.75 1518.19C1139.05 1557.59 1143.86 1597.42 1147.12 1636.49C1151.04 1683.51 1156.56 1730.45 1162.03 1777.31C1165.42 1806.45 1169.03 1835.57 1172.78 1864.66C1174 1874.18 1175.24 1883.7 1176.5 1893.21C1177.53 1900.94 1178.55 1908.68 1179.6 1916.41ZM920 475.06C939.98 453 963.35 434.26 989.14 419.43C987.97 409.15 986.93 398.83 986.05 388.49C957.75 403.64 931.9 423.46 909.79 447.39C885.18 474.04 863.28 506.03 855.04 541.85C861.8 539.27 868.91 537.22 876.37 535.72C889.6 514.55 903.14 493.68 920 475.06ZM1181.11 392.3C1199.1 396.6 1216.87 402.48 1233.63 410.32C1246.61 416.38 1258.24 424.39 1270.26 431.8C1274.53 428.01 1278.92 424.3 1283.55 420.73C1288.25 417.11 1293.06 413.63 1297.92 410.24C1285.42 399.32 1269.3 391.15 1254.71 384.1C1238.49 376.25 1221.57 369.68 1204.19 364.89C1177.15 357.44 1148.84 353.61 1120.68 353.87C1125.68 364.39 1130.6 374.94 1135.41 385.55C1150.75 386.47 1166.05 388.7 1181.11 392.3ZM1879.65 1000.87C1910.62 976.83 1950.99 963.9 1989.76 964.97C2034.89 966.21 2076.05 986.42 2106.9 1019.07C2173.1 1089.19 2176.54 1202.59 2117.54 1278.39C2088.98 1315.11 2049.23 1339.9 2004.98 1351.94C2000.74 1365.02 1994.84 1377.57 1987.41 1389.12C1989.86 1389.55 1992.45 1389.58 1995.05 1389.2C2108.63 1372.6 2192.67 1268.73 2192.46 1155.4C2192.27 1048.63 2113.44 945.52 2003.33 936.71C1975.19 934.46 1946.04 939.49 1920.01 950.26C1904.4 956.73 1891.21 964.81 1879.51 974.95C1879.44 977.16 1879.34 979.37 1879.3 981.59C1879.2 987.97 1879.31 994.41 1879.65 1000.87ZM1270.26 431.8C1253.54 446.62 1239.35 463.14 1226.15 481.64C1232.29 483.46 1238.36 485.47 1244.37 487.69C1318.95 412.04 1423.99 368.74 1530.63 377.86C1639.98 387.22 1742.59 451.1 1802.22 542.68C1833.3 590.43 1853.43 644.58 1862.56 700.76C1872.63 762.7 1864 823.04 1853.69 884.27C1843.14 946.91 1833.6 1014.57 1856.8 1075.67C1875.91 1126.05 1916.07 1171.7 1971.7 1179.99C2024.5 1187.87 2085.29 1161.65 2097.37 1105.09C2103.46 1076.58 2094.46 1046.73 2071.07 1028.64C2048.97 1011.56 2018.36 1010.79 1995.87 1027.68C1984.22 1036.43 1979.32 1047.87 1978.04 1062.18C1976.66 1077.58 1998.88 1081.83 2006.02 1069.76C2015.74 1053.33 2036.32 1046.39 2051.14 1060.11C2068.19 1075.91 2063.85 1102.02 2050.82 1118.84C2022.55 1155.31 1965.22 1150.07 1932.67 1123.15C1896.21 1093 1882.05 1046.66 1879.65 1000.87C1879.31 994.41 1879.2 987.97 1879.3 981.59C1879.34 979.37 1879.44 977.16 1879.51 974.95C1881.6 913.34 1898.9 853.37 1902.75 791.88C1909.64 681.99 1873.88 570.23 1802.76 486.01C1734.88 405.63 1633.97 353.71 1528.99 346.19C1471.08 342.03 1412.05 352.76 1358.92 376C1337.48 385.38 1317.09 396.89 1297.92 410.24C1293.06 413.63 1288.25 417.11 1283.55 420.73C1278.92 424.3 1274.53 428.01 1270.26 431.8ZM1906.27 1341.6C1916.97 1329.61 1923.54 1313.53 1922.82 1297.35C1922.09 1280.99 1914.66 1265.28 1903.07 1253.81C1892.21 1243.06 1874.23 1232.08 1858.51 1236.91C1848.2 1240.08 1845.75 1254.6 1855.47 1260.2C1864.74 1265.55 1874.89 1266.19 1883.08 1273.79C1890.1 1280.3 1894.89 1289.19 1895.48 1298.81C1896.08 1308.64 1892.26 1318.5 1886.25 1326.16C1883.23 1330.01 1879.59 1332.72 1875.76 1335.14C1878.81 1337.87 1881.75 1340.75 1884.54 1343.81C1887.36 1346.89 1890.01 1350.08 1892.52 1353.33C1897.79 1349.98 1902.52 1345.8 1906.27 1341.6ZM1763.48 998.79C1772.06 958.09 1785.14 918.45 1792.61 877.5C1799.29 840.87 1800.62 804.59 1795.45 767.71C1776.15 629.9 1670.94 513.41 1533.75 486.1C1494.62 478.31 1454.93 477.46 1415.47 483.16C1378.99 488.42 1339.76 499.42 1308.86 520.44C1316.27 525.32 1323.49 530.59 1330.24 536.29C1356.3 526.38 1382.25 517.34 1410.2 512.78C1443.32 507.37 1478.07 507.55 1511.16 513.02C1576.67 523.86 1636.7 554.85 1681.75 603.82C1724.85 650.66 1753.56 712.2 1761 775.51C1765.01 809.68 1762.8 843.78 1755.76 877.4C1747.37 917.49 1734.35 956.44 1726.26 996.6C1712.52 1064.84 1715.25 1148.37 1769.68 1198.72C1778.82 1189.28 1788.95 1181.69 1799.75 1175.86C1750.34 1131.92 1750.81 1058.84 1763.48 998.79ZM1989.61 1226.99C1948.44 1167.23 1862.8 1141.8 1799.75 1175.86C1788.95 1181.69 1778.82 1189.28 1769.68 1198.72C1769.14 1199.28 1768.6 1199.83 1768.06 1200.4C1741.46 1228.93 1730.84 1277.69 1753.23 1309.93C1759.94 1307.47 1766.82 1305.69 1773.79 1304.56C1762.12 1277.39 1765.38 1245.84 1786.47 1223.08C1809.31 1198.45 1844.65 1187.67 1877.58 1192.95C1909 1198 1939.22 1214.6 1958.29 1240.43C1977.27 1266.14 1982.89 1298.66 1975.52 1329.57C1967.76 1362.16 1947.67 1390.18 1918.69 1406.59C1921.74 1418.37 1923.32 1430.48 1923.4 1442.66C1925.57 1442.48 1927.81 1441.9 1930.09 1440.8C1953.86 1429.29 1973.34 1411 1987.41 1389.12C1994.84 1377.57 2000.74 1365.02 2004.98 1351.94C2018.41 1310.56 2015.04 1263.91 1989.61 1226.99ZM1007.42 536.12C1005.48 526.92 1003.7 517.69 1002.05 508.45C984.33 518.41 966.98 530.7 954.23 545.74C961.02 549.28 967.44 553.56 973.36 558.57C983.32 551.81 993 544.56 1003.36 538.44C1004.7 537.65 1006.07 536.89 1007.42 536.12ZM1289.9 547.5C1301.03 555.23 1310.74 564.45 1320.92 573.17C1329.18 568.92 1338.24 566.53 1348.09 566.91C1350.53 567 1352.86 567.27 1355.12 567.69C1355.25 564.92 1354.54 562.12 1352.65 559.6C1346.34 551.15 1338.66 543.4 1330.24 536.29C1323.49 530.59 1316.27 525.32 1308.86 520.44C1300.02 514.62 1290.94 509.35 1282.15 504.65C1269.99 498.15 1257.34 492.48 1244.37 487.69C1238.36 485.47 1232.29 483.46 1226.15 481.64C1217.56 479.1 1208.87 476.9 1200.09 475.2C1190.63 473.36 1181.12 472.05 1171.6 471.18C1175.86 481.99 1180.02 492.83 1184.07 503.72C1205.6 507.4 1226.74 513.79 1246.5 522.8C1261.66 529.72 1276.21 537.99 1289.9 547.5ZM1102.57 392.6C1098.8 384.18 1094.96 375.79 1091.06 367.42C1078.18 369.21 1066.29 371.23 1052.63 368.41C1039.17 365.62 1027.94 359.68 1016.08 353.82C1016.41 363.24 1016.88 372.65 1017.44 382.06C1041.7 398.2 1077.99 402.93 1102.57 392.6ZM1120.21 506.68C1127.91 505.55 1138.44 504.26 1146.79 500.44C1143.33 491.19 1139.82 481.95 1136.21 472.76C1129.71 474.36 1123.14 477.1 1117.26 478.17C1105.55 480.3 1093.33 480.37 1081.48 479.38C1061.32 477.69 1042.75 470.54 1024.86 461.74C1025.88 469.73 1026.96 477.7 1028.15 485.66C1028.41 487.37 1028.68 489.07 1028.95 490.78C1043.98 499.38 1061.14 504.57 1078.04 506.94C1092.23 508.93 1106.03 508.75 1120.21 506.68ZM1193.22 582.08C1190.87 582.22 1188.52 582.41 1186.18 582.64C1188.54 582.88 1190.94 582.68 1193.22 582.08ZM994.1 458.25C996.46 474.92 999.05 491.7 1002.05 508.45C1003.7 517.69 1005.48 526.92 1007.42 536.12C1014.08 567.71 1022.62 598.89 1034.35 628.7C1036.64 626.5 1038.91 624.32 1041.19 622.18C1045.03 618.54 1048.95 614.95 1052.91 611.39C1044.87 571.2 1035.31 531.34 1028.95 490.78C1028.68 489.07 1028.41 487.37 1028.15 485.66C1026.96 477.7 1025.88 469.73 1024.86 461.74C1021.47 435.29 1019 408.69 1017.44 382.06C1016.88 372.65 1016.41 363.24 1016.08 353.82C1015.87 347.7 1015.7 341.59 1015.58 335.47C1015.35 323.56 1015.29 311.64 1015.46 299.73C1015.59 291.17 1015.45 281.9 1018.69 273.79C1026.07 255.36 1042.27 273.84 1048.58 283.46C1061.21 302.73 1070.69 324.73 1080.67 345.45C1084.19 352.75 1087.64 360.08 1091.06 367.42C1094.96 375.79 1098.8 384.18 1102.57 392.6C1105.67 399.52 1108.74 406.45 1111.75 413.41C1120.26 433.04 1128.4 452.83 1136.21 472.76C1139.82 481.95 1143.33 491.19 1146.79 500.44C1153.52 518.43 1159.99 536.51 1166.19 554.68C1168.88 554.27 1171.57 553.89 1174.28 553.58C1182.96 552.6 1192.06 552.14 1201.33 552.26C1195.8 536 1190.06 519.81 1184.07 503.72C1180.02 492.83 1175.86 481.99 1171.6 471.18C1162.7 448.57 1153.38 426.11 1143.58 403.85C1140.89 397.73 1138.17 391.63 1135.41 385.55C1130.6 374.94 1125.68 364.39 1120.68 353.87C1116.73 345.58 1112.75 337.31 1108.68 329.08C1097.1 305.64 1086.54 279.85 1070.44 259.11C1056.34 240.96 1033.73 226.27 1010.58 237.42C990.57 247.05 984.85 269.84 983.8 290.24C982.11 322.68 983.27 355.69 986.05 388.49C986.93 398.83 987.97 409.15 989.14 419.43C990.62 432.46 992.29 445.42 994.1 458.25ZM1663.72 1390.59C1644.92 1362.4 1643.55 1327.6 1645.65 1294.81C1650.54 1218.34 1664.82 1142.74 1669.22 1066.16C1676.82 933.56 1657.84 785.55 1561.63 685.61C1519.49 641.83 1457.7 601.94 1394.81 600.65C1399.49 609.29 1403.11 618.7 1406.04 627.74C1426.29 633.66 1446.13 640.7 1464.83 650.81C1490.67 664.79 1513.78 682.96 1534.01 704.22C1578.6 751.07 1606.04 809.91 1620.61 872.51C1636.76 941.89 1636.86 1013.94 1631.46 1084.62C1628.48 1123.64 1623.75 1162.5 1618.9 1201.33C1614.32 1237.99 1608.07 1275.02 1607.62 1312.02C1607.14 1350.98 1615.12 1389.72 1639.97 1420.57C1654.36 1438.45 1681.88 1459.8 1707.31 1459.98C1696.33 1447.1 1689.84 1431.08 1687.75 1414.29C1678.21 1408.2 1669.99 1399.99 1663.72 1390.59ZM1892.52 1353.33C1890.01 1350.08 1887.36 1346.89 1884.54 1343.81C1881.75 1340.75 1878.81 1337.87 1875.76 1335.14C1847.79 1310.06 1809.65 1298.73 1773.79 1304.56C1766.82 1305.69 1759.94 1307.47 1753.23 1309.93C1741.48 1314.24 1730.26 1320.58 1720.1 1329.16C1694.84 1350.5 1683.95 1383.67 1687.75 1414.29C1689.84 1431.08 1696.33 1447.1 1707.31 1459.98C1716.1 1470.3 1727.75 1478.6 1742.31 1483.67C1756.55 1488.62 1772.33 1488.49 1786.69 1484.22C1803.16 1479.31 1801.01 1450.81 1782.44 1452.85C1760.43 1455.28 1735.98 1443.68 1727.1 1422.57C1717.71 1400.25 1726.74 1373.33 1744.1 1357.68C1782.67 1322.91 1841.24 1342.75 1867.35 1382.02C1895.14 1423.82 1891.41 1475.53 1861.34 1515.12C1828.07 1558.91 1774.21 1578.46 1720.39 1575.56C1608.71 1569.53 1515.28 1479.56 1482.93 1376.23C1465.75 1321.39 1467.22 1265.96 1480.4 1210.41C1495.21 1147.98 1520.5 1088.35 1532.04 1025.08C1552.57 912.53 1521.53 790.61 1442.69 706.27C1435.55 698.64 1427.34 691.81 1419.14 685.14C1420.84 697.07 1421.93 709.08 1422.44 721.13C1433.66 735.95 1443.9 751.65 1453.18 767.3C1468.76 793.57 1480.91 821.74 1489.62 851.01C1507.77 912.01 1508.56 975.48 1493.75 1037.24C1477.4 1105.47 1447.73 1170.24 1437.16 1239.9C1427.58 1303.05 1435.69 1365.49 1461.42 1423.99C1512.72 1540.64 1638.55 1631.06 1769.51 1610.06C1828.44 1600.6 1884.61 1561.82 1909.6 1506.82C1912.42 1500.62 1914.78 1494.31 1916.73 1487.93C1919.13 1480.08 1920.9 1472.12 1922 1464.14C1922.98 1456.99 1923.45 1449.81 1923.4 1442.66C1923.32 1430.48 1921.74 1418.37 1918.69 1406.59C1913.77 1387.6 1905.02 1369.49 1892.52 1353.33ZM1164.05 1515.54C1253.18 1503.14 1335.96 1463.02 1403.71 1403.93C1421.79 1388.16 1395.38 1361.93 1377.4 1377.62C1265.71 1475.13 1102.71 1514.49 964.2 1451.98C898.19 1422.19 843.84 1372.53 811.12 1307.66C778.47 1242.95 770.75 1168.41 791.04 1098.75C802.98 1057.78 823.24 1019.61 846.39 983.92C866.47 952.96 890.16 924.69 911.49 894.68C903.35 891.73 895.37 888.3 887.59 884.44C867.83 905.46 850 928.48 833.16 951.87C834.75 953.8 836.37 955.72 838.07 957.57C851.21 971.99 829.7 993.53 816.63 979.02C816.19 978.53 815.77 978.02 815.34 977.53C796.32 1006.34 779.91 1036.69 767.73 1069.13C739.93 1143.14 740.69 1224.85 770.29 1298.23C800.05 1372.02 854.09 1433.02 923.88 1471.38C989.15 1507.25 1065.43 1523.85 1139.75 1518.19C1144.54 1517.82 1149.33 1517.37 1154.11 1516.82C1157.43 1516.44 1160.74 1516 1164.05 1515.54ZM862.29 679.97C850.7 664.64 846.84 640.97 858.91 624.78C870.18 609.65 895.18 601.13 911.25 613.98C926.39 626.09 926.12 647.04 916.14 661.95C905.88 677.26 928.42 693.48 941.1 681.21C959.75 663.16 960.45 633.97 950.1 611.44C939.35 588.04 915.44 573.08 889.55 574.42C863.36 575.77 837.49 591.06 825.76 614.93C813.57 639.73 816.35 669.98 830.76 693.3C864.1 747.25 935.17 741.49 983.95 714.11C1036.65 684.54 1068.67 628.46 1122.77 600.89C1142.49 590.84 1164.15 584.82 1186.18 582.64C1188.52 582.41 1190.87 582.22 1193.22 582.08C1199.75 581.68 1206.29 581.6 1212.8 581.87C1240.55 583.02 1264.7 591.36 1289.46 601.47C1294.12 595.29 1299.28 589.43 1304.96 584.35C1276.9 562.29 1237.74 552.75 1201.33 552.26C1192.06 552.14 1182.96 552.6 1174.28 553.58C1171.57 553.89 1168.88 554.27 1166.19 554.68C1143.85 558.04 1122.38 564.72 1102.3 575.41C1084.28 585 1068.12 597.76 1052.91 611.39C1048.95 614.95 1045.03 618.54 1041.19 622.18C1038.91 624.32 1036.64 626.5 1034.35 628.7C1026.32 636.43 1018.2 644.4 1009.81 652.11C1008.11 662.6 1004.29 672.62 997.85 681.43C992.4 688.87 979.37 685.37 980.74 676.05C962.58 688.9 942.64 698.52 919.6 700.91C898.45 703.11 875.67 697.66 862.29 679.97ZM1265.61 729.5C1269.27 723.33 1269.22 716.26 1270.55 709.3C1271.96 701.9 1273.41 694.46 1275.29 687.17C1278.8 673.48 1283.71 660.2 1290.15 647.61C1300 628.35 1321.04 590.67 1347.56 594.17C1372.69 597.48 1378.85 638.63 1382.87 657.83C1389.43 689.15 1391.3 721.32 1389.3 753.23C1387.97 774.44 1421.46 774.54 1422.41 753.23C1422.89 742.52 1422.89 731.81 1422.44 721.13C1421.93 709.08 1420.84 697.07 1419.14 685.14C1416.73 668.16 1413.11 651.35 1408.24 634.86C1407.56 632.53 1406.82 630.15 1406.04 627.74C1403.11 618.7 1399.49 609.29 1394.81 600.65C1386.07 584.5 1373.62 571.04 1355.12 567.69C1352.86 567.27 1350.53 567 1348.09 566.91C1338.24 566.53 1329.18 568.92 1320.92 573.17C1315.22 576.11 1309.89 579.93 1304.96 584.35C1299.28 589.43 1294.12 595.29 1289.46 601.47C1282.69 610.48 1276.99 620.17 1272.39 629.16C1264.52 644.56 1258.34 660.95 1254.35 677.78C1254.16 678.58 1253.96 679.42 1253.76 680.26C1255.68 679.83 1257.61 679.44 1259.56 679.11C1257.93 684.08 1256.5 689.12 1255.03 694.11C1253.21 700.26 1250.72 707.22 1248.96 714.31C1249.19 719.84 1250.2 725.06 1252.45 729.5C1255.1 734.72 1262.82 734.18 1265.61 729.5ZM807.19 783.57C805.78 793.01 803.25 802.21 801.13 811.51C823.41 842.27 853.59 867.55 887.59 884.44C895.37 888.3 903.35 891.73 911.49 894.68C915.81 896.25 920.17 897.7 924.56 898.99C1006.66 923.12 1096.8 894.63 1157.98 836.94C1174.85 821.03 1189.71 802.6 1201.6 782.68C1213.14 763.34 1221.62 738.62 1240.65 725.11C1242.91 723.5 1245.23 722.1 1247.59 720.86C1247.95 718.68 1248.43 716.49 1248.96 714.31C1250.72 707.22 1253.21 700.26 1255.03 694.11C1256.5 689.12 1257.93 684.08 1259.56 679.11C1257.61 679.44 1255.68 679.83 1253.76 680.26C1242.95 682.68 1232.51 686.77 1223.26 692.82C1206.19 704 1194.34 720.43 1184.5 738.01C1175.32 754.43 1166.91 771.14 1155.26 786.02C1143.55 801 1129.61 814.74 1114.47 826.24C1084.94 848.66 1049.89 864 1013.25 869.8C942.68 880.96 869.37 848.66 827.99 790.69C785.89 731.7 777.61 638.3 838.21 587.71C868.07 562.78 915.53 554.19 949.42 575.89C982.78 597.25 992.45 638.21 981.11 674.37C980.93 674.95 980.82 675.5 980.74 676.05C979.37 685.37 992.4 688.87 997.85 681.43C1004.29 672.62 1008.11 662.6 1009.81 652.11C1013.99 626.37 1005.31 597.77 990.59 577.23C985.53 570.17 979.73 563.95 973.36 558.57C967.44 553.56 961.02 549.28 954.23 545.74C933.11 534.72 908.38 530.85 883.84 534.42C881.31 534.79 878.82 535.23 876.37 535.72C868.91 537.22 861.8 539.27 855.04 541.85C782.4 569.55 750.37 656.34 765.49 731.56C769.27 750.33 775.86 768.28 784.7 785.09C786.9 781.45 789.37 778 792.14 774.8C798.71 767.21 808.37 775.68 807.19 783.57ZM838.07 957.57C836.37 955.72 834.75 953.8 833.16 951.87C815.15 929.94 803.78 903.17 799.13 875.17C796.65 860.29 796.49 844.81 797.94 829.82C798.55 823.61 799.75 817.54 801.13 811.51C803.25 802.21 805.78 793.01 807.19 783.57C808.37 775.68 798.71 767.21 792.14 774.8C789.37 778 786.9 781.45 784.7 785.09C768.38 812.02 766.85 849.8 770.76 879.41C775.59 916.05 790.92 949.83 815.34 977.53C815.77 978.02 816.19 978.53 816.63 979.02C829.7 993.53 851.21 971.99 838.07 957.57Z" />
		<path id="Path 44" class="shp18" d="M1302.77 1191.19C1268.71 1191.19 1241.1 1218.8 1241.1 1252.86C1241.1 1286.92 1268.71 1314.53 1302.77 1314.53C1336.83 1314.53 1364.44 1286.92 1364.44 1252.86C1364.44 1218.8 1336.83 1191.19 1302.77 1191.19Z" />
		<path id="Path 45" fill-rule="evenodd" class="shp17" d="M879.3 1293.3C880.57 1298.4 877.68 1303.23 872.75 1304.83C868.01 1306.36 862.41 1303.04 861.22 1298.28C860.51 1295.44 859.8 1292.61 859.09 1289.77C857.81 1284.67 860.71 1279.83 865.64 1278.24C870.37 1276.7 875.98 1280.03 877.17 1284.79C877.88 1287.62 878.59 1290.46 879.3 1293.3ZM1149.79 1420.78C1137.67 1445.59 1112.66 1461.82 1085.12 1463.03C1071.81 1463.62 1068.76 1443 1082.12 1442.41C1100.67 1441.59 1117.25 1432.1 1127.11 1418.02C1103.46 1410.32 1079.44 1393.06 1083.07 1365.02C1086.72 1336.75 1119.2 1325.54 1140.17 1344.12C1160.85 1362.44 1161.17 1397.48 1149.79 1420.78ZM1134.99 1375.79C1133.17 1368.41 1129.37 1360.12 1122.03 1356.76C1114.37 1353.26 1107.1 1356.99 1104.43 1364.68C1097.99 1383.25 1120.96 1395.04 1135.42 1399.02C1136.98 1391.71 1136.97 1383.86 1134.99 1375.79ZM1228.19 1050.13C1185.26 1052.66 1155.74 1091.63 1160 1133.35C1161.36 1146.7 1140.51 1146.56 1139.16 1133.35C1135.38 1096.27 1153.95 1062.12 1183.47 1043.6C1180.98 1038.05 1178.49 1032.5 1176 1026.94C1173.69 1021.79 1174.45 1015.78 1179.74 1012.69C1184.22 1010.07 1191.69 1011.29 1193.99 1016.43C1196.62 1022.29 1199.25 1028.15 1201.88 1034.02C1201.97 1034.21 1202.02 1034.41 1202.09 1034.6C1210.32 1031.68 1219.07 1029.83 1228.19 1029.3C1232.14 1029.07 1236.02 1029.1 1239.85 1029.37C1241.41 1023.26 1242.96 1017.15 1244.51 1011.04C1245.91 1005.56 1251.97 1002.29 1257.33 1003.76C1262.83 1005.27 1265.99 1011.12 1264.6 1016.57C1263.19 1022.13 1261.78 1027.69 1260.36 1033.25C1269.55 1036.11 1278.16 1040.39 1285.92 1045.83C1289.58 1040.34 1293.24 1034.85 1296.9 1029.36C1300.03 1024.67 1306.05 1022.64 1311.15 1025.62C1315.8 1028.35 1318.01 1035.19 1314.89 1039.88C1310.63 1046.26 1306.38 1052.64 1302.13 1059.03C1301.98 1059.24 1301.8 1059.42 1301.65 1059.62C1307.86 1066.41 1313.14 1074.08 1317.25 1082.41C1322.33 1076.93 1327.4 1071.44 1332.48 1065.95C1341.61 1056.09 1356.3 1070.86 1347.21 1080.69C1340.82 1087.59 1334.42 1094.5 1328.04 1101.41C1327.02 1102.5 1325.94 1103.28 1324.83 1103.81C1326.31 1110.33 1327.14 1117.07 1327.21 1123.96C1327.35 1137.4 1306.52 1137.36 1306.38 1123.96C1305.93 1081.66 1270.71 1047.63 1228.19 1050.13ZM1906.69 1619.95C1917.35 1606.53 1936.24 1599.57 1952.53 1606.39C1957.19 1608.34 1961.11 1611.1 1964.28 1614.44C1977.61 1600.76 1999.85 1595.82 2018.5 1609.11C2050.74 1632.07 2033.02 1681.13 2015.54 1707.59C2006.81 1720.82 1993.54 1740.08 1976.36 1741.86C1958.65 1743.69 1943.23 1727.27 1931.25 1716.31C1905.9 1693.13 1880.98 1652.35 1906.69 1619.95ZM1921.38 1670.79C1927.27 1683.91 1937.87 1694.38 1948.45 1703.8C1953.45 1708.25 1958.58 1713 1964.07 1716.85C1971.04 1721.74 1975.63 1721.83 1981.92 1715.97C2000.13 1699.01 2021.39 1664.67 2014.48 1638.57C2011.29 1626.49 1998.79 1618.66 1986.5 1623.03C1974.66 1627.25 1971.24 1641.03 1975.21 1651.82C1979.85 1664.45 1959.71 1669.84 1955.12 1657.36C1952.25 1649.56 1951.86 1641.96 1953.29 1634.98C1951.86 1621.98 1931.75 1623.37 1924.26 1631.34C1914.35 1641.88 1915.86 1658.52 1921.38 1670.79Z" />
		<path id="Path 46" class="shp6" d="M1332.2 646.42C1314.4 646.42 1299.97 666.13 1299.97 690.45C1299.97 714.76 1314.4 726.13 1332.2 726.13C1350.01 726.13 1364.44 714.76 1364.44 690.45C1364.44 666.13 1350.01 646.42 1332.2 646.42Z" />
		<path id="Path 47" fill-rule="evenodd" class="shp17" d="M769.41 1781.9L748.52 1798.85L726.15 1817.01C720.14 1821.89 712.85 1824.4 705.46 1824.4C700.8 1824.4 696.1 1823.4 691.66 1821.37C680.19 1816.1 672.85 1804.99 672.49 1792.36L670.94 1736.68C670.85 1733.38 669.14 1730.35 666.38 1728.56L619.62 1698.27C609.03 1691.41 603.35 1679.35 604.82 1666.81C606.29 1654.28 614.59 1643.85 626.48 1639.62L678.96 1620.93C682.06 1619.83 684.42 1617.27 685.27 1614.08L699.63 1560.26C702.88 1548.06 712.59 1538.94 724.97 1536.46C737.35 1533.98 749.82 1538.65 757.53 1548.65L791.52 1592.79C793.53 1595.4 796.7 1596.86 799.98 1596.68L855.61 1593.7C868.21 1593.01 879.89 1599.44 886.08 1610.45C892.26 1621.46 891.67 1634.76 884.54 1645.18L853.06 1691.15C851.2 1693.86 850.8 1697.32 851.98 1700.4L872 1752.39C876.54 1764.16 874.05 1777.25 865.49 1786.53C856.93 1795.81 844.09 1799.36 831.99 1795.8L815.59 1790.98L787.53 1782.72L778.54 1780.07C775.65 1779.21 772.55 1779.73 770.08 1781.42C769.85 1781.58 769.63 1781.73 769.41 1781.9ZM754.97 1764.11C763.38 1757.28 774.61 1755.03 785.01 1758.09L838.46 1773.82C843.84 1775.4 847.37 1772.37 848.64 1771C849.91 1769.62 852.64 1765.86 850.62 1760.62L830.6 1708.63C826.7 1698.52 828.03 1687.14 834.15 1678.2L865.63 1632.23C868.8 1627.6 867.01 1623.31 866.1 1621.67C865.18 1620.05 862.41 1616.27 856.84 1616.59L801.21 1619.56C790.4 1620.12 779.97 1615.36 773.36 1606.78L739.37 1562.64C736.9 1559.42 733.79 1558.72 731.56 1558.72C730.71 1558.72 729.98 1558.83 729.48 1558.93C727.64 1559.3 723.22 1560.74 721.77 1566.16L707.41 1619.99C704.62 1630.46 696.86 1638.89 686.64 1642.52L634.16 1661.21C628.87 1663.09 627.8 1667.62 627.58 1669.48C627.36 1671.33 627.37 1675.98 632.08 1679.04L678.84 1709.33C687.93 1715.22 693.54 1725.2 693.85 1736.04L695.4 1791.73C695.56 1797.34 699.53 1799.76 701.23 1800.54C702.93 1801.32 707.35 1802.76 711.71 1799.22L754.97 1764.11Z" />
		<path id="Path 48" class="shp5" d="M902.19 2146.77L862.72 2159.15C856.02 2161.25 852.26 2168.44 854.36 2175.15C856.46 2181.83 863.66 2185.6 870.36 2183.5L909.83 2171.13C916.53 2169.02 920.29 2161.81 918.19 2155.12C916.09 2148.42 908.89 2144.67 902.19 2146.77Z" />
		<path id="Path 49" class="shp2" d="M1456.98 2325.42L1417.15 2314.25C1410.39 2312.35 1403.31 2316.33 1401.41 2323.08C1399.51 2329.85 1403.49 2336.94 1410.25 2338.83L1450.08 2350C1456.84 2351.9 1463.93 2347.92 1465.82 2341.17C1467.72 2334.4 1463.74 2327.31 1456.98 2325.42Z" />
		<path id="Path 50" class="shp10" d="M1945.81 2264.33C1944.98 2257.38 1938.6 2252.35 1931.62 2253.17L1890.55 2258.06C1883.58 2258.9 1878.55 2265.27 1879.38 2272.25C1880.21 2279.21 1886.59 2284.25 1893.56 2283.42L1934.64 2278.52C1941.61 2277.69 1946.64 2271.31 1945.81 2264.33Z" />
		<path id="Path 51" class="shp4" d="M2378.98 2283.21L2338.4 2275.15C2331.52 2273.79 2324.77 2278.31 2323.4 2285.19C2322.04 2292.08 2326.56 2298.83 2333.44 2300.21L2374.02 2308.25C2380.9 2309.6 2387.65 2305.1 2389.02 2298.21C2390.4 2291.31 2385.87 2284.56 2378.98 2283.21Z" />
		<path id="Path 52" class="shp0" d="M978.89 2285.85C965.6 2285.85 954.83 2296.63 954.83 2309.9C954.83 2323.19 965.6 2333.96 978.89 2333.96C992.17 2333.96 1002.94 2323.19 1002.94 2309.9C1002.94 2296.63 992.17 2285.85 978.89 2285.85Z" />
		<path id="Path 53" class="shp1" d="M1662.35 2226.81C1649.06 2226.81 1638.29 2237.58 1638.29 2250.85C1638.29 2264.15 1649.06 2274.92 1662.35 2274.92C1675.63 2274.92 1686.4 2264.15 1686.4 2250.85C1686.4 2237.58 1675.63 2226.81 1662.35 2226.81Z" />
		<path id="Path 54" class="shp5" d="M2168.19 2445.02C2154.92 2445.02 2144.15 2455.79 2144.15 2469.08C2144.15 2482.38 2154.92 2493.15 2168.19 2493.15C2181.48 2493.15 2192.25 2482.38 2192.25 2469.08C2192.25 2455.79 2181.48 2445.02 2168.19 2445.02Z" />
		<path id="Path 55" class="shp7" d="M2522.25 2205.44C2535.54 2205.44 2546.31 2194.67 2546.31 2181.38C2546.31 2168.08 2535.54 2157.33 2522.25 2157.33C2508.96 2157.33 2498.19 2168.08 2498.19 2181.38C2498.19 2194.67 2508.96 2205.44 2522.25 2205.44Z" />
		<path id="Path 56" class="shp9" d="M909.24 774.16C909.24 780.15 904.4 784.99 898.42 784.99C892.44 784.99 887.59 780.15 887.59 774.16C887.59 768.19 892.44 763.34 898.42 763.34C904.4 763.34 909.24 768.19 909.24 774.16ZM1661.54 658.29C1661.54 664.84 1656.23 670.16 1649.68 670.16C1643.12 670.16 1637.81 664.84 1637.81 658.29C1637.81 651.74 1643.12 646.42 1649.68 646.42C1656.23 646.42 1661.54 651.74 1661.54 658.29ZM1514.76 1289.74C1514.76 1296.3 1509.45 1301.62 1502.88 1301.62C1496.32 1301.62 1491 1296.3 1491 1289.74C1491 1283.18 1496.32 1277.86 1502.88 1277.86C1509.45 1277.86 1514.76 1283.18 1514.76 1289.74ZM2102.54 1218.8C2102.54 1228.15 2094.96 1235.74 2085.6 1235.74C2076.25 1235.74 2068.66 1228.15 2068.66 1218.8C2068.66 1209.44 2076.25 1201.85 2085.6 1201.85C2094.96 1201.85 2102.54 1209.44 2102.54 1218.8ZM2243.06 1458.06C2243.06 1466.56 2236.17 1473.45 2227.67 1473.45C2219.17 1473.45 2212.27 1466.56 2212.27 1458.06C2212.27 1449.55 2219.17 1442.66 2227.67 1442.66C2236.17 1442.66 2243.06 1449.55 2243.06 1458.06ZM2117.63 2024.87C2117.63 2029.95 2113.5 2034.07 2108.42 2034.07C2103.33 2034.07 2099.23 2029.95 2099.23 2024.87C2099.23 2019.79 2103.33 2015.67 2108.42 2015.67C2113.5 2015.67 2117.63 2019.79 2117.63 2024.87ZM2460.67 1963.52C2460.67 1973.5 2452.56 1981.6 2442.58 1981.6C2432.6 1981.6 2424.52 1973.5 2424.52 1963.52C2424.52 1953.54 2432.6 1945.45 2442.58 1945.45C2452.56 1945.45 2460.67 1953.54 2460.67 1963.52ZM697.36 1684.27C697.36 1691.53 691.47 1697.41 684.21 1697.41C676.96 1697.41 671.07 1691.53 671.07 1684.27C671.07 1677.01 676.96 1671.13 684.21 1671.13C691.47 1671.13 697.36 1677.01 697.36 1684.27ZM2751.33 1722.34C2751.33 1731.95 2743.54 1739.74 2733.94 1739.74C2724.33 1739.74 2716.54 1731.95 2716.54 1722.34C2716.54 1712.72 2724.33 1704.93 2733.94 1704.93C2743.54 1704.93 2751.33 1712.72 2751.33 1722.34Z" />
		<path id="Path 57" class="shp19" d="M936.33 2652.71C926.63 2652.71 918.77 2644.85 918.77 2635.15C918.77 2625.46 926.63 2617.6 936.33 2617.6C946.02 2617.6 953.88 2625.46 953.88 2635.15C953.88 2644.85 946.02 2652.71 936.33 2652.71ZM1125.19 2736.12C1104.93 2736.12 1079.08 2731.73 1051.98 2722.83C995.5 2704.33 954.94 2673.37 961.39 2653.71C964.74 2643.46 980.15 2638.29 1002.12 2638.29C1022.38 2638.29 1048.23 2642.69 1075.33 2651.56C1131.81 2670.08 1172.37 2701.04 1165.92 2720.71C1162.57 2730.96 1147.16 2736.12 1125.19 2736.12Z" />
		<path id="Path 58" class="shp9" d="M1579.25 908.73C1574.7 871.11 1565.99 835.67 1555.85 799.27C1553.96 792.51 1543.99 795.36 1545.4 802.15C1552.86 838.09 1556.26 875.9 1558.5 912.5C1560.7 948.36 1561.06 984.28 1558.64 1020.14C1556.2 1056.18 1551.79 1091.91 1544.43 1127.3C1540.83 1144.57 1536.45 1161.66 1531.98 1178.72C1527.51 1195.77 1520.98 1214.8 1520.63 1232.48C1520.51 1238.38 1529.18 1242.92 1533.25 1237.71C1544.05 1223.89 1549.74 1205.57 1555.19 1189.04C1561.09 1171.15 1565.02 1152.45 1568.75 1134C1576.2 1097.17 1581.26 1059.58 1583 1022.03C1584.74 984.29 1583.8 946.25 1579.25 908.73ZM1750.79 1499.81C1730.82 1505.68 1708.38 1511.1 1687.56 1507.28C1666.56 1503.42 1648.24 1493.81 1633.93 1477.94C1629.12 1472.61 1619.37 1479.84 1623.81 1485.75C1653.84 1525.7 1715.84 1546.51 1756.49 1509.6C1760.86 1505.64 1756.28 1498.19 1750.79 1499.81ZM1190.63 671.69C1172.56 672.61 1157.24 682.04 1143.08 692.67C1128.28 703.78 1114.64 716.28 1102.71 730.46C1090.67 744.77 1081.56 761.37 1069.23 775.4C1056.54 789.85 1036.24 803.71 1016.49 794.39C1009.64 791.15 1003.98 800.46 1010.5 804.63C1025.61 814.3 1043.5 813.26 1059.37 805.9C1078.34 797.09 1090.64 779.64 1102.54 763.18C1114.87 746.11 1128.4 730.49 1144.57 716.93C1160.41 703.68 1179.64 694.56 1193.84 679.44C1196.39 676.72 1194.72 671.48 1190.63 671.69ZM1751.04 565.31C1743.71 538.94 1720.4 514.89 1700.12 497.51C1678.72 479.19 1654.84 463.71 1629.06 452.29C1570.15 426.2 1505.16 420.67 1443.31 439.02C1436.95 440.91 1439.7 449.8 1446 448.77C1504.54 439.2 1567.96 445.75 1621.84 471.1C1645.71 482.34 1668 496.99 1687.65 514.61C1696.99 522.98 1706.12 531.62 1714.56 540.9C1723.57 550.82 1731.99 561.8 1742.22 570.44C1746.06 573.69 1752.53 570.7 1751.04 565.31ZM1040.34 306.96C1040.44 297.42 1026.43 297.68 1025.69 306.96C1024.73 318.91 1021.31 333.63 1026.55 344.91C1028.37 348.85 1034.3 348.31 1036.29 344.91C1042.45 334.33 1040.21 318.73 1040.34 306.96ZM1048.84 438.77C1048.34 429.84 1048.14 420.89 1046.25 412.12C1044.91 405.89 1034.29 405.49 1033.26 412.12C1031.87 420.98 1032.06 429.82 1032.05 438.77C1032.04 446.58 1031.53 454.84 1037.12 460.84C1038.98 462.84 1042.96 463.04 1044.79 460.84C1050.06 454.46 1049.3 446.73 1048.84 438.77ZM1070.69 554.16C1069.65 547.64 1068.61 541.11 1067.57 534.59C1066.07 525.16 1049.53 527.27 1050.74 536.87C1051.57 543.42 1052.39 549.97 1053.22 556.53C1054 562.73 1054.04 569.18 1059.26 573.42C1062.68 576.21 1066.93 575.81 1069.49 572.1C1073.34 566.56 1071.67 560.37 1070.69 554.16ZM2450.35 1581.97C2431.71 1526.24 2392.1 1484.36 2339.71 1459C2331.56 1455.06 2324.4 1466.88 2332.54 1471.27C2376.81 1495.16 2412.4 1540.48 2426.9 1588.44C2434.9 1614.86 2436.96 1643.18 2433.46 1670.55C2431.69 1684.31 2428.29 1697.93 2423.69 1711C2419.29 1723.48 2410.9 1737.26 2410.56 1750.62C2410.42 1757.36 2418.21 1761.65 2423.92 1758.28C2436.75 1750.65 2443.54 1733.06 2448.35 1719.6C2453.44 1705.38 2456.81 1690.7 2458.81 1675.75C2463.06 1644.29 2460.46 1612.13 2450.35 1581.97ZM2394.31 2060.93C2371.42 2073.98 2347.75 2084.54 2320.81 2082.76C2295.54 2081.08 2271.02 2069.55 2253.71 2051.19C2245.92 2042.95 2234.1 2055.11 2241.37 2063.52C2261.37 2086.67 2288.54 2101.88 2319.19 2104.65C2349.69 2107.42 2384.1 2097.83 2404.33 2073.93C2410.19 2067.01 2402.88 2056.05 2394.31 2060.93ZM876.46 2395.02C870.43 2389.92 864.12 2388.94 856.79 2386.54C848.83 2383.94 841.2 2380.46 833.82 2376.5C820.15 2369.15 807.71 2360.08 797.19 2348.62C774.57 2323.96 762.6 2290.15 762.15 2256.94C762.02 2247.4 748.62 2247.83 747.65 2256.94C743.6 2294.79 755.4 2332.17 780.01 2361.17C791.41 2374.6 805.77 2386.37 821.46 2394.42C834.95 2401.31 858.51 2412.44 873.52 2406.17C877.66 2404.44 880.73 2398.65 876.46 2395.02ZM1712.31 2649.54C1710.91 2643.98 1703.24 2644.54 1701.57 2649.54C1695.36 2668.19 1695.71 2689.96 1684.9 2706.92C1675.22 2722.1 1656.19 2731.54 1640.19 2719.58C1634.34 2715.21 1626.97 2724.85 1632.38 2729.71C1650.24 2745.71 1676.47 2742.81 1693.46 2727C1714.28 2707.6 1718.88 2675.71 1712.31 2649.54ZM2653.54 2261.25C2650.4 2252.71 2637.23 2256.02 2639.69 2265.08C2651 2306.42 2663.19 2350.58 2653.15 2393.46C2648.92 2411.5 2640.54 2428.4 2627.08 2441.35C2621.21 2447.04 2614.44 2451.69 2607.1 2455.31C2599.19 2459.27 2591.04 2461.37 2584.77 2467.98C2581.35 2471.58 2581.98 2477.48 2586.31 2480.06C2604.21 2490.73 2627.25 2475.48 2640.81 2463.83C2657.48 2449.52 2668.73 2429.77 2674.44 2408.69C2688.06 2358.48 2670.75 2308.17 2653.54 2261.25Z" />
		<path id="Path 59" class="shp2" d="M393.94 1713.14C393.94 1729.07 381.02 1742 365.08 1742C349.14 1742 336.21 1729.07 336.21 1713.14C336.21 1697.19 349.14 1684.27 365.08 1684.27C381.02 1684.27 393.94 1697.19 393.94 1713.14ZM1630.49 192.37C1630.49 213.99 1612.97 231.51 1591.36 231.51C1569.74 231.51 1552.22 213.99 1552.22 192.37C1552.22 170.76 1569.74 153.24 1591.36 153.24C1612.97 153.24 1630.49 170.76 1630.49 192.37Z" />
		<path id="Path 60" class="shp4" d="M599.62 1048.45C599.62 1065.42 585.85 1079.19 568.87 1079.19C551.89 1079.19 538.13 1065.42 538.13 1048.45C538.13 1031.47 551.89 1017.7 568.87 1017.7C585.85 1017.7 599.62 1031.47 599.62 1048.45Z" />
		<path id="Path 61" class="shp0" d="M2641.08 1272.6C2641.08 1290.61 2626.48 1305.21 2608.48 1305.21C2590.46 1305.21 2575.88 1290.61 2575.88 1272.6C2575.88 1254.59 2590.46 1239.99 2608.48 1239.99C2626.48 1239.99 2641.08 1254.59 2641.08 1272.6ZM459.16 369.81C459.16 387.82 444.56 402.41 426.55 402.41C408.54 402.41 393.94 387.82 393.94 369.81C393.94 351.8 408.54 337.2 426.55 337.2C444.56 337.2 459.16 351.8 459.16 369.81Z" />
		<path id="Path 62" class="shp1" d="M2098.29 717.74C2098.29 730.33 2088.08 740.54 2075.48 740.54C2062.89 740.54 2052.69 730.33 2052.69 717.74C2052.69 705.15 2062.89 694.94 2075.48 694.94C2088.08 694.94 2098.29 705.15 2098.29 717.74Z" />
		<path id="Path 63" class="shp10" d="M2583.08 479.47C2583.08 499.78 2566.62 516.25 2546.31 516.25C2526 516.25 2509.52 499.78 2509.52 479.47C2509.52 459.16 2526 442.7 2546.31 442.7C2566.62 442.7 2583.08 459.16 2583.08 479.47Z" />
		<path id="Path 64" class="shp9" d="M1630.49 2425.58L1608.9 2423.23L1594.73 2439.69L1590.29 2418.42L1570.27 2410.02L1589.11 2399.23L1590.91 2377.6L1606.99 2392.19L1628.13 2387.21L1619.23 2407.02L1630.49 2425.58ZM863.2 2296.06L844.81 2274.42L816.55 2277.29L831.45 2253.1L819.99 2227.13L847.59 2233.83L868.76 2214.9L870.91 2243.21L895.46 2257.5L869.19 2268.29L863.2 2296.06ZM2147.75 2285.02L2120.6 2276.65L2098.33 2294.27L2097.9 2265.85L2074.26 2250.13L2101.15 2240.94L2108.81 2213.58L2125.85 2236.31L2154.23 2235.15L2137.9 2258.38L2147.75 2285.02Z" />
	</g>
</svg>